iA Writer Duospace-Regular.ufo
<glyph name="exclam" format="1">
  <advance width="600"/>
  <unicode hex="0021"/>
  <outline>
    <contour>
      <point x="256" y="495" type="line"/>
      <point x="284" y="233" type="line"/>
      <point x="316" y="233" type="line"/>
      <point x="344" y="495" type="line"/>
      <point x="344" y="698" type="line"/>
      <point x="256" y="698" type="line"/>
    </contour>
    <contour>
      <point x="300" y="-9" type="curve"/>
      <point x="354" y="-9"/>
      <point x="374" y="17"/>
      <point x="374" y="51" type="curve"/>
      <point x="374" y="69" type="line" smooth="yes"/>
      <point x="374" y="103"/>
      <point x="354" y="129"/>
      <point x="300" y="129" type="curve"/>
      <point x="246" y="129"/>
      <point x="226" y="103"/>
      <point x="226" y="69" type="curve"/>
      <point x="226" y="51" type="line" smooth="yes"/>
      <point x="226" y="17"/>
      <point x="246" y="-9"/>
    </contour>
  </outline>
</glyph>
<glyph name="quotesingle" format="1">
  <advance width="600"/>
  <unicode hex="0027"/>
  <outline>
    <contour>
      <point x="262" y="740" type="line"/>
      <point x="262" y="463" type="line"/>
      <point x="338" y="463" type="line"/>
      <point x="338" y="740" type="line"/>
    </contour>
  </outline>
</glyph>
<glyph name="comma" format="1">
  <advance width="600"/>
  <unicode hex="002C"/>
  <outline>
    <contour>
      <point x="386" y="136" type="line"/>
      <point x="257" y="136" type="line"/>
      <point x="204" y="-141" type="line"/>
      <point x="271" y="-141" type="line"/>
    </contour>
  </outline>
</glyph>
<glyph name="slash" format="1">
  <advance width="600"/>
  <unicode hex="002F"/>
  <outline>
    <contour>
      <point x="438" y="760" type="line"/>
      <point x="90" y="-138" type="line"/>
      <point x="162" y="-138" type="line"/>
      <point x="510" y="760" type="line"/>
    </contour>
  </outline>
</glyph>
<glyph name="one" format="1">
  <advance width="600"/>
  <unicode hex="0031"/>
  <outline>
    <contour>
      <point x="85" y="73" type="line"/>
      <point x="85" y="0" type="line"/>
      <point x="553" y="0" type="line"/>
      <point x="553" y="73" type="line"/>
      <point x="369" y="73" type="line"/>
      <point x="369" y="698" type="line"/>
      <point x="277" y="698" type="line"/>
      <point x="49" y="569" type="line"/>
      <point x="82" y="505" type="line"/>
      <point x="285" y="622" type="line"/>
      <point x="285" y="73" type="line"/>
    </contour>
  </outline>
</glyph>
<glyph name="three" format="1">
  <advance width="600"/>
  <unicode hex="0033"/>
  <outline>
    <contour>
      <point x="270" y="402" type="curve"/>
      <point x="193" y="402" type="line"/>
      <point x="193" y="330" type="line"/>
      <point x="276" y="330" type="line" smooth="yes"/>
      <point x="378" y="330"/>
      <point x="430" y="282"/>
      <point x="430" y="200" type="curve"/>
      <point x="430" y="192" type="line" smooth="yes"/>
      <point x="430" y="109"/>
      <point x="375" y="61"/>
      <point x="277" y="61" type="curve"/>
      <point x="189" y="61"/>
      <point x="148" y="100"/>
      <point x="111" y="155" type="curve"/>
      <point x="48" y="107" type="line"/>
      <point x="91" y="47"/>
      <point x="154" y="-12"/>
      <point x="277" y="-12" type="curve"/>
      <point x="422" y="-12"/>
      <point x="518" y="71"/>
      <point x="518" y="191" type="curve"/>
      <point x="518" y="296"/>
      <point x="445" y="352"/>
      <point x="368" y="367" type="curve"/>
      <point x="368" y="371" type="line"/>
      <point x="444" y="390"/>
      <point x="504" y="444"/>
      <point x="504" y="534" type="curve"/>
      <point x="504" y="647"/>
      <point x="409" y="710"/>
      <point x="290" y="710" type="curve"/>
      <point x="176" y="710"/>
      <point x="114" y="652"/>
      <point x="78" y="596" type="curve"/>
      <point x="141" y="548" type="line"/>
      <point x="170" y="601"/>
      <point x="214" y="637"/>
      <point x="288" y="637" type="curve"/>
      <point x="364" y="637"/>
      <point x="416" y="599"/>
      <point x="416" y="525" type="curve"/>
      <point x="416" y="518" type="line" smooth="yes"/>
      <point x="416" y="451"/>
      <point x="367" y="402"/>
    </contour>
  </outline>
</glyph>
<glyph name="seven" format="1">
  <advance width="600"/>
  <unicode hex="0037"/>
  <outline>
    <contour>
      <point x="446" y="626" type="line"/>
      <point x="173" y="0" type="line"/>
      <point x="263" y="0" type="line"/>
      <point x="531" y="624" type="line"/>
      <point x="531" y="698" type="line"/>
      <point x="65" y="698" type="line"/>
      <point x="65" y="496" type="line"/>
      <point x="140" y="496" type="line"/>
      <point x="140" y="626" type="line"/>
    </contour>
  </outline>
</glyph>
<glyph name="semicolon" format="1">
  <advance width="600"/>
  <unicode hex="003B"/>
  <outline>
    <contour>
      <point x="354" y="387"/>
      <point x="374" y="413"/>
      <point x="374" y="447" type="curve" smooth="yes"/>
      <point x="374" y="465" type="line" smooth="yes"/>
      <point x="374" y="499"/>
      <point x="354" y="525"/>
      <point x="300" y="525" type="curve" smooth="yes"/>
      <point x="246" y="525"/>
      <point x="226" y="499"/>
      <point x="226" y="465" type="curve" smooth="yes"/>
      <point x="226" y="447" type="line" smooth="yes"/>
      <point x="226" y="413"/>
      <point x="246" y="387"/>
      <point x="300" y="387" type="curve" smooth="yes"/>
    </contour>
    <contour>
      <point x="204" y="-141" type="line"/>
      <point x="271" y="-141" type="line"/>
      <point x="386" y="136" type="line"/>
      <point x="257" y="136" type="line"/>
    </contour>
  </outline>
</glyph>
<glyph name="less" format="1">
  <advance width="600"/>
  <unicode hex="003C"/>
  <outline>
    <contour>
      <point x="85" y="345" type="line"/>
      <point x="85" y="265" type="line"/>
      <point x="515" y="16" type="line"/>
      <point x="515" y="101" type="line"/>
      <point x="160" y="302" type="line"/>
      <point x="160" y="310" type="line"/>
      <point x="515" y="511" type="line"/>
      <point x="515" y="594" type="line"/>
    </contour>
  </outline>
</glyph>
<glyph name="equal" format="1">
  <advance width="600"/>
  <unicode hex="003D"/>
  <outline>
    <contour>
      <point x="62" y="440" type="line"/>
      <point x="62" y="372" type="line"/>
      <point x="538" y="372" type="line"/>
      <point x="538" y="440" type="line"/>
    </contour>
    <contour>
      <point x="62" y="240" type="line"/>
      <point x="62" y="172" type="line"/>
      <point x="538" y="172" type="line"/>
      <point x="538" y="240" type="line"/>
    </contour>
  </outline>
</glyph>
<glyph name="D" format="1">
  <advance width="600"/>
  <unicode hex="0044"/>
  <outline>
    <contour>
      <point x="290" y="698" type="curve"/>
      <point x="95" y="698" type="line"/>
      <point x="95" y="0" type="line"/>
      <point x="290" y="0" type="line" smooth="yes"/>
      <point x="460" y="0"/>
      <point x="544" y="120"/>
      <point x="544" y="349" type="curve"/>
      <point x="544" y="578"/>
      <point x="460" y="698"/>
    </contour>
    <contour>
      <point x="286" y="73" type="curve"/>
      <point x="179" y="73" type="line"/>
      <point x="179" y="625" type="line"/>
      <point x="286" y="625" type="line" smooth="yes"/>
      <point x="397" y="625"/>
      <point x="455" y="543"/>
      <point x="455" y="403" type="curve"/>
      <point x="455" y="295" type="line" smooth="yes"/>
      <point x="455" y="155"/>
      <point x="397" y="73"/>
    </contour>
  </outline>
</glyph>
<glyph name="E" format="1">
  <advance width="600"/>
  <unicode hex="0045"/>
  <outline>
    <contour>
      <point x="90" y="698" type="line"/>
      <point x="90" y="0" type="line"/>
      <point x="520" y="0" type="line"/>
      <point x="520" y="73" type="line"/>
      <point x="174" y="73" type="line"/>
      <point x="174" y="317" type="line"/>
      <point x="508" y="317" type="line"/>
      <point x="508" y="390" type="line"/>
      <point x="174" y="390" type="line"/>
      <point x="174" y="625" type="line"/>
      <point x="520" y="625" type="line"/>
      <point x="520" y="698" type="line"/>
    </contour>
  </outline>
</glyph>
<glyph name="F" format="1">
  <advance width="600"/>
  <unicode hex="0046"/>
  <outline>
    <contour>
      <point x="90" y="698" type="line"/>
      <point x="90" y="0" type="line"/>
      <point x="174" y="0" type="line"/>
      <point x="174" y="317" type="line"/>
      <point x="500" y="317" type="line"/>
      <point x="500" y="390" type="line"/>
      <point x="174" y="390" type="line"/>
      <point x="174" y="625" type="line"/>
      <point x="530" y="625" type="line"/>
      <point x="530" y="698" type="line"/>
    </contour>
  </outline>
</glyph>
<glyph name="I" format="1">
  <advance width="600"/>
  <unicode hex="0049"/>
  <outline>
    <contour>
      <point x="84" y="67" type="line"/>
      <point x="84" y="0" type="line"/>
      <point x="516" y="0" type="line"/>
      <point x="516" y="67" type="line"/>
      <point x="342" y="67" type="line"/>
      <point x="342" y="631" type="line"/>
      <point x="516" y="631" type="line"/>
      <point x="516" y="698" type="line"/>
      <point x="84" y="698" type="line"/>
      <point x="84" y="631" type="line"/>
      <point x="258" y="631" type="line"/>
      <point x="258" y="67" type="line"/>
    </contour>
  </outline>
</glyph>
<glyph name="L" format="1">
  <advance width="600"/>
  <unicode hex="004C"/>
  <outline>
    <contour>
      <point x="120" y="698" type="line"/>
      <point x="120" y="0" type="line"/>
      <point x="535" y="0" type="line"/>
      <point x="535" y="73" type="line"/>
      <point x="204" y="73" type="line"/>
      <point x="204" y="698" type="line"/>
    </contour>
  </outline>
</glyph>
<glyph name="M" format="1">
  <advance width="900"/>
  <unicode hex="004D"/>
  <outline>
    <contour>
      <point x="678" y="588" type="line"/>
      <point x="703" y="588" type="line"/>
      <point x="703" y="0" type="line"/>
      <point x="785" y="0" type="line"/>
      <point x="785" y="698" type="line"/>
      <point x="655" y="698" type="line"/>
      <point x="454" y="322" type="line"/>
      <point x="450" y="322" type="line"/>
      <point x="250" y="698" type="line"/>
      <point x="120" y="698" type="line"/>
      <point x="120" y="0" type="line"/>
      <point x="202" y="0" type="line"/>
      <point x="202" y="587" type="line"/>
      <point x="227" y="587" type="line"/>
      <point x="286" y="471" type="line"/>
      <point x="452" y="167" type="line"/>
      <point x="619" y="471" type="line"/>
    </contour>
  </outline>
</glyph>
<glyph name="P" format="1">
  <advance width="600"/>
  <unicode hex="0050"/>
  <outline>
    <contour>
      <point x="90" y="698" type="line"/>
      <point x="90" y="0" type="line"/>
      <point x="174" y="0" type="line"/>
      <point x="174" y="296" type="line"/>
      <point x="344" y="296" type="line" smooth="yes"/>
      <point x="473" y="296"/>
      <point x="543" y="371"/>
      <point x="543" y="497" type="curve"/>
      <point x="543" y="623"/>
      <point x="473" y="698"/>
      <point x="344" y="698" type="curve"/>
    </contour>
    <contour>
      <point x="342" y="369" type="curve"/>
      <point x="174" y="369" type="line"/>
      <point x="174" y="625" type="line"/>
      <point x="342" y="625" type="line" smooth="yes"/>
      <point x="412" y="625"/>
      <point x="454" y="588"/>
      <point x="454" y="523" type="curve"/>
      <point x="454" y="471" type="line" smooth="yes"/>
      <point x="454" y="406"/>
      <point x="412" y="369"/>
    </contour>
  </outline>
</glyph>
<glyph name="Q" format="1">
  <advance width="600"/>
  <unicode hex="0051"/>
  <outline>
    <contour>
      <point x="374" y="-164" type="curve"/>
      <point x="491" y="-164" type="line"/>
      <point x="491" y="-96" type="line"/>
      <point x="340" y="-96" type="line"/>
      <point x="340" y="-9" type="line"/>
      <point x="481" y="10"/>
      <point x="544" y="140"/>
      <point x="544" y="349" type="curve"/>
      <point x="544" y="577"/>
      <point x="470" y="710"/>
      <point x="300" y="710" type="curve"/>
      <point x="130" y="710"/>
      <point x="56" y="577"/>
      <point x="56" y="349" type="curve"/>
      <point x="56" y="140"/>
      <point x="118" y="10"/>
      <point x="260" y="-9" type="curve"/>
      <point x="260" y="-46" type="line" smooth="yes"/>
      <point x="260" y="-115"/>
      <point x="296" y="-164"/>
    </contour>
    <contour>
      <point x="300" y="61" type="curve"/>
      <point x="189" y="61"/>
      <point x="145" y="152"/>
      <point x="145" y="292" type="curve"/>
      <point x="145" y="406" type="line" smooth="yes"/>
      <point x="145" y="546"/>
      <point x="189" y="637"/>
      <point x="300" y="637" type="curve"/>
      <point x="411" y="637"/>
      <point x="455" y="546"/>
      <point x="455" y="406" type="curve"/>
      <point x="455" y="292" type="line" smooth="yes"/>
      <point x="455" y="152"/>
      <point x="411" y="61"/>
    </contour>
  </outline>
</glyph>
<glyph name="T" format="1">
  <advance width="600"/>
  <unicode hex="0054"/>
  <outline>
    <contour>
      <point x="342" y="0" type="line"/>
      <point x="342" y="625" type="line"/>
      <point x="575" y="625" type="line"/>
      <point x="575" y="698" type="line"/>
      <point x="25" y="698" type="line"/>
      <point x="25" y="625" type="line"/>
      <point x="258" y="625" type="line"/>
      <point x="258" y="0" type="line"/>
    </contour>
  </outline>
</glyph>
<glyph name="U" format="1">
  <advance width="600"/>
  <unicode hex="0055"/>
  <outline>
    <contour>
      <point x="164" y="279" type="curve"/>
      <point x="164" y="698" type="line"/>
      <point x="80" y="698" type="line"/>
      <point x="80" y="299" type="line" smooth="yes"/>
      <point x="80" y="92"/>
      <point x="110" y="-12"/>
      <point x="300" y="-12" type="curve"/>
      <point x="490" y="-12"/>
      <point x="520" y="92"/>
      <point x="520" y="299" type="curve"/>
      <point x="520" y="698" type="line"/>
      <point x="436" y="698" type="line"/>
      <point x="436" y="279" type="line" smooth="yes"/>
      <point x="436" y="144"/>
      <point x="431" y="61"/>
      <point x="300" y="61" type="curve"/>
      <point x="169" y="61"/>
      <point x="164" y="144"/>
    </contour>
  </outline>
</glyph>
<glyph name="V" format="1">
  <advance width="600"/>
  <unicode hex="0056"/>
  <outline>
    <contour>
      <point x="36" y="698" type="line"/>
      <point x="243" y="0" type="line"/>
      <point x="357" y="0" type="line"/>
      <point x="564" y="698" type="line"/>
      <point x="478" y="698" type="line"/>
      <point x="379" y="349" type="line"/>
      <point x="304" y="85" type="line"/>
      <point x="299" y="85" type="line"/>
      <point x="224" y="349" type="line"/>
      <point x="125" y="698" type="line"/>
    </contour>
  </outline>
</glyph>
<glyph name="W" format="1">
  <advance width="900"/>
  <unicode hex="0057"/>
  <outline>
    <contour>
      <point x="25" y="698" type="line"/>
      <point x="195" y="0" type="line"/>
      <point x="288" y="0" type="line"/>
      <point x="381" y="348" type="line"/>
      <point x="447" y="604" type="line"/>
      <point x="449" y="604" type="line"/>
      <point x="513" y="348" type="line"/>
      <point x="604" y="0" type="line"/>
      <point x="697" y="0" type="line"/>
      <point x="876" y="698" type="line"/>
      <point x="790" y="698" type="line"/>
      <point x="711" y="362" type="line"/>
      <point x="651" y="102" type="line"/>
      <point x="648" y="102" type="line"/>
      <point x="583" y="362" type="line"/>
      <point x="498" y="698" type="line"/>
      <point x="402" y="698" type="line"/>
      <point x="314" y="362" type="line"/>
      <point x="249" y="101" type="line"/>
      <point x="247" y="101" type="line"/>
      <point x="189" y="362" type="line"/>
      <point x="114" y="698" type="line"/>
    </contour>
  </outline>
</glyph>
<glyph name="X" format="1">
  <advance width="600"/>
  <unicode hex="0058"/>
  <outline>
    <contour>
      <point x="480" y="0" type="line"/>
      <point x="575" y="0" type="line"/>
      <point x="352" y="357" type="line"/>
      <point x="568" y="698" type="line"/>
      <point x="476" y="698" type="line"/>
      <point x="392" y="563" type="line"/>
      <point x="306" y="422" type="line"/>
      <point x="302" y="422" type="line"/>
      <point x="215" y="563" type="line"/>
      <point x="134" y="698" type="line"/>
      <point x="39" y="698" type="line"/>
      <point x="254" y="356" type="line"/>
      <point x="26" y="0" type="line"/>
      <point x="118" y="0" type="line"/>
      <point x="205" y="141" type="line"/>
      <point x="300" y="293" type="line"/>
      <point x="304" y="293" type="line"/>
      <point x="396" y="141" type="line"/>
    </contour>
  </outline>
</glyph>
<glyph name="Y" format="1">
  <advance width="600"/>
  <unicode hex="0059"/>
  <outline>
    <contour>
      <point x="258" y="274" type="line"/>
      <point x="258" y="0" type="line"/>
      <point x="342" y="0" type="line"/>
      <point x="342" y="274" type="line"/>
      <point x="583" y="698" type="line"/>
      <point x="489" y="698" type="line"/>
      <point x="389" y="516" type="line"/>
      <point x="302" y="357" type="line"/>
      <point x="298" y="357" type="line"/>
      <point x="213" y="516" type="line"/>
      <point x="113" y="698" type="line"/>
      <point x="17" y="698" type="line"/>
    </contour>
  </outline>
</glyph>
<glyph name="Z" format="1">
  <advance width="600"/>
  <unicode hex="005A"/>
  <outline>
    <contour>
      <point x="48" y="0" type="line"/>
      <point x="552" y="0" type="line"/>
      <point x="552" y="73" type="line"/>
      <point x="139" y="73" type="line"/>
      <point x="535" y="623" type="line"/>
      <point x="535" y="698" type="line"/>
      <point x="65" y="698" type="line"/>
      <point x="65" y="625" type="line"/>
      <point x="443" y="625" type="line"/>
      <point x="48" y="75" type="line"/>
    </contour>
  </outline>
</glyph>
<glyph name="backslash" format="1">
  <advance width="600"/>
  <unicode hex="005C"/>
  <outline>
    <contour>
      <point x="90" y="760" type="line"/>
      <point x="438" y="-138" type="line"/>
      <point x="510" y="-138" type="line"/>
      <point x="162" y="760" type="line"/>
    </contour>
  </outline>
</glyph>
<glyph name="bracketright" format="1">
  <advance width="600"/>
  <unicode hex="005D"/>
  <outline>
    <contour>
      <point x="375" y="-138" type="line"/>
      <point x="375" y="760" type="line"/>
      <point x="95" y="760" type="line"/>
      <point x="95" y="698" type="line"/>
      <point x="306" y="698" type="line"/>
      <point x="306" y="-76" type="line"/>
      <point x="95" y="-76" type="line"/>
      <point x="95" y="-138" type="line"/>
    </contour>
  </outline>
</glyph>
<glyph name="asciicircum" format="1">
  <advance width="600"/>
  <unicode hex="005E"/>
  <outline>
    <contour>
      <point x="300" y="629" type="line"/>
      <point x="489" y="287" type="line"/>
      <point x="555" y="318" type="line"/>
      <point x="345" y="698" type="line"/>
      <point x="255" y="698" type="line"/>
      <point x="45" y="318" type="line"/>
      <point x="107" y="287" type="line"/>
      <point x="296" y="629" type="line"/>
    </contour>
  </outline>
</glyph>
<glyph name="underscore" format="1">
  <advance width="600"/>
  <unicode hex="005F"/>
  <outline>
    <contour>
      <point x="60" y="-95" type="line"/>
      <point x="60" y="-169" type="line"/>
      <point x="540" y="-169" type="line"/>
      <point x="540" y="-95" type="line"/>
    </contour>
  </outline>
</glyph>
<glyph name="grave" format="1">
  <advance width="600"/>
  <unicode hex="0060"/>
  <outline>
    <contour>
      <point x="260" y="779" type="line"/>
      <point x="187" y="744" type="line"/>
      <point x="293" y="585" type="line"/>
      <point x="345" y="609" type="line"/>
    </contour>
  </outline>
</glyph>
<glyph name="c" format="1">
  <advance width="600"/>
  <unicode hex="0063"/>
  <outline>
    <contour>
      <point x="318" y="-12" type="curve"/>
      <point x="421" y="-12"/>
      <point x="486" y="39"/>
      <point x="516" y="108" type="curve"/>
      <point x="459" y="147" type="line"/>
      <point x="433" y="91"/>
      <point x="388" y="57"/>
      <point x="319" y="57" type="curve"/>
      <point x="222" y="57"/>
      <point x="170" y="123"/>
      <point x="170" y="214" type="curve"/>
      <point x="170" y="302" type="line" smooth="yes"/>
      <point x="170" y="393"/>
      <point x="223" y="459"/>
      <point x="317" y="459" type="curve"/>
      <point x="381" y="459"/>
      <point x="425" y="428"/>
      <point x="444" y="375" type="curve"/>
      <point x="508" y="409" type="line"/>
      <point x="479" y="479"/>
      <point x="417" y="528"/>
      <point x="317" y="528" type="curve"/>
      <point x="171" y="528"/>
      <point x="84" y="422"/>
      <point x="84" y="258" type="curve"/>
      <point x="84" y="95"/>
      <point x="170" y="-12"/>
    </contour>
  </outline>
</glyph>
<glyph name="f" format="1">
  <advance width="600"/>
  <unicode hex="0066"/>
  <outline>
    <contour>
      <point x="257" y="68" type="line"/>
      <point x="83" y="68" type="line"/>
      <point x="83" y="0" type="line"/>
      <point x="521" y="0" type="line"/>
      <point x="521" y="68" type="line"/>
      <point x="337" y="68" type="line"/>
      <point x="337" y="448" type="line"/>
      <point x="544" y="448" type="line"/>
      <point x="544" y="516" type="line"/>
      <point x="337" y="516" type="line"/>
      <point x="337" y="672" type="line"/>
      <point x="544" y="672" type="line"/>
      <point x="544" y="740" type="line"/>
      <point x="371" y="740" type="line" smooth="yes"/>
      <point x="293" y="740"/>
      <point x="257" y="691"/>
      <point x="257" y="622" type="curve"/>
      <point x="257" y="516" type="line"/>
      <point x="73" y="516" type="line"/>
      <point x="73" y="448" type="line"/>
      <point x="257" y="448" type="line"/>
    </contour>
  </outline>
</glyph>
<glyph name="i" format="1">
  <advance width="600"/>
  <unicode hex="0069"/>
  <outline>
    <contour>
      <point x="332" y="630" type="curve"/>
      <point x="378" y="630"/>
      <point x="395" y="652"/>
      <point x="395" y="681" type="curve"/>
      <point x="395" y="697" type="line" smooth="yes"/>
      <point x="395" y="726"/>
      <point x="378" y="748"/>
      <point x="332" y="748" type="curve"/>
      <point x="286" y="748"/>
      <point x="269" y="726"/>
      <point x="269" y="697" type="curve"/>
      <point x="269" y="681" type="line" smooth="yes"/>
      <point x="269" y="652"/>
      <point x="286" y="630"/>
    </contour>
    <contour>
      <point x="292" y="68" type="line"/>
      <point x="106" y="68" type="line"/>
      <point x="106" y="0" type="line"/>
      <point x="546" y="0" type="line"/>
      <point x="546" y="68" type="line"/>
      <point x="372" y="68" type="line"/>
      <point x="372" y="516" type="line"/>
      <point x="106" y="516" type="line"/>
      <point x="106" y="448" type="line"/>
      <point x="292" y="448" type="line"/>
    </contour>
  </outline>
</glyph>
<glyph name="j" format="1">
  <advance width="600"/>
  <unicode hex="006A"/>
  <outline>
    <contour>
      <point x="352" y="-132" type="line"/>
      <point x="102" y="-132" type="line"/>
      <point x="102" y="-200" type="line"/>
      <point x="318" y="-200" type="line" smooth="yes"/>
      <point x="396" y="-200"/>
      <point x="432" y="-151"/>
      <point x="432" y="-82" type="curve"/>
      <point x="432" y="516" type="line"/>
      <point x="93" y="516" type="line"/>
      <point x="93" y="448" type="line"/>
      <point x="352" y="448" type="line"/>
    </contour>
    <contour>
      <point x="392" y="630" type="curve"/>
      <point x="438" y="630"/>
      <point x="455" y="652"/>
      <point x="455" y="681" type="curve"/>
      <point x="455" y="697" type="line" smooth="yes"/>
      <point x="455" y="726"/>
      <point x="438" y="748"/>
      <point x="392" y="748" type="curve"/>
      <point x="346" y="748"/>
      <point x="329" y="726"/>
      <point x="329" y="697" type="curve"/>
      <point x="329" y="681" type="line" smooth="yes"/>
      <point x="329" y="652"/>
      <point x="346" y="630"/>
    </contour>
  </outline>
</glyph>
<glyph name="k" format="1">
  <advance width="600"/>
  <unicode hex="006B"/>
  <outline>
    <contour>
      <point x="185" y="740" type="line"/>
      <point x="105" y="740" type="line"/>
      <point x="105" y="0" type="line"/>
      <point x="185" y="0" type="line"/>
      <point x="185" y="187" type="line"/>
      <point x="274" y="268" type="line"/>
      <point x="475" y="0" type="line"/>
      <point x="574" y="0" type="line"/>
      <point x="335" y="314" type="line"/>
      <point x="549" y="516" type="line"/>
      <point x="451" y="516" type="line"/>
      <point x="279" y="358" type="line"/>
      <point x="189" y="273" type="line"/>
      <point x="185" y="273" type="line"/>
    </contour>
  </outline>
</glyph>
<glyph name="m" format="1">
  <advance width="900"/>
  <unicode hex="006D"/>
  <outline>
    <contour>
      <point x="96" y="516" type="line"/>
      <point x="96" y="0" type="line"/>
      <point x="176" y="0" type="line"/>
      <point x="176" y="358" type="line" smooth="yes"/>
      <point x="176" y="424"/>
      <point x="236" y="456"/>
      <point x="299" y="456" type="curve"/>
      <point x="375" y="456"/>
      <point x="410" y="409"/>
      <point x="410" y="317" type="curve"/>
      <point x="410" y="0" type="line"/>
      <point x="490" y="0" type="line"/>
      <point x="490" y="358" type="line" smooth="yes"/>
      <point x="490" y="424"/>
      <point x="548" y="456"/>
      <point x="611" y="456" type="curve"/>
      <point x="689" y="456"/>
      <point x="724" y="408"/>
      <point x="724" y="317" type="curve"/>
      <point x="724" y="0" type="line"/>
      <point x="804" y="0" type="line"/>
      <point x="804" y="331" type="line" smooth="yes"/>
      <point x="804" y="456"/>
      <point x="741" y="528"/>
      <point x="636" y="528" type="curve"/>
      <point x="548" y="528"/>
      <point x="498" y="479"/>
      <point x="479" y="423" type="curve"/>
      <point x="477" y="423" type="line"/>
      <point x="449" y="497"/>
      <point x="387" y="528"/>
      <point x="319" y="528" type="curve"/>
      <point x="239" y="528"/>
      <point x="203" y="485"/>
      <point x="180" y="432" type="curve"/>
      <point x="176" y="432" type="line"/>
      <point x="176" y="516" type="line"/>
    </contour>
  </outline>
</glyph>
<glyph name="r" format="1">
  <advance width="600"/>
  <unicode hex="0072"/>
  <outline>
    <contour>
      <point x="228" y="68" type="line"/>
      <point x="77" y="68" type="line"/>
      <point x="77" y="0" type="line"/>
      <point x="508" y="0" type="line"/>
      <point x="508" y="68" type="line"/>
      <point x="308" y="68" type="line"/>
      <point x="308" y="351" type="line" smooth="yes"/>
      <point x="308" y="400"/>
      <point x="362" y="436"/>
      <point x="452" y="436" type="curve"/>
      <point x="559" y="436" type="line"/>
      <point x="559" y="516" type="line"/>
      <point x="468" y="516" type="line" smooth="yes"/>
      <point x="382" y="516"/>
      <point x="333" y="473"/>
      <point x="313" y="424" type="curve"/>
      <point x="308" y="424" type="line"/>
      <point x="308" y="516" type="line"/>
      <point x="77" y="516" type="line"/>
      <point x="77" y="448" type="line"/>
      <point x="228" y="448" type="line"/>
    </contour>
  </outline>
</glyph>
<glyph name="v" format="1">
  <advance width="600"/>
  <unicode hex="0076"/>
  <outline>
    <contour>
      <point x="64" y="516" type="line"/>
      <point x="249" y="0" type="line"/>
      <point x="351" y="0" type="line"/>
      <point x="536" y="516" type="line"/>
      <point x="457" y="516" type="line"/>
      <point x="383" y="300" type="line"/>
      <point x="303" y="67" type="line"/>
      <point x="299" y="67" type="line"/>
      <point x="219" y="300" type="line"/>
      <point x="145" y="516" type="line"/>
    </contour>
  </outline>
</glyph>
<glyph name="w" format="1">
  <advance width="900"/>
  <unicode hex="0077"/>
  <outline>
    <contour>
      <point x="155" y="516" type="line"/>
      <point x="77" y="516" type="line"/>
      <point x="225" y="0" type="line"/>
      <point x="322" y="0" type="line"/>
      <point x="448" y="405" type="line"/>
      <point x="450" y="405" type="line"/>
      <point x="577" y="0" type="line"/>
      <point x="676" y="0" type="line"/>
      <point x="823" y="516" type="line"/>
      <point x="748" y="516" type="line"/>
      <point x="629" y="67" type="line"/>
      <point x="627" y="67" type="line"/>
      <point x="486" y="516" type="line"/>
      <point x="415" y="516" type="line"/>
      <point x="277" y="67" type="line"/>
      <point x="275" y="67" type="line"/>
    </contour>
  </outline>
</glyph>
<glyph name="x" format="1">
  <advance width="600"/>
  <unicode hex="0078"/>
  <outline>
    <contour>
      <point x="253" y="262" type="line"/>
      <point x="61" y="0" type="line"/>
      <point x="153" y="0" type="line"/>
      <point x="237" y="121" type="line"/>
      <point x="294" y="203" type="line"/>
      <point x="298" y="203" type="line"/>
      <point x="357" y="121" type="line"/>
      <point x="444" y="0" type="line"/>
      <point x="540" y="0" type="line"/>
      <point x="346" y="263" type="line"/>
      <point x="535" y="516" type="line"/>
      <point x="443" y="516" type="line"/>
      <point x="366" y="407" type="line"/>
      <point x="306" y="321" type="line"/>
      <point x="302" y="321" type="line"/>
      <point x="240" y="407" type="line"/>
      <point x="162" y="516" type="line"/>
      <point x="66" y="516" type="line"/>
    </contour>
  </outline>
</glyph>
<glyph name="z" format="1">
  <advance width="600"/>
  <unicode hex="007A"/>
  <outline>
    <contour>
      <point x="85" y="77" type="line"/>
      <point x="85" y="0" type="line"/>
      <point x="515" y="0" type="line"/>
      <point x="515" y="68" type="line"/>
      <point x="172" y="68" type="line"/>
      <point x="505" y="439" type="line"/>
      <point x="505" y="516" type="line"/>
      <point x="96" y="516" type="line"/>
      <point x="96" y="448" type="line"/>
      <point x="418" y="448" type="line"/>
    </contour>
  </outline>
</glyph>
<glyph name="bar" format="1">
  <advance width="600"/>
  <unicode hex="007C"/>
  <outline>
    <contour>
      <point x="265" y="760" type="line"/>
      <point x="265" y="-138" type="line"/>
      <point x="335" y="-138" type="line"/>
      <point x="335" y="760" type="line"/>
    </contour>
  </outline>
</glyph>
<glyph name="asciitilde" format="1">
  <advance width="600"/>
  <unicode hex="007E"/>
  <outline>
    <contour>
      <point x="421" y="236" type="curve"/>
      <point x="483" y="236"/>
      <point x="516" y="259"/>
      <point x="544" y="291" type="curve"/>
      <point x="510" y="335" type="line"/>
      <point x="480" y="313"/>
      <point x="459" y="303"/>
      <point x="426" y="303" type="curve"/>
      <point x="384" y="303"/>
      <point x="348" y="319"/>
      <point x="310" y="337" type="curve"/>
      <point x="263" y="359"/>
      <point x="228" y="374"/>
      <point x="179" y="374" type="curve"/>
      <point x="117" y="374"/>
      <point x="84" y="351"/>
      <point x="56" y="319" type="curve"/>
      <point x="90" y="275" type="line"/>
      <point x="120" y="297"/>
      <point x="141" y="307"/>
      <point x="174" y="307" type="curve"/>
      <point x="216" y="307"/>
      <point x="252" y="291"/>
      <point x="290" y="273" type="curve"/>
      <point x="337" y="251"/>
      <point x="372" y="236"/>
    </contour>
  </outline>
</glyph>
<glyph name="exclamdown" format="1">
  <advance width="600"/>
  <unicode hex="00A1"/>
  <outline>
    <contour>
      <point x="256" y="21" type="line"/>
      <point x="256" y="-182" type="line"/>
      <point x="344" y="-182" type="line"/>
      <point x="344" y="21" type="line"/>
      <point x="316" y="283" type="line"/>
      <point x="284" y="283" type="line"/>
    </contour>
    <contour>
      <point x="300" y="387" type="curve"/>
      <point x="354" y="387"/>
      <point x="374" y="413"/>
      <point x="374" y="447" type="curve"/>
      <point x="374" y="465" type="line" smooth="yes"/>
      <point x="374" y="499"/>
      <point x="354" y="525"/>
      <point x="300" y="525" type="curve"/>
      <point x="246" y="525"/>
      <point x="226" y="499"/>
      <point x="226" y="465" type="curve"/>
      <point x="226" y="447" type="line" smooth="yes"/>
      <point x="226" y="413"/>
      <point x="246" y="387"/>
    </contour>
  </outline>
</glyph>
<glyph name="brokenbar" format="1">
  <advance width="600"/>
  <unicode hex="00A6"/>
  <outline>
    <contour>
      <point x="265" y="760" type="line"/>
      <point x="265" y="401" type="line"/>
      <point x="335" y="401" type="line"/>
      <point x="335" y="760" type="line"/>
    </contour>
    <contour>
      <point x="265" y="221" type="line"/>
      <point x="265" y="-138" type="line"/>
      <point x="335" y="-138" type="line"/>
      <point x="335" y="221" type="line"/>
    </contour>
  </outline>
</glyph>
<glyph name="copyright" format="1">
  <advance width="900"/>
  <unicode hex="00A9"/>
  <outline>
    <contour>
      <point x="450" y="-11" type="curve"/>
      <point x="637" y="-11"/>
      <point x="784" y="127"/>
      <point x="784" y="349" type="curve"/>
      <point x="784" y="571"/>
      <point x="637" y="709"/>
      <point x="450" y="709" type="curve"/>
      <point x="263" y="709"/>
      <point x="116" y="571"/>
      <point x="116" y="349" type="curve"/>
      <point x="116" y="127"/>
      <point x="263" y="-11"/>
    </contour>
    <contour>
      <point x="450" y="49" type="curve"/>
      <point x="294" y="49"/>
      <point x="184" y="164"/>
      <point x="184" y="319" type="curve"/>
      <point x="184" y="379" type="line" smooth="yes"/>
      <point x="184" y="534"/>
      <point x="294" y="649"/>
      <point x="450" y="649" type="curve"/>
      <point x="606" y="649"/>
      <point x="716" y="534"/>
      <point x="716" y="379" type="curve"/>
      <point x="716" y="319" type="line" smooth="yes"/>
      <point x="716" y="164"/>
      <point x="606" y="49"/>
    </contour>
    <contour>
      <point x="458" y="155" type="curve"/>
      <point x="528" y="155"/>
      <point x="574" y="192"/>
      <point x="597" y="243" type="curve"/>
      <point x="543" y="277" type="line"/>
      <point x="523" y="241"/>
      <point x="500" y="217"/>
      <point x="458" y="217" type="curve"/>
      <point x="400" y="217"/>
      <point x="369" y="258"/>
      <point x="369" y="316" type="curve"/>
      <point x="369" y="381" type="line" smooth="yes"/>
      <point x="369" y="439"/>
      <point x="400" y="480"/>
      <point x="458" y="480" type="curve"/>
      <point x="497" y="480"/>
      <point x="519" y="459"/>
      <point x="534" y="424" type="curve"/>
      <point x="591" y="456" type="line"/>
      <point x="568" y="508"/>
      <point x="525" y="543"/>
      <point x="458" y="543" type="curve"/>
      <point x="354" y="543"/>
      <point x="293" y="467"/>
      <point x="293" y="349" type="curve"/>
      <point x="293" y="231"/>
      <point x="354" y="155"/>
    </contour>
  </outline>
</glyph>
<glyph name="guillemotleft" format="1">
  <advance width="600"/>
  <unicode hex="00AB"/>
  <outline>
    <contour>
      <point x="303" y="230" type="line"/>
      <point x="509" y="56" type="line"/>
      <point x="534" y="113" type="line"/>
      <point x="386" y="270" type="line"/>
      <point x="534" y="427" type="line"/>
      <point x="509" y="484" type="line"/>
      <point x="303" y="310" type="line"/>
    </contour>
    <contour>
      <point x="73" y="230" type="line"/>
      <point x="279" y="56" type="line"/>
      <point x="304" y="113" type="line"/>
      <point x="156" y="270" type="line"/>
      <point x="304" y="427" type="line"/>
      <point x="279" y="484" type="line"/>
      <point x="73" y="310" type="line"/>
    </contour>
  </outline>
</glyph>
<glyph name="uni00AD" format="1">
  <advance width="600"/>
  <unicode hex="00AD"/>
  <outline>
    <contour>
      <point x="155" y="346" type="line"/>
      <point x="155" y="262" type="line"/>
      <point x="445" y="262" type="line"/>
      <point x="445" y="346" type="line"/>
    </contour>
  </outline>
</glyph>
<glyph name="macron" format="1">
  <advance width="600"/>
  <unicode hex="00AF"/>
  <outline>
    <contour>
      <point x="440" y="705" type="line"/>
      <point x="160" y="705" type="line"/>
      <point x="160" y="637" type="line"/>
      <point x="440" y="637" type="line"/>
    </contour>
  </outline>
</glyph>
<glyph name="degree" format="1">
  <advance width="600"/>
  <unicode hex="00B0"/>
  <outline>
    <contour>
      <point x="300" y="368" type="curve"/>
      <point x="396" y="368"/>
      <point x="471" y="442"/>
      <point x="471" y="539" type="curve"/>
      <point x="471" y="636"/>
      <point x="396" y="710"/>
      <point x="300" y="710" type="curve"/>
      <point x="204" y="710"/>
      <point x="129" y="636"/>
      <point x="129" y="539" type="curve"/>
      <point x="129" y="442"/>
      <point x="204" y="368"/>
    </contour>
    <contour>
      <point x="300" y="432" type="curve"/>
      <point x="239" y="432"/>
      <point x="199" y="479"/>
      <point x="199" y="539" type="curve"/>
      <point x="199" y="599"/>
      <point x="239" y="646"/>
      <point x="300" y="646" type="curve"/>
      <point x="361" y="646"/>
      <point x="401" y="599"/>
      <point x="401" y="539" type="curve"/>
      <point x="401" y="479"/>
      <point x="361" y="432"/>
    </contour>
  </outline>
</glyph>
<glyph name="acute" format="1">
  <advance width="600"/>
  <unicode hex="00B4"/>
  <outline>
    <contour>
      <point x="255" y="609" type="line"/>
      <point x="307" y="585" type="line"/>
      <point x="413" y="744" type="line"/>
      <point x="340" y="779" type="line"/>
    </contour>
  </outline>
</glyph>
<glyph name="paragraph" format="1">
  <advance width="600"/>
  <unicode hex="00B6"/>
  <outline>
    <contour>
      <point x="270" y="246" type="curve"/>
      <point x="270" y="-149" type="line"/>
      <point x="342" y="-149" type="line"/>
      <point x="342" y="634" type="line"/>
      <point x="432" y="634" type="line"/>
      <point x="432" y="-149" type="line"/>
      <point x="504" y="-149" type="line"/>
      <point x="504" y="698" type="line"/>
      <point x="270" y="698" type="line" smooth="yes"/>
      <point x="146" y="698"/>
      <point x="45" y="603"/>
      <point x="45" y="472" type="curve"/>
      <point x="45" y="341"/>
      <point x="146" y="246"/>
    </contour>
  </outline>
</glyph>
<glyph name="uni00B9" format="1">
  <advance width="600"/>
  <unicode hex="00B9"/>
  <outline>
    <contour>
      <point x="176" y="379" type="line"/>
      <point x="176" y="329" type="line"/>
      <point x="446" y="329" type="line"/>
      <point x="446" y="379" type="line"/>
      <point x="348" y="379" type="line"/>
      <point x="348" y="698" type="line"/>
      <point x="280" y="698" type="line"/>
      <point x="154" y="633" type="line"/>
      <point x="179" y="589" type="line"/>
      <point x="285" y="644" type="line"/>
      <point x="285" y="379" type="line"/>
    </contour>
  </outline>
</glyph>
<glyph name="guillemotright" format="1">
  <advance width="600"/>
  <unicode hex="00BB"/>
  <outline>
    <contour>
      <point x="444" y="270" type="line"/>
      <point x="296" y="113" type="line"/>
      <point x="321" y="56" type="line"/>
      <point x="527" y="230" type="line"/>
      <point x="527" y="310" type="line"/>
      <point x="321" y="484" type="line"/>
      <point x="296" y="427" type="line"/>
    </contour>
    <contour>
      <point x="214" y="270" type="line"/>
      <point x="66" y="113" type="line"/>
      <point x="91" y="56" type="line"/>
      <point x="297" y="230" type="line"/>
      <point x="297" y="310" type="line"/>
      <point x="91" y="484" type="line"/>
      <point x="66" y="427" type="line"/>
    </contour>
  </outline>
</glyph>
<glyph name="onequarter" format="1">
  <advance width="600"/>
  <unicode hex="00BC"/>
  <outline>
    <contour>
      <point x="314" y="64" type="line"/>
      <point x="477" y="64" type="line"/>
      <point x="477" y="0" type="line"/>
      <point x="538" y="0" type="line"/>
      <point x="538" y="64" type="line"/>
      <point x="585" y="64" type="line"/>
      <point x="585" y="112" type="line"/>
      <point x="538" y="112" type="line"/>
      <point x="538" y="335" type="line"/>
      <point x="456" y="335" type="line"/>
      <point x="314" y="123" type="line"/>
    </contour>
    <contour>
      <point x="477" y="282" type="line"/>
      <point x="477" y="112" type="line"/>
      <point x="360" y="112" type="line"/>
      <point x="474" y="282" type="line"/>
    </contour>
    <contour>
      <point x="133" y="413" type="line"/>
      <point x="39" y="413" type="line"/>
      <point x="39" y="363" type="line"/>
      <point x="279" y="363" type="line"/>
      <point x="279" y="413" type="line"/>
      <point x="196" y="413" type="line"/>
      <point x="196" y="698" type="line"/>
      <point x="128" y="698" type="line"/>
      <point x="20" y="642" type="line"/>
      <point x="44" y="598" type="line"/>
      <point x="133" y="643" type="line"/>
    </contour>
    <contour>
      <point x="582" y="698" type="line"/>
      <point x="510" y="698" type="line"/>
      <point x="350" y="398" type="line"/>
      <point x="422" y="398" type="line"/>
    </contour>
    <contour>
      <point x="250" y="300" type="line"/>
      <point x="178" y="300" type="line"/>
      <point x="18" y="0" type="line"/>
      <point x="90" y="0" type="line"/>
    </contour>
  </outline>
</glyph>
<glyph name="onehalf" format="1">
  <advance width="600"/>
  <unicode hex="00BD"/>
  <outline>
    <contour>
      <point x="442" y="148" type="curve"/>
      <point x="329" y="58" type="line"/>
      <point x="329" y="0" type="line"/>
      <point x="575" y="0" type="line"/>
      <point x="575" y="50" type="line"/>
      <point x="395" y="50" type="line"/>
      <point x="472" y="109" type="line" smooth="yes"/>
      <point x="521" y="147"/>
      <point x="562" y="189"/>
      <point x="562" y="244" type="curve"/>
      <point x="562" y="297"/>
      <point x="523" y="341"/>
      <point x="448" y="341" type="curve"/>
      <point x="377" y="341"/>
      <point x="338" y="302"/>
      <point x="323" y="256" type="curve"/>
      <point x="376" y="234" type="line"/>
      <point x="389" y="268"/>
      <point x="408" y="289"/>
      <point x="443" y="289" type="curve"/>
      <point x="477" y="289"/>
      <point x="496" y="268"/>
      <point x="496" y="243" type="curve"/>
      <point x="496" y="238" type="line" smooth="yes"/>
      <point x="496" y="207"/>
      <point x="478" y="177"/>
    </contour>
    <contour>
      <point x="133" y="413" type="line"/>
      <point x="39" y="413" type="line"/>
      <point x="39" y="363" type="line"/>
      <point x="279" y="363" type="line"/>
      <point x="279" y="413" type="line"/>
      <point x="196" y="413" type="line"/>
      <point x="196" y="698" type="line"/>
      <point x="128" y="698" type="line"/>
      <point x="20" y="642" type="line"/>
      <point x="44" y="598" type="line"/>
      <point x="133" y="643" type="line"/>
    </contour>
    <contour>
      <point x="582" y="698" type="line"/>
      <point x="510" y="698" type="line"/>
      <point x="350" y="398" type="line"/>
      <point x="422" y="398" type="line"/>
    </contour>
    <contour>
      <point x="250" y="300" type="line"/>
      <point x="178" y="300" type="line"/>
      <point x="18" y="0" type="line"/>
      <point x="90" y="0" type="line"/>
    </contour>
  </outline>
</glyph>
<glyph name="Agrave" format="1">
  <advance width="600"/>
  <unicode hex="00C0"/>
  <outline>
    <contour>
      <point x="260" y="949" type="line"/>
      <point x="187" y="914" type="line"/>
      <point x="293" y="755" type="line"/>
      <point x="345" y="779" type="line"/>
    </contour>
    <contour>
      <point x="422" y="199" type="line"/>
      <point x="481" y="0" type="line"/>
      <point x="570" y="0" type="line"/>
      <point x="356" y="698" type="line"/>
      <point x="245" y="698" type="line"/>
      <point x="31" y="0" type="line"/>
      <point x="118" y="0" type="line"/>
      <point x="177" y="199" type="line"/>
    </contour>
    <contour>
      <point x="295" y="609" type="line"/>
      <point x="304" y="609" type="line"/>
      <point x="402" y="272" type="line"/>
      <point x="197" y="272" type="line"/>
    </contour>
  </outline>
</glyph>
<glyph name="Aacute" format="1">
  <advance width="600"/>
  <unicode hex="00C1"/>
  <outline>
    <contour>
      <point x="255" y="779" type="line"/>
      <point x="307" y="755" type="line"/>
      <point x="413" y="914" type="line"/>
      <point x="340" y="949" type="line"/>
    </contour>
    <contour>
      <point x="422" y="199" type="line"/>
      <point x="481" y="0" type="line"/>
      <point x="570" y="0" type="line"/>
      <point x="356" y="698" type="line"/>
      <point x="245" y="698" type="line"/>
      <point x="31" y="0" type="line"/>
      <point x="118" y="0" type="line"/>
      <point x="177" y="199" type="line"/>
    </contour>
    <contour>
      <point x="295" y="609" type="line"/>
      <point x="304" y="609" type="line"/>
      <point x="402" y="272" type="line"/>
      <point x="197" y="272" type="line"/>
    </contour>
  </outline>
</glyph>
<glyph name="Acircumflex" format="1">
  <advance width="600"/>
  <unicode hex="00C2"/>
  <outline>
    <contour>
      <point x="461" y="792" type="line"/>
      <point x="350" y="935" type="line"/>
      <point x="250" y="935" type="line"/>
      <point x="139" y="792" type="line"/>
      <point x="182" y="761" type="line"/>
      <point x="299" y="878" type="line"/>
      <point x="416" y="761" type="line"/>
    </contour>
    <contour>
      <point x="422" y="199" type="line"/>
      <point x="481" y="0" type="line"/>
      <point x="570" y="0" type="line"/>
      <point x="356" y="698" type="line"/>
      <point x="245" y="698" type="line"/>
      <point x="31" y="0" type="line"/>
      <point x="118" y="0" type="line"/>
      <point x="177" y="199" type="line"/>
    </contour>
    <contour>
      <point x="295" y="609" type="line"/>
      <point x="304" y="609" type="line"/>
      <point x="402" y="272" type="line"/>
      <point x="197" y="272" type="line"/>
    </contour>
  </outline>
</glyph>
<glyph name="Adieresis" format="1">
  <advance width="600"/>
  <unicode hex="00C4"/>
  <outline>
    <contour>
      <point x="207" y="788" type="curve"/>
      <point x="248" y="788"/>
      <point x="264" y="808"/>
      <point x="264" y="834" type="curve"/>
      <point x="264" y="848" type="line" smooth="yes"/>
      <point x="264" y="874"/>
      <point x="248" y="894"/>
      <point x="207" y="894" type="curve"/>
      <point x="166" y="894"/>
      <point x="150" y="874"/>
      <point x="150" y="848" type="curve"/>
      <point x="150" y="834" type="line" smooth="yes"/>
      <point x="150" y="808"/>
      <point x="166" y="788"/>
    </contour>
    <contour>
      <point x="393" y="788" type="curve"/>
      <point x="434" y="788"/>
      <point x="450" y="808"/>
      <point x="450" y="834" type="curve"/>
      <point x="450" y="848" type="line" smooth="yes"/>
      <point x="450" y="874"/>
      <point x="434" y="894"/>
      <point x="393" y="894" type="curve"/>
      <point x="352" y="894"/>
      <point x="336" y="874"/>
      <point x="336" y="848" type="curve"/>
      <point x="336" y="834" type="line" smooth="yes"/>
      <point x="336" y="808"/>
      <point x="352" y="788"/>
    </contour>
    <contour>
      <point x="422" y="199" type="line"/>
      <point x="481" y="0" type="line"/>
      <point x="570" y="0" type="line"/>
      <point x="356" y="698" type="line"/>
      <point x="245" y="698" type="line"/>
      <point x="31" y="0" type="line"/>
      <point x="118" y="0" type="line"/>
      <point x="177" y="199" type="line"/>
    </contour>
    <contour>
      <point x="295" y="609" type="line"/>
      <point x="304" y="609" type="line"/>
      <point x="402" y="272" type="line"/>
      <point x="197" y="272" type="line"/>
    </contour>
  </outline>
</glyph>
<glyph name="Aring" format="1">
  <advance width="600"/>
  <unicode hex="00C5"/>
  <outline>
    <contour>
      <point x="300" y="746" type="curve"/>
      <point x="365" y="746"/>
      <point x="416" y="795"/>
      <point x="416" y="861" type="curve"/>
      <point x="416" y="927"/>
      <point x="365" y="976"/>
      <point x="300" y="976" type="curve"/>
      <point x="235" y="976"/>
      <point x="184" y="927"/>
      <point x="184" y="861" type="curve"/>
      <point x="184" y="795"/>
      <point x="235" y="746"/>
    </contour>
    <contour>
      <point x="300" y="795" type="curve"/>
      <point x="264" y="795"/>
      <point x="242" y="815"/>
      <point x="242" y="850" type="curve"/>
      <point x="242" y="872" type="line" smooth="yes"/>
      <point x="242" y="907"/>
      <point x="264" y="927"/>
      <point x="300" y="927" type="curve"/>
      <point x="336" y="927"/>
      <point x="358" y="907"/>
      <point x="358" y="872" type="curve"/>
      <point x="358" y="850" type="line" smooth="yes"/>
      <point x="358" y="815"/>
      <point x="336" y="795"/>
    </contour>
    <contour>
      <point x="422" y="199" type="line"/>
      <point x="481" y="0" type="line"/>
      <point x="570" y="0" type="line"/>
      <point x="356" y="698" type="line"/>
      <point x="245" y="698" type="line"/>
      <point x="31" y="0" type="line"/>
      <point x="118" y="0" type="line"/>
      <point x="177" y="199" type="line"/>
    </contour>
    <contour>
      <point x="295" y="609" type="line"/>
      <point x="304" y="609" type="line"/>
      <point x="402" y="272" type="line"/>
      <point x="197" y="272" type="line"/>
    </contour>
  </outline>
</glyph>
<glyph name="Iacute" format="1">
  <advance width="600"/>
  <unicode hex="00CD"/>
  <outline>
    <contour>
      <point x="255" y="779" type="line"/>
      <point x="307" y="755" type="line"/>
      <point x="413" y="914" type="line"/>
      <point x="340" y="949" type="line"/>
    </contour>
    <contour>
      <point x="84" y="67" type="line"/>
      <point x="84" y="0" type="line"/>
      <point x="516" y="0" type="line"/>
      <point x="516" y="67" type="line"/>
      <point x="342" y="67" type="line"/>
      <point x="342" y="631" type="line"/>
      <point x="516" y="631" type="line"/>
      <point x="516" y="698" type="line"/>
      <point x="84" y="698" type="line"/>
      <point x="84" y="631" type="line"/>
      <point x="258" y="631" type="line"/>
      <point x="258" y="67" type="line"/>
    </contour>
  </outline>
</glyph>
<glyph name="Icircumflex" format="1">
  <advance width="600"/>
  <unicode hex="00CE"/>
  <outline>
    <contour>
      <point x="461" y="792" type="line"/>
      <point x="350" y="935" type="line"/>
      <point x="250" y="935" type="line"/>
      <point x="139" y="792" type="line"/>
      <point x="182" y="761" type="line"/>
      <point x="299" y="878" type="line"/>
      <point x="416" y="761" type="line"/>
    </contour>
    <contour>
      <point x="84" y="67" type="line"/>
      <point x="84" y="0" type="line"/>
      <point x="516" y="0" type="line"/>
      <point x="516" y="67" type="line"/>
      <point x="342" y="67" type="line"/>
      <point x="342" y="631" type="line"/>
      <point x="516" y="631" type="line"/>
      <point x="516" y="698" type="line"/>
      <point x="84" y="698" type="line"/>
      <point x="84" y="631" type="line"/>
      <point x="258" y="631" type="line"/>
      <point x="258" y="67" type="line"/>
    </contour>
  </outline>
</glyph>
<glyph name="Otilde" format="1">
  <advance width="600"/>
  <unicode hex="00D5"/>
  <outline>
    <contour>
      <point x="373" y="782" type="curve"/>
      <point x="419" y="782"/>
      <point x="450" y="808"/>
      <point x="468" y="835" type="curve"/>
      <point x="435" y="875" type="line"/>
      <point x="415" y="858"/>
      <point x="399" y="848"/>
      <point x="377" y="848" type="curve"/>
      <point x="360" y="848"/>
      <point x="339" y="855"/>
      <point x="307" y="872" type="curve"/>
      <point x="286" y="883"/>
      <point x="262" y="898"/>
      <point x="227" y="898" type="curve"/>
      <point x="181" y="898"/>
      <point x="150" y="872"/>
      <point x="132" y="845" type="curve"/>
      <point x="165" y="805" type="line"/>
      <point x="185" y="822"/>
      <point x="201" y="832"/>
      <point x="223" y="832" type="curve"/>
      <point x="240" y="832"/>
      <point x="261" y="825"/>
      <point x="293" y="808" type="curve"/>
      <point x="314" y="797"/>
      <point x="338" y="782"/>
    </contour>
    <contour>
      <point x="300" y="-12" type="curve"/>
      <point x="470" y="-12"/>
      <point x="544" y="121"/>
      <point x="544" y="349" type="curve"/>
      <point x="544" y="577"/>
      <point x="470" y="710"/>
      <point x="300" y="710" type="curve"/>
      <point x="130" y="710"/>
      <point x="56" y="577"/>
      <point x="56" y="349" type="curve"/>
      <point x="56" y="121"/>
      <point x="130" y="-12"/>
    </contour>
    <contour>
      <point x="300" y="61" type="curve"/>
      <point x="189" y="61"/>
      <point x="145" y="152"/>
      <point x="145" y="292" type="curve"/>
      <point x="145" y="406" type="line" smooth="yes"/>
      <point x="145" y="546"/>
      <point x="189" y="637"/>
      <point x="300" y="637" type="curve"/>
      <point x="411" y="637"/>
      <point x="455" y="546"/>
      <point x="455" y="406" type="curve"/>
      <point x="455" y="292" type="line" smooth="yes"/>
      <point x="455" y="152"/>
      <point x="411" y="61"/>
    </contour>
  </outline>
</glyph>
<glyph name="Udieresis" format="1">
  <advance width="600"/>
  <unicode hex="00DC"/>
  <outline>
    <contour>
      <point x="207" y="788" type="curve"/>
      <point x="248" y="788"/>
      <point x="264" y="808"/>
      <point x="264" y="834" type="curve"/>
      <point x="264" y="848" type="line" smooth="yes"/>
      <point x="264" y="874"/>
      <point x="248" y="894"/>
      <point x="207" y="894" type="curve"/>
      <point x="166" y="894"/>
      <point x="150" y="874"/>
      <point x="150" y="848" type="curve"/>
      <point x="150" y="834" type="line" smooth="yes"/>
      <point x="150" y="808"/>
      <point x="166" y="788"/>
    </contour>
    <contour>
      <point x="393" y="788" type="curve"/>
      <point x="434" y="788"/>
      <point x="450" y="808"/>
      <point x="450" y="834" type="curve"/>
      <point x="450" y="848" type="line" smooth="yes"/>
      <point x="450" y="874"/>
      <point x="434" y="894"/>
      <point x="393" y="894" type="curve"/>
      <point x="352" y="894"/>
      <point x="336" y="874"/>
      <point x="336" y="848" type="curve"/>
      <point x="336" y="834" type="line" smooth="yes"/>
      <point x="336" y="808"/>
      <point x="352" y="788"/>
    </contour>
    <contour>
      <point x="164" y="279" type="curve"/>
      <point x="164" y="698" type="line"/>
      <point x="80" y="698" type="line"/>
      <point x="80" y="299" type="line" smooth="yes"/>
      <point x="80" y="92"/>
      <point x="110" y="-12"/>
      <point x="300" y="-12" type="curve"/>
      <point x="490" y="-12"/>
      <point x="520" y="92"/>
      <point x="520" y="299" type="curve"/>
      <point x="520" y="698" type="line"/>
      <point x="436" y="698" type="line"/>
      <point x="436" y="279" type="line" smooth="yes"/>
      <point x="436" y="144"/>
      <point x="431" y="61"/>
      <point x="300" y="61" type="curve"/>
      <point x="169" y="61"/>
      <point x="164" y="144"/>
    </contour>
  </outline>
</glyph>
<glyph name="germandbls" format="1">
  <advance width="600"/>
  <unicode hex="00DF"/>
  <outline>
    <contour>
      <point x="28" y="448" type="line"/>
      <point x="102" y="448" type="line"/>
      <point x="102" y="0" type="line"/>
      <point x="181" y="0" type="line"/>
      <point x="181" y="528" type="line" smooth="yes"/>
      <point x="181" y="633"/>
      <point x="221" y="685"/>
      <point x="305" y="685" type="curve"/>
      <point x="388" y="685"/>
      <point x="426" y="635"/>
      <point x="426" y="528" type="curve"/>
      <point x="426" y="520" type="line"/>
      <point x="323" y="518"/>
      <point x="258" y="467"/>
      <point x="258" y="374" type="curve"/>
      <point x="258" y="276"/>
      <point x="329" y="253"/>
      <point x="404" y="229" type="curve"/>
      <point x="429" y="221" type="line" smooth="yes"/>
      <point x="483" y="204"/>
      <point x="497" y="169"/>
      <point x="497" y="132" type="curve"/>
      <point x="497" y="76"/>
      <point x="465" y="52"/>
      <point x="405" y="52" type="curve"/>
      <point x="356" y="52"/>
      <point x="316" y="68"/>
      <point x="285" y="110" type="curve"/>
      <point x="234" y="64" type="line"/>
      <point x="276" y="11"/>
      <point x="327" y="-12"/>
      <point x="400" y="-12" type="curve"/>
      <point x="507" y="-12"/>
      <point x="572" y="38"/>
      <point x="572" y="140" type="curve"/>
      <point x="572" y="224"/>
      <point x="528" y="260"/>
      <point x="434" y="291" type="curve"/>
      <point x="410" y="299" type="line" smooth="yes"/>
      <point x="362" y="315"/>
      <point x="333" y="329"/>
      <point x="333" y="377" type="curve"/>
      <point x="333" y="437"/>
      <point x="377" y="460"/>
      <point x="457" y="460" type="curve"/>
      <point x="504" y="460" type="line"/>
      <point x="504" y="521" type="line" smooth="yes"/>
      <point x="504" y="661"/>
      <point x="434" y="752"/>
      <point x="306" y="752" type="curve"/>
      <point x="177" y="752"/>
      <point x="102" y="661"/>
      <point x="102" y="521" type="curve"/>
      <point x="102" y="516" type="line"/>
      <point x="28" y="516" type="line"/>
    </contour>
  </outline>
</glyph>
<glyph name="edieresis" format="1">
  <advance width="600"/>
  <unicode hex="00EB"/>
  <outline>
    <contour>
      <point x="209" y="618" type="curve"/>
      <point x="250" y="618"/>
      <point x="266" y="638"/>
      <point x="266" y="664" type="curve"/>
      <point x="266" y="678" type="line" smooth="yes"/>
      <point x="266" y="704"/>
      <point x="250" y="724"/>
      <point x="209" y="724" type="curve"/>
      <point x="168" y="724"/>
      <point x="152" y="704"/>
      <point x="152" y="678" type="curve"/>
      <point x="152" y="664" type="line" smooth="yes"/>
      <point x="152" y="638"/>
      <point x="168" y="618"/>
    </contour>
    <contour>
      <point x="395" y="618" type="curve"/>
      <point x="436" y="618"/>
      <point x="452" y="638"/>
      <point x="452" y="664" type="curve"/>
      <point x="452" y="678" type="line" smooth="yes"/>
      <point x="452" y="704"/>
      <point x="436" y="724"/>
      <point x="395" y="724" type="curve"/>
      <point x="354" y="724"/>
      <point x="338" y="704"/>
      <point x="338" y="678" type="curve"/>
      <point x="338" y="664" type="line" smooth="yes"/>
      <point x="338" y="638"/>
      <point x="354" y="618"/>
    </contour>
    <contour>
      <point x="309" y="-12" type="curve"/>
      <point x="411" y="-12"/>
      <point x="485" y="38"/>
      <point x="516" y="107" type="curve"/>
      <point x="457" y="147" type="line"/>
      <point x="430" y="91"/>
      <point x="378" y="57"/>
      <point x="309" y="57" type="curve"/>
      <point x="212" y="57"/>
      <point x="151" y="123"/>
      <point x="151" y="214" type="curve"/>
      <point x="151" y="238" type="line"/>
      <point x="533" y="238" type="line"/>
      <point x="533" y="276" type="line" smooth="yes"/>
      <point x="533" y="422"/>
      <point x="443" y="528"/>
      <point x="304" y="528" type="curve"/>
      <point x="164" y="528"/>
      <point x="67" y="422"/>
      <point x="67" y="257" type="curve"/>
      <point x="67" y="94"/>
      <point x="161" y="-12"/>
    </contour>
    <contour>
      <point x="304" y="462" type="curve"/>
      <point x="389" y="462"/>
      <point x="447" y="400"/>
      <point x="447" y="309" type="curve"/>
      <point x="447" y="298" type="line"/>
      <point x="151" y="298" type="line"/>
      <point x="151" y="305" type="line" smooth="yes"/>
      <point x="151" y="395"/>
      <point x="216" y="462"/>
    </contour>
  </outline>
</glyph>
<glyph name="igrave" format="1">
  <advance width="600"/>
  <unicode hex="00EC"/>
  <outline>
    <contour>
      <point x="292" y="779" type="line"/>
      <point x="219" y="744" type="line"/>
      <point x="325" y="585" type="line"/>
      <point x="377" y="609" type="line"/>
    </contour>
    <contour>
      <point x="292" y="68" type="line"/>
      <point x="106" y="68" type="line"/>
      <point x="106" y="0" type="line"/>
      <point x="546" y="0" type="line"/>
      <point x="546" y="68" type="line"/>
      <point x="372" y="68" type="line"/>
      <point x="372" y="516" type="line"/>
      <point x="106" y="516" type="line"/>
      <point x="106" y="448" type="line"/>
      <point x="292" y="448" type="line"/>
    </contour>
  </outline>
</glyph>
<glyph name="iacute" format="1">
  <advance width="600"/>
  <unicode hex="00ED"/>
  <outline>
    <contour>
      <point x="287" y="609" type="line"/>
      <point x="339" y="585" type="line"/>
      <point x="445" y="744" type="line"/>
      <point x="372" y="779" type="line"/>
    </contour>
    <contour>
      <point x="292" y="68" type="line"/>
      <point x="106" y="68" type="line"/>
      <point x="106" y="0" type="line"/>
      <point x="546" y="0" type="line"/>
      <point x="546" y="68" type="line"/>
      <point x="372" y="68" type="line"/>
      <point x="372" y="516" type="line"/>
      <point x="106" y="516" type="line"/>
      <point x="106" y="448" type="line"/>
      <point x="292" y="448" type="line"/>
    </contour>
  </outline>
</glyph>
<glyph name="icircumflex" format="1">
  <advance width="600"/>
  <unicode hex="00EE"/>
  <outline>
    <contour>
      <point x="493" y="622" type="line"/>
      <point x="382" y="765" type="line"/>
      <point x="282" y="765" type="line"/>
      <point x="171" y="622" type="line"/>
      <point x="214" y="591" type="line"/>
      <point x="331" y="708" type="line"/>
      <point x="448" y="591" type="line"/>
    </contour>
    <contour>
      <point x="292" y="68" type="line"/>
      <point x="106" y="68" type="line"/>
      <point x="106" y="0" type="line"/>
      <point x="546" y="0" type="line"/>
      <point x="546" y="68" type="line"/>
      <point x="372" y="68" type="line"/>
      <point x="372" y="516" type="line"/>
      <point x="106" y="516" type="line"/>
      <point x="106" y="448" type="line"/>
      <point x="292" y="448" type="line"/>
    </contour>
  </outline>
</glyph>
<glyph name="idieresis" format="1">
  <advance width="600"/>
  <unicode hex="00EF"/>
  <outline>
    <contour>
      <point x="239" y="618" type="curve"/>
      <point x="280" y="618"/>
      <point x="296" y="638"/>
      <point x="296" y="664" type="curve"/>
      <point x="296" y="678" type="line" smooth="yes"/>
      <point x="296" y="704"/>
      <point x="280" y="724"/>
      <point x="239" y="724" type="curve"/>
      <point x="198" y="724"/>
      <point x="182" y="704"/>
      <point x="182" y="678" type="curve"/>
      <point x="182" y="664" type="line" smooth="yes"/>
      <point x="182" y="638"/>
      <point x="198" y="618"/>
    </contour>
    <contour>
      <point x="425" y="618" type="curve"/>
      <point x="466" y="618"/>
      <point x="482" y="638"/>
      <point x="482" y="664" type="curve"/>
      <point x="482" y="678" type="line" smooth="yes"/>
      <point x="482" y="704"/>
      <point x="466" y="724"/>
      <point x="425" y="724" type="curve"/>
      <point x="384" y="724"/>
      <point x="368" y="704"/>
      <point x="368" y="678" type="curve"/>
      <point x="368" y="664" type="line" smooth="yes"/>
      <point x="368" y="638"/>
      <point x="384" y="618"/>
    </contour>
    <contour>
      <point x="292" y="68" type="line"/>
      <point x="106" y="68" type="line"/>
      <point x="106" y="0" type="line"/>
      <point x="546" y="0" type="line"/>
      <point x="546" y="68" type="line"/>
      <point x="372" y="68" type="line"/>
      <point x="372" y="516" type="line"/>
      <point x="106" y="516" type="line"/>
      <point x="106" y="448" type="line"/>
      <point x="292" y="448" type="line"/>
    </contour>
  </outline>
</glyph>
<glyph name="ntilde" format="1">
  <advance width="600"/>
  <unicode hex="00F1"/>
  <outline>
    <contour>
      <point x="376" y="612" type="curve"/>
      <point x="422" y="612"/>
      <point x="453" y="638"/>
      <point x="471" y="665" type="curve"/>
      <point x="438" y="705" type="line"/>
      <point x="418" y="688"/>
      <point x="402" y="678"/>
      <point x="380" y="678" type="curve"/>
      <point x="363" y="678"/>
      <point x="342" y="685"/>
      <point x="310" y="702" type="curve"/>
      <point x="289" y="713"/>
      <point x="265" y="728"/>
      <point x="230" y="728" type="curve"/>
      <point x="184" y="728"/>
      <point x="153" y="702"/>
      <point x="135" y="675" type="curve"/>
      <point x="168" y="635" type="line"/>
      <point x="188" y="652"/>
      <point x="204" y="662"/>
      <point x="226" y="662" type="curve"/>
      <point x="243" y="662"/>
      <point x="264" y="655"/>
      <point x="296" y="638" type="curve"/>
      <point x="317" y="627"/>
      <point x="341" y="612"/>
    </contour>
    <contour>
      <point x="98" y="516" type="line"/>
      <point x="98" y="0" type="line"/>
      <point x="178" y="0" type="line"/>
      <point x="178" y="358" type="line" smooth="yes"/>
      <point x="178" y="426"/>
      <point x="242" y="457"/>
      <point x="306" y="457" type="curve"/>
      <point x="385" y="457"/>
      <point x="428" y="411"/>
      <point x="428" y="317" type="curve"/>
      <point x="428" y="0" type="line"/>
      <point x="508" y="0" type="line"/>
      <point x="508" y="331" type="line" smooth="yes"/>
      <point x="508" y="456"/>
      <point x="437" y="528"/>
      <point x="329" y="528" type="curve"/>
      <point x="244" y="528"/>
      <point x="204" y="483"/>
      <point x="182" y="432" type="curve"/>
      <point x="178" y="432" type="line"/>
      <point x="178" y="516" type="line"/>
    </contour>
  </outline>
</glyph>
<glyph name="ograve" format="1">
  <advance width="600"/>
  <unicode hex="00F2"/>
  <outline>
    <contour>
      <point x="260" y="779" type="line"/>
      <point x="187" y="744" type="line"/>
      <point x="293" y="585" type="line"/>
      <point x="345" y="609" type="line"/>
    </contour>
    <contour>
      <point x="300" y="-12" type="curve"/>
      <point x="445" y="-12"/>
      <point x="534" y="94"/>
      <point x="534" y="258" type="curve"/>
      <point x="534" y="422"/>
      <point x="445" y="528"/>
      <point x="300" y="528" type="curve"/>
      <point x="155" y="528"/>
      <point x="66" y="422"/>
      <point x="66" y="258" type="curve"/>
      <point x="66" y="94"/>
      <point x="155" y="-12"/>
    </contour>
    <contour>
      <point x="300" y="57" type="curve"/>
      <point x="211" y="57"/>
      <point x="151" y="110"/>
      <point x="151" y="221" type="curve"/>
      <point x="151" y="295" type="line" smooth="yes"/>
      <point x="151" y="406"/>
      <point x="211" y="459"/>
      <point x="300" y="459" type="curve"/>
      <point x="389" y="459"/>
      <point x="449" y="406"/>
      <point x="449" y="295" type="curve"/>
      <point x="449" y="221" type="line" smooth="yes"/>
      <point x="449" y="110"/>
      <point x="389" y="57"/>
    </contour>
  </outline>
</glyph>
<glyph name="otilde" format="1">
  <advance width="600"/>
  <unicode hex="00F5"/>
  <outline>
    <contour>
      <point x="373" y="612" type="curve"/>
      <point x="419" y="612"/>
      <point x="450" y="638"/>
      <point x="468" y="665" type="curve"/>
      <point x="435" y="705" type="line"/>
      <point x="415" y="688"/>
      <point x="399" y="678"/>
      <point x="377" y="678" type="curve"/>
      <point x="360" y="678"/>
      <point x="339" y="685"/>
      <point x="307" y="702" type="curve"/>
      <point x="286" y="713"/>
      <point x="262" y="728"/>
      <point x="227" y="728" type="curve"/>
      <point x="181" y="728"/>
      <point x="150" y="702"/>
      <point x="132" y="675" type="curve"/>
      <point x="165" y="635" type="line"/>
      <point x="185" y="652"/>
      <point x="201" y="662"/>
      <point x="223" y="662" type="curve"/>
      <point x="240" y="662"/>
      <point x="261" y="655"/>
      <point x="293" y="638" type="curve"/>
      <point x="314" y="627"/>
      <point x="338" y="612"/>
    </contour>
    <contour>
      <point x="300" y="-12" type="curve"/>
      <point x="445" y="-12"/>
      <point x="534" y="94"/>
      <point x="534" y="258" type="curve"/>
      <point x="534" y="422"/>
      <point x="445" y="528"/>
      <point x="300" y="528" type="curve"/>
      <point x="155" y="528"/>
      <point x="66" y="422"/>
      <point x="66" y="258" type="curve"/>
      <point x="66" y="94"/>
      <point x="155" y="-12"/>
    </contour>
    <contour>
      <point x="300" y="57" type="curve"/>
      <point x="211" y="57"/>
      <point x="151" y="110"/>
      <point x="151" y="221" type="curve"/>
      <point x="151" y="295" type="line" smooth="yes"/>
      <point x="151" y="406"/>
      <point x="211" y="459"/>
      <point x="300" y="459" type="curve"/>
      <point x="389" y="459"/>
      <point x="449" y="406"/>
      <point x="449" y="295" type="curve"/>
      <point x="449" y="221" type="line" smooth="yes"/>
      <point x="449" y="110"/>
      <point x="389" y="57"/>
    </contour>
  </outline>
</glyph>
<glyph name="odieresis" format="1">
  <advance width="600"/>
  <unicode hex="00F6"/>
  <outline>
    <contour>
      <point x="207" y="618" type="curve"/>
      <point x="248" y="618"/>
      <point x="264" y="638"/>
      <point x="264" y="664" type="curve"/>
      <point x="264" y="678" type="line" smooth="yes"/>
      <point x="264" y="704"/>
      <point x="248" y="724"/>
      <point x="207" y="724" type="curve"/>
      <point x="166" y="724"/>
      <point x="150" y="704"/>
      <point x="150" y="678" type="curve"/>
      <point x="150" y="664" type="line" smooth="yes"/>
      <point x="150" y="638"/>
      <point x="166" y="618"/>
    </contour>
    <contour>
      <point x="393" y="618" type="curve"/>
      <point x="434" y="618"/>
      <point x="450" y="638"/>
      <point x="450" y="664" type="curve"/>
      <point x="450" y="678" type="line" smooth="yes"/>
      <point x="450" y="704"/>
      <point x="434" y="724"/>
      <point x="393" y="724" type="curve"/>
      <point x="352" y="724"/>
      <point x="336" y="704"/>
      <point x="336" y="678" type="curve"/>
      <point x="336" y="664" type="line" smooth="yes"/>
      <point x="336" y="638"/>
      <point x="352" y="618"/>
    </contour>
    <contour>
      <point x="300" y="-12" type="curve"/>
      <point x="445" y="-12"/>
      <point x="534" y="94"/>
      <point x="534" y="258" type="curve"/>
      <point x="534" y="422"/>
      <point x="445" y="528"/>
      <point x="300" y="528" type="curve"/>
      <point x="155" y="528"/>
      <point x="66" y="422"/>
      <point x="66" y="258" type="curve"/>
      <point x="66" y="94"/>
      <point x="155" y="-12"/>
    </contour>
    <contour>
      <point x="300" y="57" type="curve"/>
      <point x="211" y="57"/>
      <point x="151" y="110"/>
      <point x="151" y="221" type="curve"/>
      <point x="151" y="295" type="line" smooth="yes"/>
      <point x="151" y="406"/>
      <point x="211" y="459"/>
      <point x="300" y="459" type="curve"/>
      <point x="389" y="459"/>
      <point x="449" y="406"/>
      <point x="449" y="295" type="curve"/>
      <point x="449" y="221" type="line" smooth="yes"/>
      <point x="449" y="110"/>
      <point x="389" y="57"/>
    </contour>
  </outline>
</glyph>
<glyph name="ugrave" format="1">
  <advance width="600"/>
  <unicode hex="00F9"/>
  <outline>
    <contour>
      <point x="257" y="779" type="line"/>
      <point x="184" y="744" type="line"/>
      <point x="290" y="585" type="line"/>
      <point x="342" y="609" type="line"/>
    </contour>
    <contour>
      <point x="418" y="84" type="curve"/>
      <point x="422" y="84" type="line"/>
      <point x="422" y="0" type="line"/>
      <point x="502" y="0" type="line"/>
      <point x="502" y="516" type="line"/>
      <point x="422" y="516" type="line"/>
      <point x="422" y="158" type="line" smooth="yes"/>
      <point x="422" y="90"/>
      <point x="358" y="59"/>
      <point x="294" y="59" type="curve"/>
      <point x="215" y="59"/>
      <point x="172" y="105"/>
      <point x="172" y="199" type="curve"/>
      <point x="172" y="516" type="line"/>
      <point x="92" y="516" type="line"/>
      <point x="92" y="185" type="line" smooth="yes"/>
      <point x="92" y="60"/>
      <point x="163" y="-12"/>
      <point x="271" y="-12" type="curve"/>
      <point x="356" y="-12"/>
      <point x="396" y="33"/>
    </contour>
  </outline>
</glyph>
<glyph name="ucircumflex" format="1">
  <advance width="600"/>
  <unicode hex="00FB"/>
  <outline>
    <contour>
      <point x="458" y="622" type="line"/>
      <point x="347" y="765" type="line"/>
      <point x="247" y="765" type="line"/>
      <point x="136" y="622" type="line"/>
      <point x="179" y="591" type="line"/>
      <point x="296" y="708" type="line"/>
      <point x="413" y="591" type="line"/>
    </contour>
    <contour>
      <point x="418" y="84" type="curve"/>
      <point x="422" y="84" type="line"/>
      <point x="422" y="0" type="line"/>
      <point x="502" y="0" type="line"/>
      <point x="502" y="516" type="line"/>
      <point x="422" y="516" type="line"/>
      <point x="422" y="158" type="line" smooth="yes"/>
      <point x="422" y="90"/>
      <point x="358" y="59"/>
      <point x="294" y="59" type="curve"/>
      <point x="215" y="59"/>
      <point x="172" y="105"/>
      <point x="172" y="199" type="curve"/>
      <point x="172" y="516" type="line"/>
      <point x="92" y="516" type="line"/>
      <point x="92" y="185" type="line" smooth="yes"/>
      <point x="92" y="60"/>
      <point x="163" y="-12"/>
      <point x="271" y="-12" type="curve"/>
      <point x="356" y="-12"/>
      <point x="396" y="33"/>
    </contour>
  </outline>
</glyph>
<glyph name="udieresis" format="1">
  <advance width="600"/>
  <unicode hex="00FC"/>
  <outline>
    <contour>
      <point x="204" y="618" type="curve"/>
      <point x="245" y="618"/>
      <point x="261" y="638"/>
      <point x="261" y="664" type="curve"/>
      <point x="261" y="678" type="line" smooth="yes"/>
      <point x="261" y="704"/>
      <point x="245" y="724"/>
      <point x="204" y="724" type="curve"/>
      <point x="163" y="724"/>
      <point x="147" y="704"/>
      <point x="147" y="678" type="curve"/>
      <point x="147" y="664" type="line" smooth="yes"/>
      <point x="147" y="638"/>
      <point x="163" y="618"/>
    </contour>
    <contour>
      <point x="390" y="618" type="curve"/>
      <point x="431" y="618"/>
      <point x="447" y="638"/>
      <point x="447" y="664" type="curve"/>
      <point x="447" y="678" type="line" smooth="yes"/>
      <point x="447" y="704"/>
      <point x="431" y="724"/>
      <point x="390" y="724" type="curve"/>
      <point x="349" y="724"/>
      <point x="333" y="704"/>
      <point x="333" y="678" type="curve"/>
      <point x="333" y="664" type="line" smooth="yes"/>
      <point x="333" y="638"/>
      <point x="349" y="618"/>
    </contour>
    <contour>
      <point x="418" y="84" type="curve"/>
      <point x="422" y="84" type="line"/>
      <point x="422" y="0" type="line"/>
      <point x="502" y="0" type="line"/>
      <point x="502" y="516" type="line"/>
      <point x="422" y="516" type="line"/>
      <point x="422" y="158" type="line" smooth="yes"/>
      <point x="422" y="90"/>
      <point x="358" y="59"/>
      <point x="294" y="59" type="curve"/>
      <point x="215" y="59"/>
      <point x="172" y="105"/>
      <point x="172" y="199" type="curve"/>
      <point x="172" y="516" type="line"/>
      <point x="92" y="516" type="line"/>
      <point x="92" y="185" type="line" smooth="yes"/>
      <point x="92" y="60"/>
      <point x="163" y="-12"/>
      <point x="271" y="-12" type="curve"/>
      <point x="356" y="-12"/>
      <point x="396" y="33"/>
    </contour>
  </outline>
</glyph>
<glyph name="yacute" format="1">
  <advance width="600"/>
  <unicode hex="00FD"/>
  <outline>
    <contour>
      <point x="255" y="609" type="line"/>
      <point x="307" y="585" type="line"/>
      <point x="413" y="744" type="line"/>
      <point x="340" y="779" type="line"/>
    </contour>
    <contour>
      <point x="547" y="516" type="line"/>
      <point x="467" y="516" type="line"/>
      <point x="380" y="300" type="line"/>
      <point x="303" y="104" type="line"/>
      <point x="299" y="104" type="line"/>
      <point x="222" y="300" type="line"/>
      <point x="135" y="516" type="line"/>
      <point x="53" y="516" type="line"/>
      <point x="261" y="10" type="line"/>
      <point x="203" y="-132" type="line"/>
      <point x="83" y="-132" type="line"/>
      <point x="83" y="-200" type="line"/>
      <point x="159" y="-200" type="line" smooth="yes"/>
      <point x="237" y="-200"/>
      <point x="267" y="-172"/>
      <point x="291" y="-113" type="curve"/>
    </contour>
  </outline>
</glyph>
<glyph name="amacron" format="1">
  <advance width="600"/>
  <unicode hex="0101"/>
  <outline>
    <contour>
      <point x="423" y="705" type="line"/>
      <point x="143" y="705" type="line"/>
      <point x="143" y="637" type="line"/>
      <point x="423" y="637" type="line"/>
    </contour>
    <contour>
      <point x="495" y="0" type="curve"/>
      <point x="550" y="0" type="line"/>
      <point x="550" y="70" type="line"/>
      <point x="478" y="70" type="line"/>
      <point x="478" y="354" type="line" smooth="yes"/>
      <point x="478" y="463"/>
      <point x="401" y="528"/>
      <point x="280" y="528" type="curve"/>
      <point x="175" y="528"/>
      <point x="109" y="478"/>
      <point x="83" y="424" type="curve"/>
      <point x="137" y="384" type="line"/>
      <point x="164" y="431"/>
      <point x="206" y="460"/>
      <point x="275" y="460" type="curve"/>
      <point x="353" y="460"/>
      <point x="398" y="421"/>
      <point x="398" y="346" type="curve"/>
      <point x="398" y="295" type="line"/>
      <point x="288" y="295" type="line" smooth="yes"/>
      <point x="133" y="295"/>
      <point x="66" y="240"/>
      <point x="66" y="145" type="curve"/>
      <point x="66" y="48"/>
      <point x="135" y="-12"/>
      <point x="243" y="-12" type="curve"/>
      <point x="327" y="-12"/>
      <point x="376" y="25"/>
      <point x="398" y="84" type="curve"/>
      <point x="403" y="84" type="line"/>
      <point x="409" y="36"/>
      <point x="433" y="0"/>
    </contour>
    <contour>
      <point x="257" y="55" type="curve"/>
      <point x="191" y="55"/>
      <point x="150" y="83"/>
      <point x="150" y="136" type="curve"/>
      <point x="150" y="157" type="line" smooth="yes"/>
      <point x="150" y="207"/>
      <point x="193" y="235"/>
      <point x="288" y="235" type="curve"/>
      <point x="398" y="235" type="line"/>
      <point x="398" y="150" type="line" smooth="yes"/>
      <point x="398" y="97"/>
      <point x="339" y="55"/>
    </contour>
  </outline>
</glyph>
<glyph name="abreve" format="1">
  <advance width="600"/>
  <unicode hex="0103"/>
  <outline>
    <contour>
      <point x="283" y="595" type="curve"/>
      <point x="390" y="595"/>
      <point x="425" y="685"/>
      <point x="444" y="746" type="curve"/>
      <point x="393" y="768" type="line"/>
      <point x="372" y="734" type="line" smooth="yes"/>
      <point x="341" y="684"/>
      <point x="327" y="660"/>
      <point x="283" y="660" type="curve"/>
      <point x="239" y="660"/>
      <point x="225" y="684"/>
      <point x="194" y="734" type="curve"/>
      <point x="173" y="768" type="line"/>
      <point x="122" y="746" type="line"/>
      <point x="141" y="685"/>
      <point x="176" y="595"/>
    </contour>
    <contour>
      <point x="495" y="0" type="curve"/>
      <point x="550" y="0" type="line"/>
      <point x="550" y="70" type="line"/>
      <point x="478" y="70" type="line"/>
      <point x="478" y="354" type="line" smooth="yes"/>
      <point x="478" y="463"/>
      <point x="401" y="528"/>
      <point x="280" y="528" type="curve"/>
      <point x="175" y="528"/>
      <point x="109" y="478"/>
      <point x="83" y="424" type="curve"/>
      <point x="137" y="384" type="line"/>
      <point x="164" y="431"/>
      <point x="206" y="460"/>
      <point x="275" y="460" type="curve"/>
      <point x="353" y="460"/>
      <point x="398" y="421"/>
      <point x="398" y="346" type="curve"/>
      <point x="398" y="295" type="line"/>
      <point x="288" y="295" type="line" smooth="yes"/>
      <point x="133" y="295"/>
      <point x="66" y="240"/>
      <point x="66" y="145" type="curve"/>
      <point x="66" y="48"/>
      <point x="135" y="-12"/>
      <point x="243" y="-12" type="curve"/>
      <point x="327" y="-12"/>
      <point x="376" y="25"/>
      <point x="398" y="84" type="curve"/>
      <point x="403" y="84" type="line"/>
      <point x="409" y="36"/>
      <point x="433" y="0"/>
    </contour>
    <contour>
      <point x="257" y="55" type="curve"/>
      <point x="191" y="55"/>
      <point x="150" y="83"/>
      <point x="150" y="136" type="curve"/>
      <point x="150" y="157" type="line" smooth="yes"/>
      <point x="150" y="207"/>
      <point x="193" y="235"/>
      <point x="288" y="235" type="curve"/>
      <point x="398" y="235" type="line"/>
      <point x="398" y="150" type="line" smooth="yes"/>
      <point x="398" y="97"/>
      <point x="339" y="55"/>
    </contour>
  </outline>
</glyph>
<glyph name="Cacute" format="1">
  <advance width="600"/>
  <unicode hex="0106"/>
  <outline>
    <contour>
      <point x="283" y="779" type="line"/>
      <point x="335" y="755" type="line"/>
      <point x="441" y="914" type="line"/>
      <point x="368" y="949" type="line"/>
    </contour>
    <contour>
      <point x="323" y="-12" type="curve"/>
      <point x="451" y="-12"/>
      <point x="504" y="65"/>
      <point x="538" y="141" type="curve"/>
      <point x="466" y="174" type="line"/>
      <point x="441" y="112"/>
      <point x="408" y="61"/>
      <point x="323" y="61" type="curve"/>
      <point x="212" y="61"/>
      <point x="159" y="152"/>
      <point x="159" y="292" type="curve"/>
      <point x="159" y="406" type="line" smooth="yes"/>
      <point x="159" y="546"/>
      <point x="212" y="637"/>
      <point x="323" y="637" type="curve"/>
      <point x="408" y="637"/>
      <point x="441" y="586"/>
      <point x="466" y="524" type="curve"/>
      <point x="538" y="557" type="line"/>
      <point x="504" y="633"/>
      <point x="451" y="710"/>
      <point x="323" y="710" type="curve"/>
      <point x="153" y="710"/>
      <point x="70" y="581"/>
      <point x="70" y="349" type="curve"/>
      <point x="70" y="117"/>
      <point x="153" y="-12"/>
    </contour>
  </outline>
</glyph>
<glyph name="Cdotaccent" format="1">
  <advance width="600"/>
  <unicode hex="010A"/>
  <outline>
    <contour>
      <point x="328" y="782" type="curve"/>
      <point x="374" y="782"/>
      <point x="391" y="804"/>
      <point x="391" y="833" type="curve"/>
      <point x="391" y="849" type="line" smooth="yes"/>
      <point x="391" y="878"/>
      <point x="374" y="900"/>
      <point x="328" y="900" type="curve"/>
      <point x="282" y="900"/>
      <point x="265" y="878"/>
      <point x="265" y="849" type="curve"/>
      <point x="265" y="833" type="line" smooth="yes"/>
      <point x="265" y="804"/>
      <point x="282" y="782"/>
    </contour>
    <contour>
      <point x="323" y="-12" type="curve"/>
      <point x="451" y="-12"/>
      <point x="504" y="65"/>
      <point x="538" y="141" type="curve"/>
      <point x="466" y="174" type="line"/>
      <point x="441" y="112"/>
      <point x="408" y="61"/>
      <point x="323" y="61" type="curve"/>
      <point x="212" y="61"/>
      <point x="159" y="152"/>
      <point x="159" y="292" type="curve"/>
      <point x="159" y="406" type="line" smooth="yes"/>
      <point x="159" y="546"/>
      <point x="212" y="637"/>
      <point x="323" y="637" type="curve"/>
      <point x="408" y="637"/>
      <point x="441" y="586"/>
      <point x="466" y="524" type="curve"/>
      <point x="538" y="557" type="line"/>
      <point x="504" y="633"/>
      <point x="451" y="710"/>
      <point x="323" y="710" type="curve"/>
      <point x="153" y="710"/>
      <point x="70" y="581"/>
      <point x="70" y="349" type="curve"/>
      <point x="70" y="117"/>
      <point x="153" y="-12"/>
    </contour>
  </outline>
</glyph>
<glyph name="Ccaron" format="1">
  <advance width="600"/>
  <unicode hex="010C"/>
  <outline>
    <contour>
      <point x="167" y="912" type="line"/>
      <point x="278" y="769" type="line"/>
      <point x="378" y="769" type="line"/>
      <point x="489" y="912" type="line"/>
      <point x="446" y="943" type="line"/>
      <point x="329" y="826" type="line"/>
      <point x="212" y="943" type="line"/>
    </contour>
    <contour>
      <point x="323" y="-12" type="curve"/>
      <point x="451" y="-12"/>
      <point x="504" y="65"/>
      <point x="538" y="141" type="curve"/>
      <point x="466" y="174" type="line"/>
      <point x="441" y="112"/>
      <point x="408" y="61"/>
      <point x="323" y="61" type="curve"/>
      <point x="212" y="61"/>
      <point x="159" y="152"/>
      <point x="159" y="292" type="curve"/>
      <point x="159" y="406" type="line" smooth="yes"/>
      <point x="159" y="546"/>
      <point x="212" y="637"/>
      <point x="323" y="637" type="curve"/>
      <point x="408" y="637"/>
      <point x="441" y="586"/>
      <point x="466" y="524" type="curve"/>
      <point x="538" y="557" type="line"/>
      <point x="504" y="633"/>
      <point x="451" y="710"/>
      <point x="323" y="710" type="curve"/>
      <point x="153" y="710"/>
      <point x="70" y="581"/>
      <point x="70" y="349" type="curve"/>
      <point x="70" y="117"/>
      <point x="153" y="-12"/>
    </contour>
  </outline>
</glyph>
<glyph name="Ebreve" format="1">
  <advance width="600"/>
  <unicode hex="0114"/>
  <outline>
    <contour>
      <point x="305" y="765" type="curve"/>
      <point x="412" y="765"/>
      <point x="447" y="855"/>
      <point x="466" y="916" type="curve"/>
      <point x="415" y="938" type="line"/>
      <point x="394" y="904" type="line" smooth="yes"/>
      <point x="363" y="854"/>
      <point x="349" y="830"/>
      <point x="305" y="830" type="curve"/>
      <point x="261" y="830"/>
      <point x="247" y="854"/>
      <point x="216" y="904" type="curve"/>
      <point x="195" y="938" type="line"/>
      <point x="144" y="916" type="line"/>
      <point x="163" y="855"/>
      <point x="198" y="765"/>
    </contour>
    <contour>
      <point x="90" y="698" type="line"/>
      <point x="90" y="0" type="line"/>
      <point x="520" y="0" type="line"/>
      <point x="520" y="73" type="line"/>
      <point x="174" y="73" type="line"/>
      <point x="174" y="317" type="line"/>
      <point x="508" y="317" type="line"/>
      <point x="508" y="390" type="line"/>
      <point x="174" y="390" type="line"/>
      <point x="174" y="625" type="line"/>
      <point x="520" y="625" type="line"/>
      <point x="520" y="698" type="line"/>
    </contour>
  </outline>
</glyph>
<glyph name="ebreve" format="1">
  <advance width="600"/>
  <unicode hex="0115"/>
  <outline>
    <contour>
      <point x="302" y="595" type="curve"/>
      <point x="409" y="595"/>
      <point x="444" y="685"/>
      <point x="463" y="746" type="curve"/>
      <point x="412" y="768" type="line"/>
      <point x="391" y="734" type="line" smooth="yes"/>
      <point x="360" y="684"/>
      <point x="346" y="660"/>
      <point x="302" y="660" type="curve"/>
      <point x="258" y="660"/>
      <point x="244" y="684"/>
      <point x="213" y="734" type="curve"/>
      <point x="192" y="768" type="line"/>
      <point x="141" y="746" type="line"/>
      <point x="160" y="685"/>
      <point x="195" y="595"/>
    </contour>
    <contour>
      <point x="309" y="-12" type="curve"/>
      <point x="411" y="-12"/>
      <point x="485" y="38"/>
      <point x="516" y="107" type="curve"/>
      <point x="457" y="147" type="line"/>
      <point x="430" y="91"/>
      <point x="378" y="57"/>
      <point x="309" y="57" type="curve"/>
      <point x="212" y="57"/>
      <point x="151" y="123"/>
      <point x="151" y="214" type="curve"/>
      <point x="151" y="238" type="line"/>
      <point x="533" y="238" type="line"/>
      <point x="533" y="276" type="line" smooth="yes"/>
      <point x="533" y="422"/>
      <point x="443" y="528"/>
      <point x="304" y="528" type="curve"/>
      <point x="164" y="528"/>
      <point x="67" y="422"/>
      <point x="67" y="257" type="curve"/>
      <point x="67" y="94"/>
      <point x="161" y="-12"/>
    </contour>
    <contour>
      <point x="304" y="462" type="curve"/>
      <point x="389" y="462"/>
      <point x="447" y="400"/>
      <point x="447" y="309" type="curve"/>
      <point x="447" y="298" type="line"/>
      <point x="151" y="298" type="line"/>
      <point x="151" y="305" type="line" smooth="yes"/>
      <point x="151" y="395"/>
      <point x="216" y="462"/>
    </contour>
  </outline>
</glyph>
<glyph name="Edotaccent" format="1">
  <advance width="600"/>
  <unicode hex="0116"/>
  <outline>
    <contour>
      <point x="305" y="782" type="curve"/>
      <point x="351" y="782"/>
      <point x="368" y="804"/>
      <point x="368" y="833" type="curve"/>
      <point x="368" y="849" type="line" smooth="yes"/>
      <point x="368" y="878"/>
      <point x="351" y="900"/>
      <point x="305" y="900" type="curve"/>
      <point x="259" y="900"/>
      <point x="242" y="878"/>
      <point x="242" y="849" type="curve"/>
      <point x="242" y="833" type="line" smooth="yes"/>
      <point x="242" y="804"/>
      <point x="259" y="782"/>
    </contour>
    <contour>
      <point x="90" y="698" type="line"/>
      <point x="90" y="0" type="line"/>
      <point x="520" y="0" type="line"/>
      <point x="520" y="73" type="line"/>
      <point x="174" y="73" type="line"/>
      <point x="174" y="317" type="line"/>
      <point x="508" y="317" type="line"/>
      <point x="508" y="390" type="line"/>
      <point x="174" y="390" type="line"/>
      <point x="174" y="625" type="line"/>
      <point x="520" y="625" type="line"/>
      <point x="520" y="698" type="line"/>
    </contour>
  </outline>
</glyph>
<glyph name="ecaron" format="1">
  <advance width="600"/>
  <unicode hex="011B"/>
  <outline>
    <contour>
      <point x="141" y="742" type="line"/>
      <point x="252" y="599" type="line"/>
      <point x="352" y="599" type="line"/>
      <point x="463" y="742" type="line"/>
      <point x="421" y="773" type="line"/>
      <point x="304" y="656" type="line"/>
      <point x="187" y="773" type="line"/>
    </contour>
    <contour>
      <point x="309" y="-12" type="curve"/>
      <point x="411" y="-12"/>
      <point x="485" y="38"/>
      <point x="516" y="107" type="curve"/>
      <point x="457" y="147" type="line"/>
      <point x="430" y="91"/>
      <point x="378" y="57"/>
      <point x="309" y="57" type="curve"/>
      <point x="212" y="57"/>
      <point x="151" y="123"/>
      <point x="151" y="214" type="curve"/>
      <point x="151" y="238" type="line"/>
      <point x="533" y="238" type="line"/>
      <point x="533" y="276" type="line" smooth="yes"/>
      <point x="533" y="422"/>
      <point x="443" y="528"/>
      <point x="304" y="528" type="curve"/>
      <point x="164" y="528"/>
      <point x="67" y="422"/>
      <point x="67" y="257" type="curve"/>
      <point x="67" y="94"/>
      <point x="161" y="-12"/>
    </contour>
    <contour>
      <point x="304" y="462" type="curve"/>
      <point x="389" y="462"/>
      <point x="447" y="400"/>
      <point x="447" y="309" type="curve"/>
      <point x="447" y="298" type="line"/>
      <point x="151" y="298" type="line"/>
      <point x="151" y="305" type="line" smooth="yes"/>
      <point x="151" y="395"/>
      <point x="216" y="462"/>
    </contour>
  </outline>
</glyph>
<glyph name="Gcircumflex" format="1">
  <advance width="600"/>
  <unicode hex="011C"/>
  <outline>
    <contour>
      <point x="467" y="792" type="line"/>
      <point x="356" y="935" type="line"/>
      <point x="256" y="935" type="line"/>
      <point x="145" y="792" type="line"/>
      <point x="188" y="761" type="line"/>
      <point x="305" y="878" type="line"/>
      <point x="422" y="761" type="line"/>
    </contour>
    <contour>
      <point x="439" y="93" type="curve"/>
      <point x="444" y="93" type="line"/>
      <point x="444" y="0" type="line"/>
      <point x="522" y="0" type="line"/>
      <point x="522" y="345" type="line"/>
      <point x="297" y="345" type="line"/>
      <point x="297" y="278" type="line"/>
      <point x="444" y="278" type="line"/>
      <point x="444" y="206" type="line" smooth="yes"/>
      <point x="444" y="120"/>
      <point x="390" y="59"/>
      <point x="300" y="59" type="curve"/>
      <point x="186" y="59"/>
      <point x="145" y="158"/>
      <point x="145" y="298" type="curve"/>
      <point x="145" y="406" type="line" smooth="yes"/>
      <point x="145" y="546"/>
      <point x="196" y="637"/>
      <point x="308" y="637" type="curve"/>
      <point x="392" y="637"/>
      <point x="425" y="586"/>
      <point x="450" y="524" type="curve"/>
      <point x="522" y="557" type="line"/>
      <point x="492" y="633"/>
      <point x="436" y="710"/>
      <point x="305" y="710" type="curve"/>
      <point x="137" y="710"/>
      <point x="56" y="582"/>
      <point x="56" y="344" type="curve"/>
      <point x="56" y="116"/>
      <point x="130" y="-12"/>
      <point x="281" y="-12" type="curve"/>
      <point x="377" y="-12"/>
      <point x="416" y="39"/>
    </contour>
  </outline>
</glyph>
<glyph name="Gbreve" format="1">
  <advance width="600"/>
  <unicode hex="011E"/>
  <outline>
    <contour>
      <point x="306" y="765" type="curve"/>
      <point x="413" y="765"/>
      <point x="448" y="855"/>
      <point x="467" y="916" type="curve"/>
      <point x="416" y="938" type="line"/>
      <point x="395" y="904" type="line" smooth="yes"/>
      <point x="364" y="854"/>
      <point x="350" y="830"/>
      <point x="306" y="830" type="curve"/>
      <point x="262" y="830"/>
      <point x="248" y="854"/>
      <point x="217" y="904" type="curve"/>
      <point x="196" y="938" type="line"/>
      <point x="145" y="916" type="line"/>
      <point x="164" y="855"/>
      <point x="199" y="765"/>
    </contour>
    <contour>
      <point x="439" y="93" type="curve"/>
      <point x="444" y="93" type="line"/>
      <point x="444" y="0" type="line"/>
      <point x="522" y="0" type="line"/>
      <point x="522" y="345" type="line"/>
      <point x="297" y="345" type="line"/>
      <point x="297" y="278" type="line"/>
      <point x="444" y="278" type="line"/>
      <point x="444" y="206" type="line" smooth="yes"/>
      <point x="444" y="120"/>
      <point x="390" y="59"/>
      <point x="300" y="59" type="curve"/>
      <point x="186" y="59"/>
      <point x="145" y="158"/>
      <point x="145" y="298" type="curve"/>
      <point x="145" y="406" type="line" smooth="yes"/>
      <point x="145" y="546"/>
      <point x="196" y="637"/>
      <point x="308" y="637" type="curve"/>
      <point x="392" y="637"/>
      <point x="425" y="586"/>
      <point x="450" y="524" type="curve"/>
      <point x="522" y="557" type="line"/>
      <point x="492" y="633"/>
      <point x="436" y="710"/>
      <point x="305" y="710" type="curve"/>
      <point x="137" y="710"/>
      <point x="56" y="582"/>
      <point x="56" y="344" type="curve"/>
      <point x="56" y="116"/>
      <point x="130" y="-12"/>
      <point x="281" y="-12" type="curve"/>
      <point x="377" y="-12"/>
      <point x="416" y="39"/>
    </contour>
  </outline>
</glyph>
<glyph name="gbreve" format="1">
  <advance width="600"/>
  <unicode hex="011F"/>
  <outline>
    <contour>
      <point x="297" y="595" type="curve"/>
      <point x="404" y="595"/>
      <point x="439" y="685"/>
      <point x="458" y="746" type="curve"/>
      <point x="407" y="768" type="line"/>
      <point x="386" y="734" type="line" smooth="yes"/>
      <point x="355" y="684"/>
      <point x="341" y="660"/>
      <point x="297" y="660" type="curve"/>
      <point x="253" y="660"/>
      <point x="239" y="684"/>
      <point x="208" y="734" type="curve"/>
      <point x="187" y="768" type="line"/>
      <point x="136" y="746" type="line"/>
      <point x="155" y="685"/>
      <point x="190" y="595"/>
    </contour>
    <contour>
      <point x="301" y="-212" type="curve"/>
      <point x="473" y="-212"/>
      <point x="561" y="-163"/>
      <point x="561" y="-59" type="curve"/>
      <point x="561" y="25"/>
      <point x="504" y="79"/>
      <point x="371" y="79" type="curve"/>
      <point x="257" y="79" type="line" smooth="yes"/>
      <point x="208" y="79"/>
      <point x="174" y="86"/>
      <point x="174" y="117" type="curve"/>
      <point x="174" y="152"/>
      <point x="217" y="170"/>
      <point x="248" y="176" type="curve"/>
      <point x="264" y="173"/>
      <point x="280" y="172"/>
      <point x="297" y="172" type="curve"/>
      <point x="418" y="172"/>
      <point x="498" y="245"/>
      <point x="498" y="350" type="curve"/>
      <point x="498" y="388"/>
      <point x="487" y="425"/>
      <point x="462" y="452" type="curve"/>
      <point x="556" y="452" type="line"/>
      <point x="556" y="516" type="line"/>
      <point x="375" y="516" type="line"/>
      <point x="352" y="524"/>
      <point x="326" y="528"/>
      <point x="297" y="528" type="curve"/>
      <point x="176" y="528"/>
      <point x="97" y="455"/>
      <point x="97" y="350" type="curve"/>
      <point x="97" y="277"/>
      <point x="135" y="220"/>
      <point x="198" y="192" type="curve"/>
      <point x="198" y="188" type="line"/>
      <point x="145" y="175"/>
      <point x="105" y="151"/>
      <point x="105" y="98" type="curve"/>
      <point x="105" y="63"/>
      <point x="122" y="41"/>
      <point x="151" y="27" type="curve"/>
      <point x="151" y="15" type="line"/>
      <point x="98" y="1"/>
      <point x="67" y="-29"/>
      <point x="67" y="-84" type="curve"/>
      <point x="67" y="-166"/>
      <point x="135" y="-212"/>
    </contour>
    <contour>
      <point x="297" y="234" type="curve"/>
      <point x="218" y="234"/>
      <point x="181" y="275"/>
      <point x="181" y="336" type="curve"/>
      <point x="181" y="365" type="line" smooth="yes"/>
      <point x="181" y="426"/>
      <point x="218" y="466"/>
      <point x="297" y="466" type="curve"/>
      <point x="377" y="466"/>
      <point x="414" y="426"/>
      <point x="414" y="365" type="curve"/>
      <point x="414" y="336" type="line" smooth="yes"/>
      <point x="414" y="275"/>
      <point x="377" y="234"/>
    </contour>
    <contour>
      <point x="486" y="-63" type="curve"/>
      <point x="486" y="-119"/>
      <point x="431" y="-148"/>
      <point x="338" y="-148" type="curve"/>
      <point x="260" y="-148" type="line" smooth="yes"/>
      <point x="176" y="-148"/>
      <point x="143" y="-110"/>
      <point x="143" y="-65" type="curve"/>
      <point x="143" y="-32"/>
      <point x="161" y="-9"/>
      <point x="195" y="5" type="curve"/>
      <point x="374" y="5" type="line" smooth="yes"/>
      <point x="457" y="5"/>
      <point x="486" y="-22"/>
    </contour>
  </outline>
</glyph>
<glyph name="Gdotaccent" format="1">
  <advance width="600"/>
  <unicode hex="0120"/>
  <outline>
    <contour>
      <point x="306" y="782" type="curve"/>
      <point x="352" y="782"/>
      <point x="369" y="804"/>
      <point x="369" y="833" type="curve"/>
      <point x="369" y="849" type="line" smooth="yes"/>
      <point x="369" y="878"/>
      <point x="352" y="900"/>
      <point x="306" y="900" type="curve"/>
      <point x="260" y="900"/>
      <point x="243" y="878"/>
      <point x="243" y="849" type="curve"/>
      <point x="243" y="833" type="line" smooth="yes"/>
      <point x="243" y="804"/>
      <point x="260" y="782"/>
    </contour>
    <contour>
      <point x="439" y="93" type="curve"/>
      <point x="444" y="93" type="line"/>
      <point x="444" y="0" type="line"/>
      <point x="522" y="0" type="line"/>
      <point x="522" y="345" type="line"/>
      <point x="297" y="345" type="line"/>
      <point x="297" y="278" type="line"/>
      <point x="444" y="278" type="line"/>
      <point x="444" y="206" type="line" smooth="yes"/>
      <point x="444" y="120"/>
      <point x="390" y="59"/>
      <point x="300" y="59" type="curve"/>
      <point x="186" y="59"/>
      <point x="145" y="158"/>
      <point x="145" y="298" type="curve"/>
      <point x="145" y="406" type="line" smooth="yes"/>
      <point x="145" y="546"/>
      <point x="196" y="637"/>
      <point x="308" y="637" type="curve"/>
      <point x="392" y="637"/>
      <point x="425" y="586"/>
      <point x="450" y="524" type="curve"/>
      <point x="522" y="557" type="line"/>
      <point x="492" y="633"/>
      <point x="436" y="710"/>
      <point x="305" y="710" type="curve"/>
      <point x="137" y="710"/>
      <point x="56" y="582"/>
      <point x="56" y="344" type="curve"/>
      <point x="56" y="116"/>
      <point x="130" y="-12"/>
      <point x="281" y="-12" type="curve"/>
      <point x="377" y="-12"/>
      <point x="416" y="39"/>
    </contour>
  </outline>
</glyph>
<glyph name="uni0122" format="1">
  <advance width="600"/>
  <unicode hex="0122"/>
  <outline>
    <contour>
      <point x="357" y="-62" type="line"/>
      <point x="248" y="-62" type="line"/>
      <point x="220" y="-251" type="line"/>
      <point x="281" y="-251" type="line"/>
    </contour>
    <contour>
      <point x="439" y="93" type="curve"/>
      <point x="444" y="93" type="line"/>
      <point x="444" y="0" type="line"/>
      <point x="522" y="0" type="line"/>
      <point x="522" y="345" type="line"/>
      <point x="297" y="345" type="line"/>
      <point x="297" y="278" type="line"/>
      <point x="444" y="278" type="line"/>
      <point x="444" y="206" type="line" smooth="yes"/>
      <point x="444" y="120"/>
      <point x="390" y="59"/>
      <point x="300" y="59" type="curve"/>
      <point x="186" y="59"/>
      <point x="145" y="158"/>
      <point x="145" y="298" type="curve"/>
      <point x="145" y="406" type="line" smooth="yes"/>
      <point x="145" y="546"/>
      <point x="196" y="637"/>
      <point x="308" y="637" type="curve"/>
      <point x="392" y="637"/>
      <point x="425" y="586"/>
      <point x="450" y="524" type="curve"/>
      <point x="522" y="557" type="line"/>
      <point x="492" y="633"/>
      <point x="436" y="710"/>
      <point x="305" y="710" type="curve"/>
      <point x="137" y="710"/>
      <point x="56" y="582"/>
      <point x="56" y="344" type="curve"/>
      <point x="56" y="116"/>
      <point x="130" y="-12"/>
      <point x="281" y="-12" type="curve"/>
      <point x="377" y="-12"/>
      <point x="416" y="39"/>
    </contour>
  </outline>
</glyph>
<glyph name="Hcircumflex" format="1">
  <advance width="600"/>
  <unicode hex="0124"/>
  <outline>
    <contour>
      <point x="461" y="792" type="line"/>
      <point x="350" y="935" type="line"/>
      <point x="250" y="935" type="line"/>
      <point x="139" y="792" type="line"/>
      <point x="182" y="761" type="line"/>
      <point x="299" y="878" type="line"/>
      <point x="416" y="761" type="line"/>
    </contour>
    <contour>
      <point x="164" y="317" type="line"/>
      <point x="436" y="317" type="line"/>
      <point x="436" y="0" type="line"/>
      <point x="520" y="0" type="line"/>
      <point x="520" y="698" type="line"/>
      <point x="436" y="698" type="line"/>
      <point x="436" y="390" type="line"/>
      <point x="164" y="390" type="line"/>
      <point x="164" y="698" type="line"/>
      <point x="80" y="698" type="line"/>
      <point x="80" y="0" type="line"/>
      <point x="164" y="0" type="line"/>
    </contour>
  </outline>
</glyph>
<glyph name="hcircumflex" format="1">
  <advance width="600"/>
  <unicode hex="0125"/>
  <outline>
    <contour>
      <point x="299" y="804" type="line"/>
      <point x="188" y="947" type="line"/>
      <point x="88" y="947" type="line"/>
      <point x="-23" y="804" type="line"/>
      <point x="20" y="773" type="line"/>
      <point x="137" y="890" type="line"/>
      <point x="254" y="773" type="line"/>
    </contour>
    <contour>
      <point x="178" y="740" type="line"/>
      <point x="98" y="740" type="line"/>
      <point x="98" y="0" type="line"/>
      <point x="178" y="0" type="line"/>
      <point x="178" y="358" type="line" smooth="yes"/>
      <point x="178" y="426"/>
      <point x="242" y="457"/>
      <point x="306" y="457" type="curve"/>
      <point x="385" y="457"/>
      <point x="428" y="411"/>
      <point x="428" y="317" type="curve"/>
      <point x="428" y="0" type="line"/>
      <point x="508" y="0" type="line"/>
      <point x="508" y="331" type="line" smooth="yes"/>
      <point x="508" y="456"/>
      <point x="437" y="528"/>
      <point x="329" y="528" type="curve"/>
      <point x="244" y="528"/>
      <point x="204" y="483"/>
      <point x="182" y="432" type="curve"/>
      <point x="178" y="432" type="line"/>
    </contour>
  </outline>
</glyph>
<glyph name="itilde" format="1">
  <advance width="600"/>
  <unicode hex="0129"/>
  <outline>
    <contour>
      <point x="405" y="612" type="curve"/>
      <point x="451" y="612"/>
      <point x="482" y="638"/>
      <point x="500" y="665" type="curve"/>
      <point x="467" y="705" type="line"/>
      <point x="447" y="688"/>
      <point x="431" y="678"/>
      <point x="409" y="678" type="curve"/>
      <point x="392" y="678"/>
      <point x="371" y="685"/>
      <point x="339" y="702" type="curve"/>
      <point x="318" y="713"/>
      <point x="294" y="728"/>
      <point x="259" y="728" type="curve"/>
      <point x="213" y="728"/>
      <point x="182" y="702"/>
      <point x="164" y="675" type="curve"/>
      <point x="197" y="635" type="line"/>
      <point x="217" y="652"/>
      <point x="233" y="662"/>
      <point x="255" y="662" type="curve"/>
      <point x="272" y="662"/>
      <point x="293" y="655"/>
      <point x="325" y="638" type="curve"/>
      <point x="346" y="627"/>
      <point x="370" y="612"/>
    </contour>
    <contour>
      <point x="292" y="68" type="line"/>
      <point x="106" y="68" type="line"/>
      <point x="106" y="0" type="line"/>
      <point x="546" y="0" type="line"/>
      <point x="546" y="68" type="line"/>
      <point x="372" y="68" type="line"/>
      <point x="372" y="516" type="line"/>
      <point x="106" y="516" type="line"/>
      <point x="106" y="448" type="line"/>
      <point x="292" y="448" type="line"/>
    </contour>
  </outline>
</glyph>
<glyph name="imacron" format="1">
  <advance width="600"/>
  <unicode hex="012B"/>
  <outline>
    <contour>
      <point x="472" y="705" type="line"/>
      <point x="192" y="705" type="line"/>
      <point x="192" y="637" type="line"/>
      <point x="472" y="637" type="line"/>
    </contour>
    <contour>
      <point x="292" y="68" type="line"/>
      <point x="106" y="68" type="line"/>
      <point x="106" y="0" type="line"/>
      <point x="546" y="0" type="line"/>
      <point x="546" y="68" type="line"/>
      <point x="372" y="68" type="line"/>
      <point x="372" y="516" type="line"/>
      <point x="106" y="516" type="line"/>
      <point x="106" y="448" type="line"/>
      <point x="292" y="448" type="line"/>
    </contour>
  </outline>
</glyph>
<glyph name="Ibreve" format="1">
  <advance width="600"/>
  <unicode hex="012C"/>
  <outline>
    <contour>
      <point x="300" y="765" type="curve"/>
      <point x="407" y="765"/>
      <point x="442" y="855"/>
      <point x="461" y="916" type="curve"/>
      <point x="410" y="938" type="line"/>
      <point x="389" y="904" type="line" smooth="yes"/>
      <point x="358" y="854"/>
      <point x="344" y="830"/>
      <point x="300" y="830" type="curve"/>
      <point x="256" y="830"/>
      <point x="242" y="854"/>
      <point x="211" y="904" type="curve"/>
      <point x="190" y="938" type="line"/>
      <point x="139" y="916" type="line"/>
      <point x="158" y="855"/>
      <point x="193" y="765"/>
    </contour>
    <contour>
      <point x="84" y="67" type="line"/>
      <point x="84" y="0" type="line"/>
      <point x="516" y="0" type="line"/>
      <point x="516" y="67" type="line"/>
      <point x="342" y="67" type="line"/>
      <point x="342" y="631" type="line"/>
      <point x="516" y="631" type="line"/>
      <point x="516" y="698" type="line"/>
      <point x="84" y="698" type="line"/>
      <point x="84" y="631" type="line"/>
      <point x="258" y="631" type="line"/>
      <point x="258" y="67" type="line"/>
    </contour>
  </outline>
</glyph>
<glyph name="ibreve" format="1">
  <advance width="600"/>
  <unicode hex="012D"/>
  <outline>
    <contour>
      <point x="332" y="595" type="curve"/>
      <point x="439" y="595"/>
      <point x="474" y="685"/>
      <point x="493" y="746" type="curve"/>
      <point x="442" y="768" type="line"/>
      <point x="421" y="734" type="line" smooth="yes"/>
      <point x="390" y="684"/>
      <point x="376" y="660"/>
      <point x="332" y="660" type="curve"/>
      <point x="288" y="660"/>
      <point x="274" y="684"/>
      <point x="243" y="734" type="curve"/>
      <point x="222" y="768" type="line"/>
      <point x="171" y="746" type="line"/>
      <point x="190" y="685"/>
      <point x="225" y="595"/>
    </contour>
    <contour>
      <point x="292" y="68" type="line"/>
      <point x="106" y="68" type="line"/>
      <point x="106" y="0" type="line"/>
      <point x="546" y="0" type="line"/>
      <point x="546" y="68" type="line"/>
      <point x="372" y="68" type="line"/>
      <point x="372" y="516" type="line"/>
      <point x="106" y="516" type="line"/>
      <point x="106" y="448" type="line"/>
      <point x="292" y="448" type="line"/>
    </contour>
  </outline>
</glyph>
<glyph name="iogonek" format="1">
  <advance width="600"/>
  <unicode hex="012F"/>
  <outline>
    <contour>
      <point x="474" y="-207" type="curve"/>
      <point x="524" y="-207"/>
      <point x="554" y="-188"/>
      <point x="567" y="-166" type="curve"/>
      <point x="527" y="-125" type="line"/>
      <point x="514" y="-141"/>
      <point x="497" y="-151"/>
      <point x="475" y="-151" type="curve"/>
      <point x="454" y="-151"/>
      <point x="433" y="-142"/>
      <point x="433" y="-114" type="curve"/>
      <point x="433" y="-94"/>
      <point x="443" y="-65"/>
      <point x="546" y="0" type="curve"/>
      <point x="546" y="68" type="line"/>
      <point x="372" y="68" type="line"/>
      <point x="372" y="516" type="line"/>
      <point x="106" y="516" type="line"/>
      <point x="106" y="448" type="line"/>
      <point x="292" y="448" type="line"/>
      <point x="292" y="68" type="line"/>
      <point x="106" y="68" type="line"/>
      <point x="106" y="0" type="line"/>
      <point x="479" y="0" type="line"/>
      <point x="480" y="-3" type="line"/>
      <point x="405" y="-39"/>
      <point x="365" y="-79"/>
      <point x="365" y="-127" type="curve"/>
      <point x="365" y="-180"/>
      <point x="413" y="-207"/>
    </contour>
    <contour>
      <point x="332" y="630" type="curve"/>
      <point x="378" y="630"/>
      <point x="395" y="652"/>
      <point x="395" y="681" type="curve"/>
      <point x="395" y="697" type="line" smooth="yes"/>
      <point x="395" y="726"/>
      <point x="378" y="748"/>
      <point x="332" y="748" type="curve"/>
      <point x="286" y="748"/>
      <point x="269" y="726"/>
      <point x="269" y="697" type="curve"/>
      <point x="269" y="681" type="line" smooth="yes"/>
      <point x="269" y="652"/>
      <point x="286" y="630"/>
    </contour>
  </outline>
</glyph>
<glyph name="Idotaccent" format="1">
  <advance width="600"/>
  <unicode hex="0130"/>
  <outline>
    <contour>
      <point x="300" y="782" type="curve"/>
      <point x="346" y="782"/>
      <point x="363" y="804"/>
      <point x="363" y="833" type="curve"/>
      <point x="363" y="849" type="line" smooth="yes"/>
      <point x="363" y="878"/>
      <point x="346" y="900"/>
      <point x="300" y="900" type="curve"/>
      <point x="254" y="900"/>
      <point x="237" y="878"/>
      <point x="237" y="849" type="curve"/>
      <point x="237" y="833" type="line" smooth="yes"/>
      <point x="237" y="804"/>
      <point x="254" y="782"/>
    </contour>
    <contour>
      <point x="84" y="67" type="line"/>
      <point x="84" y="0" type="line"/>
      <point x="516" y="0" type="line"/>
      <point x="516" y="67" type="line"/>
      <point x="342" y="67" type="line"/>
      <point x="342" y="631" type="line"/>
      <point x="516" y="631" type="line"/>
      <point x="516" y="698" type="line"/>
      <point x="84" y="698" type="line"/>
      <point x="84" y="631" type="line"/>
      <point x="258" y="631" type="line"/>
      <point x="258" y="67" type="line"/>
    </contour>
  </outline>
</glyph>
<glyph name="dotlessi" format="1">
  <advance width="600"/>
  <unicode hex="0131"/>
  <outline>
    <contour>
      <point x="292" y="68" type="line"/>
      <point x="106" y="68" type="line"/>
      <point x="106" y="0" type="line"/>
      <point x="546" y="0" type="line"/>
      <point x="546" y="68" type="line"/>
      <point x="372" y="68" type="line"/>
      <point x="372" y="516" type="line"/>
      <point x="106" y="516" type="line"/>
      <point x="106" y="448" type="line"/>
      <point x="292" y="448" type="line"/>
    </contour>
  </outline>
</glyph>
<glyph name="Jcircumflex" format="1">
  <advance width="600"/>
  <unicode hex="0134"/>
  <outline>
    <contour>
      <point x="474" y="792" type="line"/>
      <point x="363" y="935" type="line"/>
      <point x="263" y="935" type="line"/>
      <point x="152" y="792" type="line"/>
      <point x="195" y="761" type="line"/>
      <point x="312" y="878" type="line"/>
      <point x="429" y="761" type="line"/>
    </contour>
    <contour>
      <point x="480" y="181" type="curve"/>
      <point x="480" y="698" type="line"/>
      <point x="144" y="698" type="line"/>
      <point x="144" y="625" type="line"/>
      <point x="396" y="625" type="line"/>
      <point x="396" y="196" type="line" smooth="yes"/>
      <point x="396" y="105"/>
      <point x="352" y="62"/>
      <point x="276" y="62" type="curve"/>
      <point x="198" y="62"/>
      <point x="167" y="107"/>
      <point x="154" y="163" type="curve"/>
      <point x="74" y="146" type="line"/>
      <point x="95" y="46"/>
      <point x="168" y="-12"/>
      <point x="274" y="-12" type="curve"/>
      <point x="395" y="-12"/>
      <point x="480" y="63"/>
    </contour>
  </outline>
</glyph>
<glyph name="jcircumflex" format="1">
  <advance width="600"/>
  <unicode hex="0135"/>
  <outline>
    <contour>
      <point x="553" y="622" type="line"/>
      <point x="442" y="765" type="line"/>
      <point x="342" y="765" type="line"/>
      <point x="231" y="622" type="line"/>
      <point x="274" y="591" type="line"/>
      <point x="391" y="708" type="line"/>
      <point x="508" y="591" type="line"/>
    </contour>
    <contour>
      <point x="352" y="-132" type="line"/>
      <point x="102" y="-132" type="line"/>
      <point x="102" y="-200" type="line"/>
      <point x="318" y="-200" type="line" smooth="yes"/>
      <point x="396" y="-200"/>
      <point x="432" y="-151"/>
      <point x="432" y="-82" type="curve"/>
      <point x="432" y="516" type="line"/>
      <point x="93" y="516" type="line"/>
      <point x="93" y="448" type="line"/>
      <point x="352" y="448" type="line"/>
    </contour>
  </outline>
</glyph>
<glyph name="uni0136" format="1">
  <advance width="600"/>
  <unicode hex="0136"/>
  <outline>
    <contour>
      <point x="379" y="-62" type="line"/>
      <point x="270" y="-62" type="line"/>
      <point x="242" y="-251" type="line"/>
      <point x="303" y="-251" type="line"/>
    </contour>
    <contour>
      <point x="169" y="224" type="line"/>
      <point x="269" y="342" type="line"/>
      <point x="480" y="0" type="line"/>
      <point x="578" y="0" type="line"/>
      <point x="326" y="404" type="line"/>
      <point x="571" y="698" type="line"/>
      <point x="470" y="698" type="line"/>
      <point x="264" y="450" type="line"/>
      <point x="172" y="334" type="line"/>
      <point x="169" y="334" type="line"/>
      <point x="169" y="698" type="line"/>
      <point x="85" y="698" type="line"/>
      <point x="85" y="0" type="line"/>
      <point x="169" y="0" type="line"/>
    </contour>
  </outline>
</glyph>
<glyph name="uni0137" format="1">
  <advance width="600"/>
  <unicode hex="0137"/>
  <outline>
    <contour>
      <point x="380" y="-62" type="line"/>
      <point x="271" y="-62" type="line"/>
      <point x="243" y="-251" type="line"/>
      <point x="304" y="-251" type="line"/>
    </contour>
    <contour>
      <point x="185" y="740" type="line"/>
      <point x="105" y="740" type="line"/>
      <point x="105" y="0" type="line"/>
      <point x="185" y="0" type="line"/>
      <point x="185" y="187" type="line"/>
      <point x="274" y="268" type="line"/>
      <point x="475" y="0" type="line"/>
      <point x="574" y="0" type="line"/>
      <point x="335" y="314" type="line"/>
      <point x="549" y="516" type="line"/>
      <point x="451" y="516" type="line"/>
      <point x="279" y="358" type="line"/>
      <point x="189" y="273" type="line"/>
      <point x="185" y="273" type="line"/>
    </contour>
  </outline>
</glyph>
<glyph name="Lacute" format="1">
  <advance width="600"/>
  <unicode hex="0139"/>
  <outline>
    <contour>
      <point x="117" y="779" type="line"/>
      <point x="169" y="755" type="line"/>
      <point x="275" y="914" type="line"/>
      <point x="202" y="949" type="line"/>
    </contour>
    <contour>
      <point x="120" y="698" type="line"/>
      <point x="120" y="0" type="line"/>
      <point x="535" y="0" type="line"/>
      <point x="535" y="73" type="line"/>
      <point x="204" y="73" type="line"/>
      <point x="204" y="698" type="line"/>
    </contour>
  </outline>
</glyph>
<glyph name="uni013B" format="1">
  <advance width="600"/>
  <unicode hex="013B"/>
  <outline>
    <contour>
      <point x="384" y="-62" type="line"/>
      <point x="275" y="-62" type="line"/>
      <point x="247" y="-251" type="line"/>
      <point x="308" y="-251" type="line"/>
    </contour>
    <contour>
      <point x="120" y="698" type="line"/>
      <point x="120" y="0" type="line"/>
      <point x="535" y="0" type="line"/>
      <point x="535" y="73" type="line"/>
      <point x="204" y="73" type="line"/>
      <point x="204" y="698" type="line"/>
    </contour>
  </outline>
</glyph>
<glyph name="uni013C" format="1">
  <advance width="600"/>
  <unicode hex="013C"/>
  <outline>
    <contour>
      <point x="357" y="-62" type="line"/>
      <point x="248" y="-62" type="line"/>
      <point x="220" y="-251" type="line"/>
      <point x="281" y="-251" type="line"/>
    </contour>
    <contour>
      <point x="260" y="68" type="line"/>
      <point x="80" y="68" type="line"/>
      <point x="80" y="0" type="line"/>
      <point x="520" y="0" type="line"/>
      <point x="520" y="68" type="line"/>
      <point x="340" y="68" type="line"/>
      <point x="340" y="740" type="line"/>
      <point x="80" y="740" type="line"/>
      <point x="80" y="672" type="line"/>
      <point x="260" y="672" type="line"/>
    </contour>
  </outline>
</glyph>
<glyph name="Lcaron" format="1">
  <advance width="600"/>
  <unicode hex="013D"/>
  <outline>
    <contour>
      <point x="290" y="551" type="line"/>
      <point x="351" y="551" type="line"/>
      <point x="400" y="740" type="line"/>
      <point x="297" y="740" type="line"/>
    </contour>
    <contour>
      <point x="120" y="698" type="line"/>
      <point x="120" y="0" type="line"/>
      <point x="535" y="0" type="line"/>
      <point x="535" y="73" type="line"/>
      <point x="204" y="73" type="line"/>
      <point x="204" y="698" type="line"/>
    </contour>
  </outline>
</glyph>
<glyph name="lcaron" format="1">
  <advance width="600"/>
  <unicode hex="013E"/>
  <outline>
    <contour>
      <point x="426" y="551" type="line"/>
      <point x="487" y="551" type="line"/>
      <point x="536" y="740" type="line"/>
      <point x="433" y="740" type="line"/>
    </contour>
    <contour>
      <point x="260" y="68" type="line"/>
      <point x="80" y="68" type="line"/>
      <point x="80" y="0" type="line"/>
      <point x="520" y="0" type="line"/>
      <point x="520" y="68" type="line"/>
      <point x="340" y="68" type="line"/>
      <point x="340" y="740" type="line"/>
      <point x="80" y="740" type="line"/>
      <point x="80" y="672" type="line"/>
      <point x="260" y="672" type="line"/>
    </contour>
  </outline>
</glyph>
<glyph name="Ldot" format="1">
  <advance width="600"/>
  <unicode hex="013F"/>
  <outline>
    <contour>
      <point x="435" y="266" type="curve"/>
      <point x="481" y="266"/>
      <point x="498" y="288"/>
      <point x="498" y="317" type="curve"/>
      <point x="498" y="333" type="line" smooth="yes"/>
      <point x="498" y="362"/>
      <point x="481" y="384"/>
      <point x="435" y="384" type="curve"/>
      <point x="389" y="384"/>
      <point x="372" y="362"/>
      <point x="372" y="333" type="curve"/>
      <point x="372" y="317" type="line" smooth="yes"/>
      <point x="372" y="288"/>
      <point x="389" y="266"/>
    </contour>
    <contour>
      <point x="120" y="698" type="line"/>
      <point x="120" y="0" type="line"/>
      <point x="535" y="0" type="line"/>
      <point x="535" y="73" type="line"/>
      <point x="204" y="73" type="line"/>
      <point x="204" y="698" type="line"/>
    </contour>
  </outline>
</glyph>
<glyph name="ldot" format="1">
  <advance width="600"/>
  <unicode hex="0140"/>
  <outline>
    <contour>
      <point x="514" y="246" type="curve"/>
      <point x="560" y="246"/>
      <point x="577" y="268"/>
      <point x="577" y="297" type="curve"/>
      <point x="577" y="313" type="line" smooth="yes"/>
      <point x="577" y="342"/>
      <point x="560" y="364"/>
      <point x="514" y="364" type="curve"/>
      <point x="468" y="364"/>
      <point x="451" y="342"/>
      <point x="451" y="313" type="curve"/>
      <point x="451" y="297" type="line" smooth="yes"/>
      <point x="451" y="268"/>
      <point x="468" y="246"/>
    </contour>
    <contour>
      <point x="260" y="68" type="line"/>
      <point x="80" y="68" type="line"/>
      <point x="80" y="0" type="line"/>
      <point x="520" y="0" type="line"/>
      <point x="520" y="68" type="line"/>
      <point x="340" y="68" type="line"/>
      <point x="340" y="740" type="line"/>
      <point x="80" y="740" type="line"/>
      <point x="80" y="672" type="line"/>
      <point x="260" y="672" type="line"/>
    </contour>
  </outline>
</glyph>
<glyph name="Nacute" format="1">
  <advance width="600"/>
  <unicode hex="0143"/>
  <outline>
    <contour>
      <point x="255" y="779" type="line"/>
      <point x="307" y="755" type="line"/>
      <point x="413" y="914" type="line"/>
      <point x="340" y="949" type="line"/>
    </contour>
    <contour>
      <point x="156" y="591" type="line"/>
      <point x="163" y="591" type="line"/>
      <point x="401" y="0" type="line"/>
      <point x="520" y="0" type="line"/>
      <point x="520" y="698" type="line"/>
      <point x="444" y="698" type="line"/>
      <point x="444" y="113" type="line"/>
      <point x="437" y="113" type="line"/>
      <point x="199" y="698" type="line"/>
      <point x="80" y="698" type="line"/>
      <point x="80" y="0" type="line"/>
      <point x="156" y="0" type="line"/>
    </contour>
  </outline>
</glyph>
<glyph name="uni0145" format="1">
  <advance width="600"/>
  <unicode hex="0145"/>
  <outline>
    <contour>
      <point x="357" y="-62" type="line"/>
      <point x="248" y="-62" type="line"/>
      <point x="220" y="-251" type="line"/>
      <point x="281" y="-251" type="line"/>
    </contour>
    <contour>
      <point x="156" y="591" type="line"/>
      <point x="163" y="591" type="line"/>
      <point x="401" y="0" type="line"/>
      <point x="520" y="0" type="line"/>
      <point x="520" y="698" type="line"/>
      <point x="444" y="698" type="line"/>
      <point x="444" y="113" type="line"/>
      <point x="437" y="113" type="line"/>
      <point x="199" y="698" type="line"/>
      <point x="80" y="698" type="line"/>
      <point x="80" y="0" type="line"/>
      <point x="156" y="0" type="line"/>
    </contour>
  </outline>
</glyph>
<glyph name="uni0146" format="1">
  <advance width="600"/>
  <unicode hex="0146"/>
  <outline>
    <contour>
      <point x="360" y="-62" type="line"/>
      <point x="251" y="-62" type="line"/>
      <point x="223" y="-251" type="line"/>
      <point x="284" y="-251" type="line"/>
    </contour>
    <contour>
      <point x="98" y="516" type="line"/>
      <point x="98" y="0" type="line"/>
      <point x="178" y="0" type="line"/>
      <point x="178" y="358" type="line" smooth="yes"/>
      <point x="178" y="426"/>
      <point x="242" y="457"/>
      <point x="306" y="457" type="curve"/>
      <point x="385" y="457"/>
      <point x="428" y="411"/>
      <point x="428" y="317" type="curve"/>
      <point x="428" y="0" type="line"/>
      <point x="508" y="0" type="line"/>
      <point x="508" y="331" type="line" smooth="yes"/>
      <point x="508" y="456"/>
      <point x="437" y="528"/>
      <point x="329" y="528" type="curve"/>
      <point x="244" y="528"/>
      <point x="204" y="483"/>
      <point x="182" y="432" type="curve"/>
      <point x="178" y="432" type="line"/>
      <point x="178" y="516" type="line"/>
    </contour>
  </outline>
</glyph>
<glyph name="Ncaron" format="1">
  <advance width="600"/>
  <unicode hex="0147"/>
  <outline>
    <contour>
      <point x="139" y="912" type="line"/>
      <point x="250" y="769" type="line"/>
      <point x="350" y="769" type="line"/>
      <point x="461" y="912" type="line"/>
      <point x="418" y="943" type="line"/>
      <point x="301" y="826" type="line"/>
      <point x="184" y="943" type="line"/>
    </contour>
    <contour>
      <point x="156" y="591" type="line"/>
      <point x="163" y="591" type="line"/>
      <point x="401" y="0" type="line"/>
      <point x="520" y="0" type="line"/>
      <point x="520" y="698" type="line"/>
      <point x="444" y="698" type="line"/>
      <point x="444" y="113" type="line"/>
      <point x="437" y="113" type="line"/>
      <point x="199" y="698" type="line"/>
      <point x="80" y="698" type="line"/>
      <point x="80" y="0" type="line"/>
      <point x="156" y="0" type="line"/>
    </contour>
  </outline>
</glyph>
<glyph name="ncaron" format="1">
  <advance width="600"/>
  <unicode hex="0148"/>
  <outline>
    <contour>
      <point x="142" y="742" type="line"/>
      <point x="253" y="599" type="line"/>
      <point x="353" y="599" type="line"/>
      <point x="464" y="742" type="line"/>
      <point x="422" y="773" type="line"/>
      <point x="305" y="656" type="line"/>
      <point x="188" y="773" type="line"/>
    </contour>
    <contour>
      <point x="98" y="516" type="line"/>
      <point x="98" y="0" type="line"/>
      <point x="178" y="0" type="line"/>
      <point x="178" y="358" type="line" smooth="yes"/>
      <point x="178" y="426"/>
      <point x="242" y="457"/>
      <point x="306" y="457" type="curve"/>
      <point x="385" y="457"/>
      <point x="428" y="411"/>
      <point x="428" y="317" type="curve"/>
      <point x="428" y="0" type="line"/>
      <point x="508" y="0" type="line"/>
      <point x="508" y="331" type="line" smooth="yes"/>
      <point x="508" y="456"/>
      <point x="437" y="528"/>
      <point x="329" y="528" type="curve"/>
      <point x="244" y="528"/>
      <point x="204" y="483"/>
      <point x="182" y="432" type="curve"/>
      <point x="178" y="432" type="line"/>
      <point x="178" y="516" type="line"/>
    </contour>
  </outline>
</glyph>
<glyph name="Obreve" format="1">
  <advance width="600"/>
  <unicode hex="014E"/>
  <outline>
    <contour>
      <point x="300" y="765" type="curve"/>
      <point x="407" y="765"/>
      <point x="442" y="855"/>
      <point x="461" y="916" type="curve"/>
      <point x="410" y="938" type="line"/>
      <point x="389" y="904" type="line" smooth="yes"/>
      <point x="358" y="854"/>
      <point x="344" y="830"/>
      <point x="300" y="830" type="curve"/>
      <point x="256" y="830"/>
      <point x="242" y="854"/>
      <point x="211" y="904" type="curve"/>
      <point x="190" y="938" type="line"/>
      <point x="139" y="916" type="line"/>
      <point x="158" y="855"/>
      <point x="193" y="765"/>
    </contour>
    <contour>
      <point x="300" y="-12" type="curve"/>
      <point x="470" y="-12"/>
      <point x="544" y="121"/>
      <point x="544" y="349" type="curve"/>
      <point x="544" y="577"/>
      <point x="470" y="710"/>
      <point x="300" y="710" type="curve"/>
      <point x="130" y="710"/>
      <point x="56" y="577"/>
      <point x="56" y="349" type="curve"/>
      <point x="56" y="121"/>
      <point x="130" y="-12"/>
    </contour>
    <contour>
      <point x="300" y="61" type="curve"/>
      <point x="189" y="61"/>
      <point x="145" y="152"/>
      <point x="145" y="292" type="curve"/>
      <point x="145" y="406" type="line" smooth="yes"/>
      <point x="145" y="546"/>
      <point x="189" y="637"/>
      <point x="300" y="637" type="curve"/>
      <point x="411" y="637"/>
      <point x="455" y="546"/>
      <point x="455" y="406" type="curve"/>
      <point x="455" y="292" type="line" smooth="yes"/>
      <point x="455" y="152"/>
      <point x="411" y="61"/>
    </contour>
  </outline>
</glyph>
<glyph name="obreve" format="1">
  <advance width="600"/>
  <unicode hex="014F"/>
  <outline>
    <contour>
      <point x="300" y="595" type="curve"/>
      <point x="407" y="595"/>
      <point x="442" y="685"/>
      <point x="461" y="746" type="curve"/>
      <point x="410" y="768" type="line"/>
      <point x="389" y="734" type="line" smooth="yes"/>
      <point x="358" y="684"/>
      <point x="344" y="660"/>
      <point x="300" y="660" type="curve"/>
      <point x="256" y="660"/>
      <point x="242" y="684"/>
      <point x="211" y="734" type="curve"/>
      <point x="190" y="768" type="line"/>
      <point x="139" y="746" type="line"/>
      <point x="158" y="685"/>
      <point x="193" y="595"/>
    </contour>
    <contour>
      <point x="300" y="-12" type="curve"/>
      <point x="445" y="-12"/>
      <point x="534" y="94"/>
      <point x="534" y="258" type="curve"/>
      <point x="534" y="422"/>
      <point x="445" y="528"/>
      <point x="300" y="528" type="curve"/>
      <point x="155" y="528"/>
      <point x="66" y="422"/>
      <point x="66" y="258" type="curve"/>
      <point x="66" y="94"/>
      <point x="155" y="-12"/>
    </contour>
    <contour>
      <point x="300" y="57" type="curve"/>
      <point x="211" y="57"/>
      <point x="151" y="110"/>
      <point x="151" y="221" type="curve"/>
      <point x="151" y="295" type="line" smooth="yes"/>
      <point x="151" y="406"/>
      <point x="211" y="459"/>
      <point x="300" y="459" type="curve"/>
      <point x="389" y="459"/>
      <point x="449" y="406"/>
      <point x="449" y="295" type="curve"/>
      <point x="449" y="221" type="line" smooth="yes"/>
      <point x="449" y="110"/>
      <point x="389" y="57"/>
    </contour>
  </outline>
</glyph>
<glyph name="Ohungarumlaut" format="1">
  <advance width="600"/>
  <unicode hex="0150"/>
  <outline>
    <contour>
      <point x="179" y="778" type="line"/>
      <point x="227" y="756" type="line"/>
      <point x="333" y="915" type="line"/>
      <point x="264" y="948" type="line"/>
    </contour>
    <contour>
      <point x="339" y="778" type="line"/>
      <point x="387" y="756" type="line"/>
      <point x="493" y="915" type="line"/>
      <point x="424" y="948" type="line"/>
    </contour>
    <contour>
      <point x="300" y="-12" type="curve"/>
      <point x="470" y="-12"/>
      <point x="544" y="121"/>
      <point x="544" y="349" type="curve"/>
      <point x="544" y="577"/>
      <point x="470" y="710"/>
      <point x="300" y="710" type="curve"/>
      <point x="130" y="710"/>
      <point x="56" y="577"/>
      <point x="56" y="349" type="curve"/>
      <point x="56" y="121"/>
      <point x="130" y="-12"/>
    </contour>
    <contour>
      <point x="300" y="61" type="curve"/>
      <point x="189" y="61"/>
      <point x="145" y="152"/>
      <point x="145" y="292" type="curve"/>
      <point x="145" y="406" type="line" smooth="yes"/>
      <point x="145" y="546"/>
      <point x="189" y="637"/>
      <point x="300" y="637" type="curve"/>
      <point x="411" y="637"/>
      <point x="455" y="546"/>
      <point x="455" y="406" type="curve"/>
      <point x="455" y="292" type="line" smooth="yes"/>
      <point x="455" y="152"/>
      <point x="411" y="61"/>
    </contour>
  </outline>
</glyph>
<glyph name="ohungarumlaut" format="1">
  <advance width="600"/>
  <unicode hex="0151"/>
  <outline>
    <contour>
      <point x="179" y="608" type="line"/>
      <point x="227" y="586" type="line"/>
      <point x="333" y="745" type="line"/>
      <point x="264" y="778" type="line"/>
    </contour>
    <contour>
      <point x="339" y="608" type="line"/>
      <point x="387" y="586" type="line"/>
      <point x="493" y="745" type="line"/>
      <point x="424" y="778" type="line"/>
    </contour>
    <contour>
      <point x="300" y="-12" type="curve"/>
      <point x="445" y="-12"/>
      <point x="534" y="94"/>
      <point x="534" y="258" type="curve"/>
      <point x="534" y="422"/>
      <point x="445" y="528"/>
      <point x="300" y="528" type="curve"/>
      <point x="155" y="528"/>
      <point x="66" y="422"/>
      <point x="66" y="258" type="curve"/>
      <point x="66" y="94"/>
      <point x="155" y="-12"/>
    </contour>
    <contour>
      <point x="300" y="57" type="curve"/>
      <point x="211" y="57"/>
      <point x="151" y="110"/>
      <point x="151" y="221" type="curve"/>
      <point x="151" y="295" type="line" smooth="yes"/>
      <point x="151" y="406"/>
      <point x="211" y="459"/>
      <point x="300" y="459" type="curve"/>
      <point x="389" y="459"/>
      <point x="449" y="406"/>
      <point x="449" y="295" type="curve"/>
      <point x="449" y="221" type="line" smooth="yes"/>
      <point x="449" y="110"/>
      <point x="389" y="57"/>
    </contour>
  </outline>
</glyph>
<glyph name="OE" format="1">
  <advance width="900"/>
  <unicode hex="0152"/>
  <outline>
    <contour>
      <point x="465" y="0" type="curve"/>
      <point x="861" y="0" type="line"/>
      <point x="861" y="74" type="line"/>
      <point x="548" y="74" type="line"/>
      <point x="548" y="316" type="line"/>
      <point x="841" y="316" type="line"/>
      <point x="841" y="390" type="line"/>
      <point x="548" y="390" type="line"/>
      <point x="548" y="624" type="line"/>
      <point x="861" y="624" type="line"/>
      <point x="861" y="698" type="line"/>
      <point x="465" y="698" type="line"/>
      <point x="428" y="705"/>
      <point x="376" y="710"/>
      <point x="337" y="710" type="curve"/>
      <point x="144" y="710"/>
      <point x="28" y="584"/>
      <point x="28" y="349" type="curve"/>
      <point x="28" y="114"/>
      <point x="144" y="-12"/>
      <point x="337" y="-12" type="curve"/>
      <point x="376" y="-12"/>
      <point x="428" y="-7"/>
    </contour>
    <contour>
      <point x="347" y="63" type="curve"/>
      <point x="191" y="63"/>
      <point x="118" y="153"/>
      <point x="118" y="291" type="curve"/>
      <point x="118" y="407" type="line" smooth="yes"/>
      <point x="118" y="545"/>
      <point x="191" y="635"/>
      <point x="347" y="635" type="curve"/>
      <point x="384" y="635"/>
      <point x="428" y="629"/>
      <point x="464" y="617" type="curve"/>
      <point x="464" y="81" type="line"/>
      <point x="428" y="69"/>
      <point x="384" y="63"/>
    </contour>
  </outline>
</glyph>
<glyph name="Racute" format="1">
  <advance width="600"/>
  <unicode hex="0154"/>
  <outline>
    <contour>
      <point x="263" y="779" type="line"/>
      <point x="315" y="755" type="line"/>
      <point x="421" y="914" type="line"/>
      <point x="348" y="949" type="line"/>
    </contour>
    <contour>
      <point x="90" y="0" type="line"/>
      <point x="174" y="0" type="line"/>
      <point x="174" y="298" type="line"/>
      <point x="285" y="298" type="line"/>
      <point x="455" y="0" type="line"/>
      <point x="549" y="0" type="line"/>
      <point x="371" y="302" type="line"/>
      <point x="482" y="313"/>
      <point x="543" y="385"/>
      <point x="543" y="497" type="curve"/>
      <point x="543" y="623"/>
      <point x="473" y="698"/>
      <point x="344" y="698" type="curve"/>
      <point x="90" y="698" type="line"/>
    </contour>
    <contour>
      <point x="342" y="369" type="curve"/>
      <point x="174" y="369" type="line"/>
      <point x="174" y="625" type="line"/>
      <point x="342" y="625" type="line" smooth="yes"/>
      <point x="412" y="625"/>
      <point x="454" y="588"/>
      <point x="454" y="523" type="curve"/>
      <point x="454" y="471" type="line" smooth="yes"/>
      <point x="454" y="406"/>
      <point x="412" y="369"/>
    </contour>
  </outline>
</glyph>
<glyph name="Rcaron" format="1">
  <advance width="600"/>
  <unicode hex="0158"/>
  <outline>
    <contour>
      <point x="147" y="912" type="line"/>
      <point x="258" y="769" type="line"/>
      <point x="358" y="769" type="line"/>
      <point x="469" y="912" type="line"/>
      <point x="426" y="943" type="line"/>
      <point x="309" y="826" type="line"/>
      <point x="192" y="943" type="line"/>
    </contour>
    <contour>
      <point x="90" y="0" type="line"/>
      <point x="174" y="0" type="line"/>
      <point x="174" y="298" type="line"/>
      <point x="285" y="298" type="line"/>
      <point x="455" y="0" type="line"/>
      <point x="549" y="0" type="line"/>
      <point x="371" y="302" type="line"/>
      <point x="482" y="313"/>
      <point x="543" y="385"/>
      <point x="543" y="497" type="curve"/>
      <point x="543" y="623"/>
      <point x="473" y="698"/>
      <point x="344" y="698" type="curve"/>
      <point x="90" y="698" type="line"/>
    </contour>
    <contour>
      <point x="342" y="369" type="curve"/>
      <point x="174" y="369" type="line"/>
      <point x="174" y="625" type="line"/>
      <point x="342" y="625" type="line" smooth="yes"/>
      <point x="412" y="625"/>
      <point x="454" y="588"/>
      <point x="454" y="523" type="curve"/>
      <point x="454" y="471" type="line" smooth="yes"/>
      <point x="454" y="406"/>
      <point x="412" y="369"/>
    </contour>
  </outline>
</glyph>
<glyph name="rcaron" format="1">
  <advance width="600"/>
  <unicode hex="0159"/>
  <outline>
    <contour>
      <point x="192" y="742" type="line"/>
      <point x="303" y="599" type="line"/>
      <point x="403" y="599" type="line"/>
      <point x="514" y="742" type="line"/>
      <point x="472" y="773" type="line"/>
      <point x="355" y="656" type="line"/>
      <point x="238" y="773" type="line"/>
    </contour>
    <contour>
      <point x="228" y="68" type="line"/>
      <point x="77" y="68" type="line"/>
      <point x="77" y="0" type="line"/>
      <point x="508" y="0" type="line"/>
      <point x="508" y="68" type="line"/>
      <point x="308" y="68" type="line"/>
      <point x="308" y="351" type="line" smooth="yes"/>
      <point x="308" y="400"/>
      <point x="362" y="436"/>
      <point x="452" y="436" type="curve"/>
      <point x="559" y="436" type="line"/>
      <point x="559" y="516" type="line"/>
      <point x="468" y="516" type="line" smooth="yes"/>
      <point x="382" y="516"/>
      <point x="333" y="473"/>
      <point x="313" y="424" type="curve"/>
      <point x="308" y="424" type="line"/>
      <point x="308" y="516" type="line"/>
      <point x="77" y="516" type="line"/>
      <point x="77" y="448" type="line"/>
      <point x="228" y="448" type="line"/>
    </contour>
  </outline>
</glyph>
<glyph name="uni0162" format="1">
  <advance width="600"/>
  <unicode hex="0162"/>
  <outline>
    <contour>
      <point x="357" y="-62" type="line"/>
      <point x="248" y="-62" type="line"/>
      <point x="220" y="-251" type="line"/>
      <point x="281" y="-251" type="line"/>
    </contour>
    <contour>
      <point x="342" y="0" type="line"/>
      <point x="342" y="625" type="line"/>
      <point x="575" y="625" type="line"/>
      <point x="575" y="698" type="line"/>
      <point x="25" y="698" type="line"/>
      <point x="25" y="625" type="line"/>
      <point x="258" y="625" type="line"/>
      <point x="258" y="0" type="line"/>
    </contour>
  </outline>
</glyph>
<glyph name="Tcaron" format="1">
  <advance width="600"/>
  <unicode hex="0164"/>
  <outline>
    <contour>
      <point x="139" y="912" type="line"/>
      <point x="250" y="769" type="line"/>
      <point x="350" y="769" type="line"/>
      <point x="461" y="912" type="line"/>
      <point x="418" y="943" type="line"/>
      <point x="301" y="826" type="line"/>
      <point x="184" y="943" type="line"/>
    </contour>
    <contour>
      <point x="342" y="0" type="line"/>
      <point x="342" y="625" type="line"/>
      <point x="575" y="625" type="line"/>
      <point x="575" y="698" type="line"/>
      <point x="25" y="698" type="line"/>
      <point x="25" y="625" type="line"/>
      <point x="258" y="625" type="line"/>
      <point x="258" y="0" type="line"/>
    </contour>
  </outline>
</glyph>
<glyph name="tcaron" format="1">
  <advance width="600"/>
  <unicode hex="0165"/>
  <outline>
    <contour>
      <point x="387" y="571" type="line"/>
      <point x="448" y="571" type="line"/>
      <point x="497" y="760" type="line"/>
      <point x="394" y="760" type="line"/>
    </contour>
    <contour>
      <point x="325" y="0" type="curve"/>
      <point x="526" y="0" type="line"/>
      <point x="526" y="68" type="line"/>
      <point x="291" y="68" type="line"/>
      <point x="291" y="448" type="line"/>
      <point x="526" y="448" type="line"/>
      <point x="526" y="516" type="line"/>
      <point x="291" y="516" type="line"/>
      <point x="291" y="698" type="line"/>
      <point x="214" y="698" type="line"/>
      <point x="214" y="563" type="line" smooth="yes"/>
      <point x="214" y="528"/>
      <point x="201" y="516"/>
      <point x="167" y="516" type="curve"/>
      <point x="39" y="516" type="line"/>
      <point x="39" y="448" type="line"/>
      <point x="211" y="448" type="line"/>
      <point x="211" y="118" type="line" smooth="yes"/>
      <point x="211" y="49"/>
      <point x="247" y="0"/>
    </contour>
  </outline>
</glyph>
<glyph name="tbar" format="1">
  <advance width="600"/>
  <unicode hex="0167"/>
  <outline>
    <contour>
      <point x="325" y="0" type="curve"/>
      <point x="524" y="0" type="line"/>
      <point x="524" y="68" type="line"/>
      <point x="291" y="68" type="line"/>
      <point x="291" y="247" type="line"/>
      <point x="464" y="247" type="line"/>
      <point x="464" y="309" type="line"/>
      <point x="291" y="309" type="line"/>
      <point x="291" y="448" type="line"/>
      <point x="526" y="448" type="line"/>
      <point x="526" y="516" type="line"/>
      <point x="291" y="516" type="line"/>
      <point x="291" y="698" type="line"/>
      <point x="214" y="698" type="line"/>
      <point x="214" y="563" type="line" smooth="yes"/>
      <point x="214" y="528"/>
      <point x="201" y="516"/>
      <point x="167" y="516" type="curve"/>
      <point x="39" y="516" type="line"/>
      <point x="39" y="448" type="line"/>
      <point x="211" y="448" type="line"/>
      <point x="211" y="309" type="line"/>
      <point x="102" y="309" type="line"/>
      <point x="102" y="247" type="line"/>
      <point x="211" y="247" type="line"/>
      <point x="211" y="118" type="line" smooth="yes"/>
      <point x="211" y="49"/>
      <point x="247" y="0"/>
    </contour>
  </outline>
</glyph>
<glyph name="utilde" format="1">
  <advance width="600"/>
  <unicode hex="0169"/>
  <outline>
    <contour>
      <point x="370" y="612" type="curve"/>
      <point x="416" y="612"/>
      <point x="447" y="638"/>
      <point x="465" y="665" type="curve"/>
      <point x="432" y="705" type="line"/>
      <point x="412" y="688"/>
      <point x="396" y="678"/>
      <point x="374" y="678" type="curve"/>
      <point x="357" y="678"/>
      <point x="336" y="685"/>
      <point x="304" y="702" type="curve"/>
      <point x="283" y="713"/>
      <point x="259" y="728"/>
      <point x="224" y="728" type="curve"/>
      <point x="178" y="728"/>
      <point x="147" y="702"/>
      <point x="129" y="675" type="curve"/>
      <point x="162" y="635" type="line"/>
      <point x="182" y="652"/>
      <point x="198" y="662"/>
      <point x="220" y="662" type="curve"/>
      <point x="237" y="662"/>
      <point x="258" y="655"/>
      <point x="290" y="638" type="curve"/>
      <point x="311" y="627"/>
      <point x="335" y="612"/>
    </contour>
    <contour>
      <point x="418" y="84" type="curve"/>
      <point x="422" y="84" type="line"/>
      <point x="422" y="0" type="line"/>
      <point x="502" y="0" type="line"/>
      <point x="502" y="516" type="line"/>
      <point x="422" y="516" type="line"/>
      <point x="422" y="158" type="line" smooth="yes"/>
      <point x="422" y="90"/>
      <point x="358" y="59"/>
      <point x="294" y="59" type="curve"/>
      <point x="215" y="59"/>
      <point x="172" y="105"/>
      <point x="172" y="199" type="curve"/>
      <point x="172" y="516" type="line"/>
      <point x="92" y="516" type="line"/>
      <point x="92" y="185" type="line" smooth="yes"/>
      <point x="92" y="60"/>
      <point x="163" y="-12"/>
      <point x="271" y="-12" type="curve"/>
      <point x="356" y="-12"/>
      <point x="396" y="33"/>
    </contour>
  </outline>
</glyph>
<glyph name="Ubreve" format="1">
  <advance width="600"/>
  <unicode hex="016C"/>
  <outline>
    <contour>
      <point x="300" y="765" type="curve"/>
      <point x="407" y="765"/>
      <point x="442" y="855"/>
      <point x="461" y="916" type="curve"/>
      <point x="410" y="938" type="line"/>
      <point x="389" y="904" type="line" smooth="yes"/>
      <point x="358" y="854"/>
      <point x="344" y="830"/>
      <point x="300" y="830" type="curve"/>
      <point x="256" y="830"/>
      <point x="242" y="854"/>
      <point x="211" y="904" type="curve"/>
      <point x="190" y="938" type="line"/>
      <point x="139" y="916" type="line"/>
      <point x="158" y="855"/>
      <point x="193" y="765"/>
    </contour>
    <contour>
      <point x="164" y="279" type="curve"/>
      <point x="164" y="698" type="line"/>
      <point x="80" y="698" type="line"/>
      <point x="80" y="299" type="line" smooth="yes"/>
      <point x="80" y="92"/>
      <point x="110" y="-12"/>
      <point x="300" y="-12" type="curve"/>
      <point x="490" y="-12"/>
      <point x="520" y="92"/>
      <point x="520" y="299" type="curve"/>
      <point x="520" y="698" type="line"/>
      <point x="436" y="698" type="line"/>
      <point x="436" y="279" type="line" smooth="yes"/>
      <point x="436" y="144"/>
      <point x="431" y="61"/>
      <point x="300" y="61" type="curve"/>
      <point x="169" y="61"/>
      <point x="164" y="144"/>
    </contour>
  </outline>
</glyph>
<glyph name="ubreve" format="1">
  <advance width="600"/>
  <unicode hex="016D"/>
  <outline>
    <contour>
      <point x="297" y="595" type="curve"/>
      <point x="404" y="595"/>
      <point x="439" y="685"/>
      <point x="458" y="746" type="curve"/>
      <point x="407" y="768" type="line"/>
      <point x="386" y="734" type="line" smooth="yes"/>
      <point x="355" y="684"/>
      <point x="341" y="660"/>
      <point x="297" y="660" type="curve"/>
      <point x="253" y="660"/>
      <point x="239" y="684"/>
      <point x="208" y="734" type="curve"/>
      <point x="187" y="768" type="line"/>
      <point x="136" y="746" type="line"/>
      <point x="155" y="685"/>
      <point x="190" y="595"/>
    </contour>
    <contour>
      <point x="418" y="84" type="curve"/>
      <point x="422" y="84" type="line"/>
      <point x="422" y="0" type="line"/>
      <point x="502" y="0" type="line"/>
      <point x="502" y="516" type="line"/>
      <point x="422" y="516" type="line"/>
      <point x="422" y="158" type="line" smooth="yes"/>
      <point x="422" y="90"/>
      <point x="358" y="59"/>
      <point x="294" y="59" type="curve"/>
      <point x="215" y="59"/>
      <point x="172" y="105"/>
      <point x="172" y="199" type="curve"/>
      <point x="172" y="516" type="line"/>
      <point x="92" y="516" type="line"/>
      <point x="92" y="185" type="line" smooth="yes"/>
      <point x="92" y="60"/>
      <point x="163" y="-12"/>
      <point x="271" y="-12" type="curve"/>
      <point x="356" y="-12"/>
      <point x="396" y="33"/>
    </contour>
  </outline>
</glyph>
<glyph name="Uring" format="1">
  <advance width="600"/>
  <unicode hex="016E"/>
  <outline>
    <contour>
      <point x="300" y="746" type="curve"/>
      <point x="365" y="746"/>
      <point x="416" y="795"/>
      <point x="416" y="861" type="curve"/>
      <point x="416" y="927"/>
      <point x="365" y="976"/>
      <point x="300" y="976" type="curve"/>
      <point x="235" y="976"/>
      <point x="184" y="927"/>
      <point x="184" y="861" type="curve"/>
      <point x="184" y="795"/>
      <point x="235" y="746"/>
    </contour>
    <contour>
      <point x="300" y="795" type="curve"/>
      <point x="264" y="795"/>
      <point x="242" y="815"/>
      <point x="242" y="850" type="curve"/>
      <point x="242" y="872" type="line" smooth="yes"/>
      <point x="242" y="907"/>
      <point x="264" y="927"/>
      <point x="300" y="927" type="curve"/>
      <point x="336" y="927"/>
      <point x="358" y="907"/>
      <point x="358" y="872" type="curve"/>
      <point x="358" y="850" type="line" smooth="yes"/>
      <point x="358" y="815"/>
      <point x="336" y="795"/>
    </contour>
    <contour>
      <point x="164" y="279" type="curve"/>
      <point x="164" y="698" type="line"/>
      <point x="80" y="698" type="line"/>
      <point x="80" y="299" type="line" smooth="yes"/>
      <point x="80" y="92"/>
      <point x="110" y="-12"/>
      <point x="300" y="-12" type="curve"/>
      <point x="490" y="-12"/>
      <point x="520" y="92"/>
      <point x="520" y="299" type="curve"/>
      <point x="520" y="698" type="line"/>
      <point x="436" y="698" type="line"/>
      <point x="436" y="279" type="line" smooth="yes"/>
      <point x="436" y="144"/>
      <point x="431" y="61"/>
      <point x="300" y="61" type="curve"/>
      <point x="169" y="61"/>
      <point x="164" y="144"/>
    </contour>
  </outline>
</glyph>
<glyph name="uring" format="1">
  <advance width="600"/>
  <unicode hex="016F"/>
  <outline>
    <contour>
      <point x="297" y="576" type="curve"/>
      <point x="362" y="576"/>
      <point x="413" y="625"/>
      <point x="413" y="691" type="curve"/>
      <point x="413" y="757"/>
      <point x="362" y="806"/>
      <point x="297" y="806" type="curve"/>
      <point x="232" y="806"/>
      <point x="181" y="757"/>
      <point x="181" y="691" type="curve"/>
      <point x="181" y="625"/>
      <point x="232" y="576"/>
    </contour>
    <contour>
      <point x="297" y="625" type="curve"/>
      <point x="261" y="625"/>
      <point x="239" y="645"/>
      <point x="239" y="680" type="curve"/>
      <point x="239" y="702" type="line" smooth="yes"/>
      <point x="239" y="737"/>
      <point x="261" y="757"/>
      <point x="297" y="757" type="curve"/>
      <point x="333" y="757"/>
      <point x="355" y="737"/>
      <point x="355" y="702" type="curve"/>
      <point x="355" y="680" type="line" smooth="yes"/>
      <point x="355" y="645"/>
      <point x="333" y="625"/>
    </contour>
    <contour>
      <point x="418" y="84" type="curve"/>
      <point x="422" y="84" type="line"/>
      <point x="422" y="0" type="line"/>
      <point x="502" y="0" type="line"/>
      <point x="502" y="516" type="line"/>
      <point x="422" y="516" type="line"/>
      <point x="422" y="158" type="line" smooth="yes"/>
      <point x="422" y="90"/>
      <point x="358" y="59"/>
      <point x="294" y="59" type="curve"/>
      <point x="215" y="59"/>
      <point x="172" y="105"/>
      <point x="172" y="199" type="curve"/>
      <point x="172" y="516" type="line"/>
      <point x="92" y="516" type="line"/>
      <point x="92" y="185" type="line" smooth="yes"/>
      <point x="92" y="60"/>
      <point x="163" y="-12"/>
      <point x="271" y="-12" type="curve"/>
      <point x="356" y="-12"/>
      <point x="396" y="33"/>
    </contour>
  </outline>
</glyph>
<glyph name="Uhungarumlaut" format="1">
  <advance width="600"/>
  <unicode hex="0170"/>
  <outline>
    <contour>
      <point x="179" y="778" type="line"/>
      <point x="227" y="756" type="line"/>
      <point x="333" y="915" type="line"/>
      <point x="264" y="948" type="line"/>
    </contour>
    <contour>
      <point x="339" y="778" type="line"/>
      <point x="387" y="756" type="line"/>
      <point x="493" y="915" type="line"/>
      <point x="424" y="948" type="line"/>
    </contour>
    <contour>
      <point x="164" y="279" type="curve"/>
      <point x="164" y="698" type="line"/>
      <point x="80" y="698" type="line"/>
      <point x="80" y="299" type="line" smooth="yes"/>
      <point x="80" y="92"/>
      <point x="110" y="-12"/>
      <point x="300" y="-12" type="curve"/>
      <point x="490" y="-12"/>
      <point x="520" y="92"/>
      <point x="520" y="299" type="curve"/>
      <point x="520" y="698" type="line"/>
      <point x="436" y="698" type="line"/>
      <point x="436" y="279" type="line" smooth="yes"/>
      <point x="436" y="144"/>
      <point x="431" y="61"/>
      <point x="300" y="61" type="curve"/>
      <point x="169" y="61"/>
      <point x="164" y="144"/>
    </contour>
  </outline>
</glyph>
<glyph name="uhungarumlaut" format="1">
  <advance width="600"/>
  <unicode hex="0171"/>
  <outline>
    <contour>
      <point x="176" y="608" type="line"/>
      <point x="224" y="586" type="line"/>
      <point x="330" y="745" type="line"/>
      <point x="261" y="778" type="line"/>
    </contour>
    <contour>
      <point x="336" y="608" type="line"/>
      <point x="384" y="586" type="line"/>
      <point x="490" y="745" type="line"/>
      <point x="421" y="778" type="line"/>
    </contour>
    <contour>
      <point x="418" y="84" type="curve"/>
      <point x="422" y="84" type="line"/>
      <point x="422" y="0" type="line"/>
      <point x="502" y="0" type="line"/>
      <point x="502" y="516" type="line"/>
      <point x="422" y="516" type="line"/>
      <point x="422" y="158" type="line" smooth="yes"/>
      <point x="422" y="90"/>
      <point x="358" y="59"/>
      <point x="294" y="59" type="curve"/>
      <point x="215" y="59"/>
      <point x="172" y="105"/>
      <point x="172" y="199" type="curve"/>
      <point x="172" y="516" type="line"/>
      <point x="92" y="516" type="line"/>
      <point x="92" y="185" type="line" smooth="yes"/>
      <point x="92" y="60"/>
      <point x="163" y="-12"/>
      <point x="271" y="-12" type="curve"/>
      <point x="356" y="-12"/>
      <point x="396" y="33"/>
    </contour>
  </outline>
</glyph>
<glyph name="Wcircumflex" format="1">
  <advance width="900"/>
  <unicode hex="0174"/>
  <outline>
    <contour>
      <point x="611" y="792" type="line"/>
      <point x="500" y="935" type="line"/>
      <point x="400" y="935" type="line"/>
      <point x="289" y="792" type="line"/>
      <point x="332" y="761" type="line"/>
      <point x="449" y="878" type="line"/>
      <point x="566" y="761" type="line"/>
    </contour>
    <component base="W"/>
  </outline>
</glyph>
<glyph name="wcircumflex" format="1">
  <advance width="900"/>
  <unicode hex="0175"/>
  <outline>
    <contour>
      <point x="611" y="622" type="line"/>
      <point x="500" y="765" type="line"/>
      <point x="400" y="765" type="line"/>
      <point x="289" y="622" type="line"/>
      <point x="332" y="591" type="line"/>
      <point x="449" y="708" type="line"/>
      <point x="566" y="591" type="line"/>
    </contour>
    <component base="w"/>
  </outline>
</glyph>
<glyph name="Ydieresis" format="1">
  <advance width="600"/>
  <unicode hex="0178"/>
  <outline>
    <contour>
      <point x="207" y="788" type="curve"/>
      <point x="248" y="788"/>
      <point x="264" y="808"/>
      <point x="264" y="834" type="curve"/>
      <point x="264" y="848" type="line" smooth="yes"/>
      <point x="264" y="874"/>
      <point x="248" y="894"/>
      <point x="207" y="894" type="curve"/>
      <point x="166" y="894"/>
      <point x="150" y="874"/>
      <point x="150" y="848" type="curve"/>
      <point x="150" y="834" type="line" smooth="yes"/>
      <point x="150" y="808"/>
      <point x="166" y="788"/>
    </contour>
    <contour>
      <point x="393" y="788" type="curve"/>
      <point x="434" y="788"/>
      <point x="450" y="808"/>
      <point x="450" y="834" type="curve"/>
      <point x="450" y="848" type="line" smooth="yes"/>
      <point x="450" y="874"/>
      <point x="434" y="894"/>
      <point x="393" y="894" type="curve"/>
      <point x="352" y="894"/>
      <point x="336" y="874"/>
      <point x="336" y="848" type="curve"/>
      <point x="336" y="834" type="line" smooth="yes"/>
      <point x="336" y="808"/>
      <point x="352" y="788"/>
    </contour>
    <contour>
      <point x="258" y="274" type="line"/>
      <point x="258" y="0" type="line"/>
      <point x="342" y="0" type="line"/>
      <point x="342" y="274" type="line"/>
      <point x="583" y="698" type="line"/>
      <point x="489" y="698" type="line"/>
      <point x="389" y="516" type="line"/>
      <point x="302" y="357" type="line"/>
      <point x="298" y="357" type="line"/>
      <point x="213" y="516" type="line"/>
      <point x="113" y="698" type="line"/>
      <point x="17" y="698" type="line"/>
    </contour>
  </outline>
</glyph>
<glyph name="Zacute" format="1">
  <advance width="600"/>
  <unicode hex="0179"/>
  <outline>
    <contour>
      <point x="255" y="779" type="line"/>
      <point x="307" y="755" type="line"/>
      <point x="413" y="914" type="line"/>
      <point x="340" y="949" type="line"/>
    </contour>
    <contour>
      <point x="48" y="0" type="line"/>
      <point x="552" y="0" type="line"/>
      <point x="552" y="73" type="line"/>
      <point x="139" y="73" type="line"/>
      <point x="535" y="623" type="line"/>
      <point x="535" y="698" type="line"/>
      <point x="65" y="698" type="line"/>
      <point x="65" y="625" type="line"/>
      <point x="443" y="625" type="line"/>
      <point x="48" y="75" type="line"/>
    </contour>
  </outline>
</glyph>
<glyph name="zacute" format="1">
  <advance width="600"/>
  <unicode hex="017A"/>
  <outline>
    <contour>
      <point x="255" y="609" type="line"/>
      <point x="307" y="585" type="line"/>
      <point x="413" y="744" type="line"/>
      <point x="340" y="779" type="line"/>
    </contour>
    <contour>
      <point x="85" y="77" type="line"/>
      <point x="85" y="0" type="line"/>
      <point x="515" y="0" type="line"/>
      <point x="515" y="68" type="line"/>
      <point x="172" y="68" type="line"/>
      <point x="505" y="439" type="line"/>
      <point x="505" y="516" type="line"/>
      <point x="96" y="516" type="line"/>
      <point x="96" y="448" type="line"/>
      <point x="418" y="448" type="line"/>
    </contour>
  </outline>
</glyph>
<glyph name="zdotaccent" format="1">
  <advance width="600"/>
  <unicode hex="017C"/>
  <outline>
    <contour>
      <point x="300" y="612" type="curve"/>
      <point x="346" y="612"/>
      <point x="363" y="634"/>
      <point x="363" y="663" type="curve"/>
      <point x="363" y="679" type="line" smooth="yes"/>
      <point x="363" y="708"/>
      <point x="346" y="730"/>
      <point x="300" y="730" type="curve"/>
      <point x="254" y="730"/>
      <point x="237" y="708"/>
      <point x="237" y="679" type="curve"/>
      <point x="237" y="663" type="line" smooth="yes"/>
      <point x="237" y="634"/>
      <point x="254" y="612"/>
    </contour>
    <contour>
      <point x="85" y="77" type="line"/>
      <point x="85" y="0" type="line"/>
      <point x="515" y="0" type="line"/>
      <point x="515" y="68" type="line"/>
      <point x="172" y="68" type="line"/>
      <point x="505" y="439" type="line"/>
      <point x="505" y="516" type="line"/>
      <point x="96" y="516" type="line"/>
      <point x="96" y="448" type="line"/>
      <point x="418" y="448" type="line"/>
    </contour>
  </outline>
</glyph>
<glyph name="Zcaron" format="1">
  <advance width="600"/>
  <unicode hex="017D"/>
  <outline>
    <contour>
      <point x="139" y="912" type="line"/>
      <point x="250" y="769" type="line"/>
      <point x="350" y="769" type="line"/>
      <point x="461" y="912" type="line"/>
      <point x="418" y="943" type="line"/>
      <point x="301" y="826" type="line"/>
      <point x="184" y="943" type="line"/>
    </contour>
    <contour>
      <point x="48" y="0" type="line"/>
      <point x="552" y="0" type="line"/>
      <point x="552" y="73" type="line"/>
      <point x="139" y="73" type="line"/>
      <point x="535" y="623" type="line"/>
      <point x="535" y="698" type="line"/>
      <point x="65" y="698" type="line"/>
      <point x="65" y="625" type="line"/>
      <point x="443" y="625" type="line"/>
      <point x="48" y="75" type="line"/>
    </contour>
  </outline>
</glyph>
<glyph name="zcaron" format="1">
  <advance width="600"/>
  <unicode hex="017E"/>
  <outline>
    <contour>
      <point x="139" y="742" type="line"/>
      <point x="250" y="599" type="line"/>
      <point x="350" y="599" type="line"/>
      <point x="461" y="742" type="line"/>
      <point x="419" y="773" type="line"/>
      <point x="302" y="656" type="line"/>
      <point x="185" y="773" type="line"/>
    </contour>
    <contour>
      <point x="85" y="77" type="line"/>
      <point x="85" y="0" type="line"/>
      <point x="515" y="0" type="line"/>
      <point x="515" y="68" type="line"/>
      <point x="172" y="68" type="line"/>
      <point x="505" y="439" type="line"/>
      <point x="505" y="516" type="line"/>
      <point x="96" y="516" type="line"/>
      <point x="96" y="448" type="line"/>
      <point x="418" y="448" type="line"/>
    </contour>
  </outline>
</glyph>
<glyph name="uni018F" format="1">
  <advance width="600"/>
  <unicode hex="018F"/>
  <outline>
    <contour>
      <point x="300" y="-12" type="curve"/>
      <point x="470" y="-12"/>
      <point x="544" y="121"/>
      <point x="544" y="350" type="curve"/>
      <point x="544" y="574"/>
      <point x="474" y="710"/>
      <point x="295" y="710" type="curve"/>
      <point x="174" y="710"/>
      <point x="94" y="647"/>
      <point x="63" y="532" type="curve"/>
      <point x="133" y="499" type="line"/>
      <point x="170" y="618"/>
      <point x="233" y="637"/>
      <point x="289" y="637" type="curve"/>
      <point x="412" y="637"/>
      <point x="455" y="544"/>
      <point x="455" y="404" type="curve"/>
      <point x="455" y="371" type="line"/>
      <point x="56" y="371" type="line"/>
      <point x="56" y="349" type="line" smooth="yes"/>
      <point x="56" y="121"/>
      <point x="130" y="-12"/>
    </contour>
    <contour>
      <point x="299" y="61" type="curve"/>
      <point x="188" y="61"/>
      <point x="143" y="152"/>
      <point x="143" y="292" type="curve"/>
      <point x="143" y="302" type="line"/>
      <point x="455" y="302" type="line"/>
      <point x="455" y="292" type="line" smooth="yes"/>
      <point x="455" y="152"/>
      <point x="410" y="61"/>
    </contour>
  </outline>
</glyph>
<glyph name="Uhorn" format="1">
  <advance width="600"/>
  <unicode hex="01AF"/>
  <outline>
    <contour>
      <point x="164" y="279" type="curve"/>
      <point x="164" y="698" type="line"/>
      <point x="80" y="698" type="line"/>
      <point x="80" y="299" type="line" smooth="yes"/>
      <point x="80" y="92"/>
      <point x="110" y="-12"/>
      <point x="300" y="-12" type="curve"/>
      <point x="490" y="-12"/>
      <point x="520" y="92"/>
      <point x="520" y="299" type="curve"/>
      <point x="520" y="645" type="line"/>
      <point x="537" y="645" type="line" smooth="yes"/>
      <point x="587" y="645"/>
      <point x="600" y="673"/>
      <point x="600" y="708" type="curve"/>
      <point x="600" y="810" type="line"/>
      <point x="529" y="810" type="line"/>
      <point x="529" y="698" type="line"/>
      <point x="436" y="698" type="line"/>
      <point x="436" y="279" type="line" smooth="yes"/>
      <point x="436" y="144"/>
      <point x="431" y="61"/>
      <point x="300" y="61" type="curve"/>
      <point x="169" y="61"/>
      <point x="164" y="144"/>
    </contour>
  </outline>
</glyph>
<glyph name="Aringacute" format="1">
  <advance width="600"/>
  <unicode hex="01FA"/>
  <outline>
    <contour>
      <point x="410" y="1094" type="line"/>
      <point x="340" y="1119" type="line"/>
      <point x="267" y="1006" type="line"/>
      <point x="314" y="987" type="line"/>
    </contour>
    <contour>
      <point x="365" y="736"/>
      <point x="416" y="785"/>
      <point x="416" y="851" type="curve" smooth="yes"/>
      <point x="416" y="917"/>
      <point x="365" y="966"/>
      <point x="300" y="966" type="curve" smooth="yes"/>
      <point x="235" y="966"/>
      <point x="184" y="917"/>
      <point x="184" y="851" type="curve" smooth="yes"/>
      <point x="184" y="785"/>
      <point x="235" y="736"/>
      <point x="300" y="736" type="curve" smooth="yes"/>
    </contour>
    <contour>
      <point x="264" y="785"/>
      <point x="242" y="805"/>
      <point x="242" y="840" type="curve" smooth="yes"/>
      <point x="242" y="862" type="line" smooth="yes"/>
      <point x="242" y="897"/>
      <point x="264" y="917"/>
      <point x="300" y="917" type="curve" smooth="yes"/>
      <point x="336" y="917"/>
      <point x="358" y="897"/>
      <point x="358" y="862" type="curve" smooth="yes"/>
      <point x="358" y="840" type="line" smooth="yes"/>
      <point x="358" y="805"/>
      <point x="336" y="785"/>
      <point x="300" y="785" type="curve" smooth="yes"/>
    </contour>
    <contour>
      <point x="570" y="0" type="line"/>
      <point x="356" y="698" type="line"/>
      <point x="245" y="698" type="line"/>
      <point x="31" y="0" type="line"/>
      <point x="118" y="0" type="line"/>
      <point x="177" y="199" type="line"/>
      <point x="422" y="199" type="line"/>
      <point x="481" y="0" type="line"/>
    </contour>
    <contour>
      <point x="402" y="272" type="line"/>
      <point x="197" y="272" type="line"/>
      <point x="295" y="609" type="line"/>
      <point x="304" y="609" type="line"/>
    </contour>
  </outline>
</glyph>
<glyph name="aringacute" format="1">
  <advance width="600"/>
  <unicode hex="01FB"/>
  <outline>
    <contour>
      <point x="253" y="840" type="line"/>
      <point x="294" y="814" type="line"/>
      <point x="388" y="919" type="line"/>
      <point x="328" y="956" type="line"/>
    </contour>
    <contour>
      <point x="283" y="566" type="curve"/>
      <point x="348" y="566"/>
      <point x="399" y="615"/>
      <point x="399" y="681" type="curve"/>
      <point x="399" y="747"/>
      <point x="348" y="796"/>
      <point x="283" y="796" type="curve"/>
      <point x="218" y="796"/>
      <point x="167" y="747"/>
      <point x="167" y="681" type="curve"/>
      <point x="167" y="615"/>
      <point x="218" y="566"/>
    </contour>
    <contour>
      <point x="283" y="615" type="curve"/>
      <point x="247" y="615"/>
      <point x="225" y="635"/>
      <point x="225" y="670" type="curve"/>
      <point x="225" y="692" type="line" smooth="yes"/>
      <point x="225" y="727"/>
      <point x="247" y="747"/>
      <point x="283" y="747" type="curve"/>
      <point x="319" y="747"/>
      <point x="341" y="727"/>
      <point x="341" y="692" type="curve"/>
      <point x="341" y="670" type="line" smooth="yes"/>
      <point x="341" y="635"/>
      <point x="319" y="615"/>
    </contour>
    <contour>
      <point x="495" y="0" type="curve"/>
      <point x="550" y="0" type="line"/>
      <point x="550" y="70" type="line"/>
      <point x="478" y="70" type="line"/>
      <point x="478" y="354" type="line" smooth="yes"/>
      <point x="478" y="463"/>
      <point x="401" y="528"/>
      <point x="280" y="528" type="curve"/>
      <point x="175" y="528"/>
      <point x="109" y="478"/>
      <point x="83" y="424" type="curve"/>
      <point x="137" y="384" type="line"/>
      <point x="164" y="431"/>
      <point x="206" y="460"/>
      <point x="275" y="460" type="curve"/>
      <point x="353" y="460"/>
      <point x="398" y="421"/>
      <point x="398" y="346" type="curve"/>
      <point x="398" y="295" type="line"/>
      <point x="288" y="295" type="line" smooth="yes"/>
      <point x="133" y="295"/>
      <point x="66" y="240"/>
      <point x="66" y="145" type="curve"/>
      <point x="66" y="48"/>
      <point x="135" y="-12"/>
      <point x="243" y="-12" type="curve"/>
      <point x="327" y="-12"/>
      <point x="376" y="25"/>
      <point x="398" y="84" type="curve"/>
      <point x="403" y="84" type="line"/>
      <point x="409" y="36"/>
      <point x="433" y="0"/>
    </contour>
    <contour>
      <point x="257" y="55" type="curve"/>
      <point x="191" y="55"/>
      <point x="150" y="83"/>
      <point x="150" y="136" type="curve"/>
      <point x="150" y="157" type="line" smooth="yes"/>
      <point x="150" y="207"/>
      <point x="193" y="235"/>
      <point x="288" y="235" type="curve"/>
      <point x="398" y="235" type="line"/>
      <point x="398" y="150" type="line" smooth="yes"/>
      <point x="398" y="97"/>
      <point x="339" y="55"/>
    </contour>
  </outline>
</glyph>
<glyph name="AEacute" format="1">
  <advance width="600"/>
  <unicode hex="01FC"/>
  <outline>
    <contour>
      <point x="400" y="755" type="line"/>
      <point x="506" y="914" type="line"/>
      <point x="433" y="949" type="line"/>
      <point x="348" y="779" type="line"/>
    </contour>
    <contour>
      <point x="312" y="201" type="line"/>
      <point x="312" y="0" type="line"/>
      <point x="560" y="0" type="line"/>
      <point x="560" y="69" type="line"/>
      <point x="392" y="69" type="line"/>
      <point x="392" y="319" type="line"/>
      <point x="548" y="319" type="line"/>
      <point x="548" y="388" type="line"/>
      <point x="392" y="388" type="line"/>
      <point x="392" y="629" type="line"/>
      <point x="560" y="629" type="line"/>
      <point x="560" y="698" type="line"/>
      <point x="226" y="698" type="line"/>
      <point x="20" y="0" type="line"/>
      <point x="104" y="0" type="line"/>
      <point x="160" y="201" type="line"/>
    </contour>
    <contour>
      <point x="281" y="638" type="line"/>
      <point x="312" y="638" type="line"/>
      <point x="312" y="270" type="line"/>
      <point x="178" y="270" type="line"/>
    </contour>
  </outline>
</glyph>
<glyph name="aeacute" format="1">
  <advance width="900"/>
  <unicode hex="01FD"/>
  <outline>
    <contour>
      <point x="405" y="609" type="line"/>
      <point x="457" y="585" type="line"/>
      <point x="563" y="744" type="line"/>
      <point x="490" y="779" type="line"/>
    </contour>
    <component base="uni04D5"/>
  </outline>
</glyph>
<glyph name="uni0237" format="1">
  <advance width="600"/>
  <unicode hex="0237"/>
  <outline>
    <contour>
      <point x="352" y="-132" type="line"/>
      <point x="102" y="-132" type="line"/>
      <point x="102" y="-200" type="line"/>
      <point x="318" y="-200" type="line" smooth="yes"/>
      <point x="396" y="-200"/>
      <point x="432" y="-151"/>
      <point x="432" y="-82" type="curve"/>
      <point x="432" y="516" type="line"/>
      <point x="93" y="516" type="line"/>
      <point x="93" y="448" type="line"/>
      <point x="352" y="448" type="line"/>
    </contour>
  </outline>
</glyph>
<glyph name="uni0259" format="1">
  <advance width="600"/>
  <unicode hex="0259"/>
  <outline>
    <contour>
      <point x="449" y="302" type="curve"/>
      <point x="449" y="278" type="line"/>
      <point x="67" y="278" type="line"/>
      <point x="67" y="240" type="line" smooth="yes"/>
      <point x="67" y="94"/>
      <point x="157" y="-12"/>
      <point x="296" y="-12" type="curve"/>
      <point x="436" y="-12"/>
      <point x="533" y="94"/>
      <point x="533" y="259" type="curve"/>
      <point x="533" y="422"/>
      <point x="439" y="528"/>
      <point x="291" y="528" type="curve"/>
      <point x="189" y="528"/>
      <point x="115" y="478"/>
      <point x="84" y="409" type="curve"/>
      <point x="143" y="369" type="line"/>
      <point x="170" y="425"/>
      <point x="222" y="459"/>
      <point x="291" y="459" type="curve"/>
      <point x="388" y="459"/>
      <point x="449" y="393"/>
    </contour>
    <contour>
      <point x="153" y="207" type="curve"/>
      <point x="153" y="218" type="line"/>
      <point x="449" y="218" type="line"/>
      <point x="449" y="211" type="line" smooth="yes"/>
      <point x="449" y="121"/>
      <point x="384" y="54"/>
      <point x="296" y="54" type="curve"/>
      <point x="211" y="54"/>
      <point x="153" y="116"/>
    </contour>
  </outline>
</glyph>
<glyph name="uni02BB" format="1">
  <advance width="600"/>
  <unicode hex="02BB"/>
  <outline>
    <contour>
      <point x="380" y="776" type="line"/>
      <point x="319" y="776" type="line"/>
      <point x="243" y="587" type="line"/>
      <point x="352" y="587" type="line"/>
    </contour>
  </outline>
</glyph>
<glyph name="uni02BC" format="1">
  <advance width="600"/>
  <unicode hex="02BC"/>
  <outline>
    <contour>
      <point x="190" y="551" type="line"/>
      <point x="251" y="551" type="line"/>
      <point x="300" y="740" type="line"/>
      <point x="197" y="740" type="line"/>
    </contour>
  </outline>
</glyph>
<glyph name="caron" format="1">
  <advance width="600"/>
  <unicode hex="02C7"/>
  <outline>
    <contour>
      <point x="139" y="742" type="line"/>
      <point x="250" y="599" type="line"/>
      <point x="350" y="599" type="line"/>
      <point x="461" y="742" type="line"/>
      <point x="419" y="773" type="line"/>
      <point x="302" y="656" type="line"/>
      <point x="185" y="773" type="line"/>
    </contour>
  </outline>
</glyph>
<glyph name="ring" format="1">
  <advance width="600"/>
  <unicode hex="02DA"/>
  <outline>
    <contour>
      <point x="300" y="576" type="curve"/>
      <point x="365" y="576"/>
      <point x="416" y="625"/>
      <point x="416" y="691" type="curve"/>
      <point x="416" y="757"/>
      <point x="365" y="806"/>
      <point x="300" y="806" type="curve"/>
      <point x="235" y="806"/>
      <point x="184" y="757"/>
      <point x="184" y="691" type="curve"/>
      <point x="184" y="625"/>
      <point x="235" y="576"/>
    </contour>
    <contour>
      <point x="300" y="625" type="curve"/>
      <point x="264" y="625"/>
      <point x="242" y="645"/>
      <point x="242" y="680" type="curve"/>
      <point x="242" y="702" type="line" smooth="yes"/>
      <point x="242" y="737"/>
      <point x="264" y="757"/>
      <point x="300" y="757" type="curve"/>
      <point x="336" y="757"/>
      <point x="358" y="737"/>
      <point x="358" y="702" type="curve"/>
      <point x="358" y="680" type="line" smooth="yes"/>
      <point x="358" y="645"/>
      <point x="336" y="625"/>
    </contour>
  </outline>
</glyph>
<glyph name="hungarumlaut" format="1">
  <advance width="600"/>
  <unicode hex="02DD"/>
  <outline>
    <contour>
      <point x="179" y="608" type="line"/>
      <point x="227" y="586" type="line"/>
      <point x="333" y="745" type="line"/>
      <point x="264" y="778" type="line"/>
    </contour>
    <contour>
      <point x="339" y="608" type="line"/>
      <point x="387" y="586" type="line"/>
      <point x="493" y="745" type="line"/>
      <point x="424" y="778" type="line"/>
    </contour>
  </outline>
</glyph>
<glyph name="uni0300" format="1">
  <advance width="0"/>
  <unicode hex="0300"/>
  <outline>
    <contour>
      <point x="-40" y="779" type="line"/>
      <point x="-113" y="744" type="line"/>
      <point x="-7" y="585" type="line"/>
      <point x="45" y="609" type="line"/>
    </contour>
  </outline>
</glyph>
<glyph name="uni0302" format="1">
  <advance width="0"/>
  <unicode hex="0302"/>
  <outline>
    <contour>
      <point x="161" y="622" type="line"/>
      <point x="50" y="765" type="line"/>
      <point x="-50" y="765" type="line"/>
      <point x="-161" y="622" type="line"/>
      <point x="-118" y="591" type="line"/>
      <point x="-1" y="708" type="line"/>
      <point x="116" y="591" type="line"/>
    </contour>
  </outline>
</glyph>
<glyph name="uni0303" format="1">
  <advance width="0"/>
  <unicode hex="0303"/>
  <outline>
    <contour>
      <point x="73" y="612" type="curve"/>
      <point x="119" y="612"/>
      <point x="150" y="638"/>
      <point x="168" y="665" type="curve"/>
      <point x="135" y="705" type="line"/>
      <point x="115" y="688"/>
      <point x="99" y="678"/>
      <point x="77" y="678" type="curve"/>
      <point x="60" y="678"/>
      <point x="39" y="685"/>
      <point x="7" y="702" type="curve"/>
      <point x="-14" y="713"/>
      <point x="-38" y="728"/>
      <point x="-73" y="728" type="curve"/>
      <point x="-119" y="728"/>
      <point x="-150" y="702"/>
      <point x="-168" y="675" type="curve"/>
      <point x="-135" y="635" type="line"/>
      <point x="-115" y="652"/>
      <point x="-99" y="662"/>
      <point x="-77" y="662" type="curve"/>
      <point x="-60" y="662"/>
      <point x="-39" y="655"/>
      <point x="-7" y="638" type="curve"/>
      <point x="14" y="627"/>
      <point x="38" y="612"/>
    </contour>
  </outline>
</glyph>
<glyph name="uni0304" format="1">
  <advance width="0"/>
  <unicode hex="0304"/>
  <outline>
    <contour>
      <point x="140" y="705" type="line"/>
      <point x="-140" y="705" type="line"/>
      <point x="-140" y="637" type="line"/>
      <point x="140" y="637" type="line"/>
    </contour>
  </outline>
</glyph>
<glyph name="uni0306" format="1">
  <advance width="0"/>
  <unicode hex="0306"/>
  <outline>
    <contour>
      <point x="0" y="595" type="curve"/>
      <point x="107" y="595"/>
      <point x="142" y="685"/>
      <point x="161" y="746" type="curve"/>
      <point x="110" y="768" type="line"/>
      <point x="89" y="734" type="line" smooth="yes"/>
      <point x="58" y="684"/>
      <point x="44" y="660"/>
      <point x="0" y="660" type="curve"/>
      <point x="-44" y="660"/>
      <point x="-58" y="684"/>
      <point x="-89" y="734" type="curve"/>
      <point x="-110" y="768" type="line"/>
      <point x="-161" y="746" type="line"/>
      <point x="-142" y="685"/>
      <point x="-107" y="595"/>
    </contour>
  </outline>
</glyph>
<glyph name="uni0307" format="1">
  <advance width="0"/>
  <unicode hex="0307"/>
  <outline>
    <contour>
      <point x="0" y="612" type="curve"/>
      <point x="46" y="612"/>
      <point x="63" y="634"/>
      <point x="63" y="663" type="curve"/>
      <point x="63" y="679" type="line" smooth="yes"/>
      <point x="63" y="708"/>
      <point x="46" y="730"/>
      <point x="0" y="730" type="curve"/>
      <point x="-46" y="730"/>
      <point x="-63" y="708"/>
      <point x="-63" y="679" type="curve"/>
      <point x="-63" y="663" type="line" smooth="yes"/>
      <point x="-63" y="634"/>
      <point x="-46" y="612"/>
    </contour>
  </outline>
</glyph>
<glyph name="uni0308" format="1">
  <advance width="0"/>
  <unicode hex="0308"/>
  <outline>
    <contour>
      <point x="-93" y="618" type="curve"/>
      <point x="-52" y="618"/>
      <point x="-36" y="638"/>
      <point x="-36" y="664" type="curve"/>
      <point x="-36" y="678" type="line" smooth="yes"/>
      <point x="-36" y="704"/>
      <point x="-52" y="724"/>
      <point x="-93" y="724" type="curve"/>
      <point x="-134" y="724"/>
      <point x="-150" y="704"/>
      <point x="-150" y="678" type="curve"/>
      <point x="-150" y="664" type="line" smooth="yes"/>
      <point x="-150" y="638"/>
      <point x="-134" y="618"/>
    </contour>
    <contour>
      <point x="93" y="618" type="curve"/>
      <point x="134" y="618"/>
      <point x="150" y="638"/>
      <point x="150" y="664" type="curve"/>
      <point x="150" y="678" type="line" smooth="yes"/>
      <point x="150" y="704"/>
      <point x="134" y="724"/>
      <point x="93" y="724" type="curve"/>
      <point x="52" y="724"/>
      <point x="36" y="704"/>
      <point x="36" y="678" type="curve"/>
      <point x="36" y="664" type="line" smooth="yes"/>
      <point x="36" y="638"/>
      <point x="52" y="618"/>
    </contour>
  </outline>
</glyph>
<glyph name="uni0309" format="1">
  <advance width="0"/>
  <unicode hex="0309"/>
  <outline>
    <contour>
      <point x="25" y="765" type="curve"/>
      <point x="-84" y="765" type="line"/>
      <point x="-84" y="704" type="line"/>
      <point x="34" y="704" type="line"/>
      <point x="-24" y="600" type="line"/>
      <point x="22" y="577" type="line"/>
      <point x="46" y="607" type="line" smooth="yes"/>
      <point x="77" y="646"/>
      <point x="95" y="681"/>
      <point x="95" y="710" type="curve"/>
      <point x="95" y="740"/>
      <point x="76" y="765"/>
    </contour>
  </outline>
</glyph>
<glyph name="uni030A" format="1">
  <advance width="0"/>
  <unicode hex="030A"/>
  <outline>
    <contour>
      <point x="0" y="576" type="curve"/>
      <point x="65" y="576"/>
      <point x="116" y="625"/>
      <point x="116" y="691" type="curve"/>
      <point x="116" y="757"/>
      <point x="65" y="806"/>
      <point x="0" y="806" type="curve"/>
      <point x="-65" y="806"/>
      <point x="-116" y="757"/>
      <point x="-116" y="691" type="curve"/>
      <point x="-116" y="625"/>
      <point x="-65" y="576"/>
    </contour>
    <contour>
      <point x="0" y="625" type="curve"/>
      <point x="-36" y="625"/>
      <point x="-58" y="645"/>
      <point x="-58" y="680" type="curve"/>
      <point x="-58" y="702" type="line" smooth="yes"/>
      <point x="-58" y="737"/>
      <point x="-36" y="757"/>
      <point x="0" y="757" type="curve"/>
      <point x="36" y="757"/>
      <point x="58" y="737"/>
      <point x="58" y="702" type="curve"/>
      <point x="58" y="680" type="line" smooth="yes"/>
      <point x="58" y="645"/>
      <point x="36" y="625"/>
    </contour>
  </outline>
</glyph>
<glyph name="uni030B" format="1">
  <advance width="0"/>
  <unicode hex="030B"/>
  <outline>
    <contour>
      <point x="-121" y="608" type="line"/>
      <point x="-73" y="586" type="line"/>
      <point x="33" y="745" type="line"/>
      <point x="-36" y="778" type="line"/>
    </contour>
    <contour>
      <point x="39" y="608" type="line"/>
      <point x="87" y="586" type="line"/>
      <point x="193" y="745" type="line"/>
      <point x="124" y="778" type="line"/>
    </contour>
  </outline>
</glyph>
<glyph name="uni030C" format="1">
  <advance width="0"/>
  <unicode hex="030C"/>
  <outline>
    <contour>
      <point x="-161" y="742" type="line"/>
      <point x="-50" y="599" type="line"/>
      <point x="50" y="599" type="line"/>
      <point x="161" y="742" type="line"/>
      <point x="119" y="773" type="line"/>
      <point x="2" y="656" type="line"/>
      <point x="-115" y="773" type="line"/>
    </contour>
  </outline>
</glyph>
<glyph name="uni0312" format="1">
  <advance width="0"/>
  <unicode hex="0312"/>
  <outline>
    <contour>
      <point x="80" y="776" type="line"/>
      <point x="19" y="776" type="line"/>
      <point x="-57" y="587" type="line"/>
      <point x="52" y="587" type="line"/>
    </contour>
  </outline>
</glyph>
<glyph name="uni0315" format="1">
  <advance width="0"/>
  <unicode hex="0315"/>
  <outline>
    <contour>
      <point x="0" y="551" type="line"/>
      <point x="61" y="551" type="line"/>
      <point x="110" y="740" type="line"/>
      <point x="7" y="740" type="line"/>
    </contour>
  </outline>
</glyph>
<glyph name="uni031B" format="1">
  <advance width="0"/>
  <unicode hex="031B"/>
  <outline>
    <contour>
      <point x="77" y="526" type="curve"/>
      <point x="77" y="628" type="line"/>
      <point x="6" y="628" type="line"/>
      <point x="6" y="516" type="line"/>
      <point x="-77" y="516" type="line"/>
      <point x="-77" y="463" type="line"/>
      <point x="14" y="463" type="line" smooth="yes"/>
      <point x="64" y="463"/>
      <point x="77" y="491"/>
    </contour>
  </outline>
</glyph>
<glyph name="uni0323" format="1">
  <advance width="0"/>
  <unicode hex="0323"/>
  <outline>
    <contour>
      <point x="0" y="-172" type="curve"/>
      <point x="41" y="-172"/>
      <point x="57" y="-152"/>
      <point x="57" y="-126" type="curve"/>
      <point x="57" y="-112" type="line" smooth="yes"/>
      <point x="57" y="-86"/>
      <point x="41" y="-66"/>
      <point x="0" y="-66" type="curve"/>
      <point x="-41" y="-66"/>
      <point x="-57" y="-86"/>
      <point x="-57" y="-112" type="curve"/>
      <point x="-57" y="-126" type="line" smooth="yes"/>
      <point x="-57" y="-152"/>
      <point x="-41" y="-172"/>
    </contour>
  </outline>
</glyph>
<glyph name="uni0326" format="1">
  <advance width="0"/>
  <unicode hex="0326"/>
  <outline>
    <contour>
      <point x="57" y="-62" type="line"/>
      <point x="-52" y="-62" type="line"/>
      <point x="-80" y="-251" type="line"/>
      <point x="-19" y="-251" type="line"/>
    </contour>
  </outline>
</glyph>
<glyph name="uni0327" format="1">
  <advance width="0"/>
  <unicode hex="0327"/>
  <outline>
    <contour>
      <point x="12" y="-207" type="curve"/>
      <point x="71" y="-207"/>
      <point x="123" y="-181"/>
      <point x="123" y="-124" type="curve"/>
      <point x="123" y="-81"/>
      <point x="94" y="-58"/>
      <point x="55" y="-58" type="curve"/>
      <point x="43" y="-58"/>
      <point x="29" y="-60"/>
      <point x="16" y="-64" type="curve"/>
      <point x="13" y="-61" type="line"/>
      <point x="29" y="20" type="line"/>
      <point x="-21" y="20" type="line"/>
      <point x="-40" y="-77" type="line"/>
      <point x="-12" y="-81" type="line" smooth="yes"/>
      <point x="44" y="-89"/>
      <point x="56" y="-104"/>
      <point x="56" y="-122" type="curve"/>
      <point x="56" y="-143"/>
      <point x="37" y="-153"/>
      <point x="12" y="-153" type="curve"/>
      <point x="-17" y="-153"/>
      <point x="-37" y="-140"/>
      <point x="-49" y="-125" type="curve"/>
      <point x="-87" y="-166" type="line"/>
      <point x="-73" y="-185"/>
      <point x="-42" y="-207"/>
    </contour>
  </outline>
</glyph>
<glyph name="uni0328" format="1">
  <advance width="0"/>
  <unicode hex="0328"/>
  <outline>
    <contour>
      <point x="-72" y="-207" type="curve"/>
      <point x="-22" y="-207"/>
      <point x="8" y="-188"/>
      <point x="21" y="-166" type="curve"/>
      <point x="-19" y="-125" type="line"/>
      <point x="-32" y="-141"/>
      <point x="-49" y="-151"/>
      <point x="-71" y="-151" type="curve"/>
      <point x="-92" y="-151"/>
      <point x="-113" y="-142"/>
      <point x="-113" y="-114" type="curve"/>
      <point x="-113" y="-94"/>
      <point x="-103" y="-65"/>
      <point x="0" y="0" type="curve"/>
      <point x="-7" y="19" type="line"/>
      <point x="-72" y="12" type="line"/>
      <point x="-66" y="-3" type="line"/>
      <point x="-141" y="-39"/>
      <point x="-181" y="-79"/>
      <point x="-181" y="-127" type="curve"/>
      <point x="-181" y="-180"/>
      <point x="-133" y="-207"/>
    </contour>
  </outline>
</glyph>
<glyph name="uni0374" format="1">
  <advance width="600"/>
  <unicode hex="0374"/>
  <outline>
    <contour>
      <point x="263" y="714" type="line"/>
      <point x="188" y="566" type="line"/>
      <point x="188" y="554" type="line"/>
      <point x="246" y="554" type="line"/>
      <point x="369" y="714" type="line"/>
    </contour>
  </outline>
</glyph>
<glyph name="uni0375" format="1">
  <advance width="600"/>
  <unicode hex="0375"/>
  <outline>
    <contour>
      <point x="304" y="-48" type="line"/>
      <point x="229" y="-196" type="line"/>
      <point x="229" y="-208" type="line"/>
      <point x="287" y="-208" type="line"/>
      <point x="410" y="-58" type="line"/>
      <point x="410" y="-48" type="line"/>
    </contour>
  </outline>
</glyph>
<glyph name="uni037A" format="1">
  <advance width="300"/>
  <unicode hex="037A"/>
  <outline>
    <contour>
      <point x="173" y="-116" type="qcurve"/>
      <point x="173" y="-62" type="line"/>
      <point x="98" y="-62" type="line"/>
      <point x="98" y="-125" type="line" smooth="yes"/>
      <point x="98" y="-174"/>
      <point x="141" y="-220"/>
      <point x="177" y="-220" type="qcurve"/>
      <point x="197" y="-220"/>
      <point x="230" y="-214"/>
      <point x="238" y="-211" type="qcurve"/>
      <point x="238" y="-153" type="line"/>
      <point x="232" y="-154"/>
      <point x="214" y="-158"/>
      <point x="205" y="-158" type="qcurve"/>
      <point x="173" y="-158"/>
    </contour>
  </outline>
</glyph>
<glyph name="tonos" format="1">
  <advance width="600"/>
  <unicode hex="0384"/>
  <note>
    tonos
  </note>
  <outline>
    <component base="tonos.case" xOffset="330"/>
    <contour>
      <point x="312" y="516" type="move" name="_top"/>
    </contour>
  </outline>
</glyph>
<glyph name="dieresistonos" format="1">
  <advance width="600"/>
  <unicode hex="0385"/>
  <note>
    dieresistonos
  </note>
  <outline>
    <contour>
      <point x="178" y="618" type="curve"/>
      <point x="208" y="618"/>
      <point x="223" y="636"/>
      <point x="223" y="664" type="curve"/>
      <point x="223" y="675" type="line" smooth="yes"/>
      <point x="223" y="703"/>
      <point x="208" y="721"/>
      <point x="178" y="721" type="curve"/>
      <point x="148" y="721"/>
      <point x="133" y="703"/>
      <point x="133" y="675" type="curve"/>
      <point x="133" y="664" type="line" smooth="yes"/>
      <point x="133" y="636"/>
      <point x="148" y="618"/>
    </contour>
    <contour>
      <point x="422" y="618" type="curve"/>
      <point x="452" y="618"/>
      <point x="467" y="636"/>
      <point x="467" y="664" type="curve"/>
      <point x="467" y="675" type="line" smooth="yes"/>
      <point x="467" y="703"/>
      <point x="452" y="721"/>
      <point x="422" y="721" type="curve"/>
      <point x="392" y="721"/>
      <point x="377" y="703"/>
      <point x="377" y="675" type="curve"/>
      <point x="377" y="664" type="line" smooth="yes"/>
      <point x="377" y="636"/>
      <point x="392" y="618"/>
    </contour>
    <component base="tonos.case" xOffset="305" yOffset="30"/>
    <contour>
      <point x="292" y="516" type="move" name="_top"/>
    </contour>
  </outline>
</glyph>
<glyph name="anoteleia" format="1">
  <advance width="600"/>
  <unicode hex="0387"/>
  <note>
    anoteleia
  </note>
  <outline>
    <contour>
      <point x="300" y="387" type="curve"/>
      <point x="354" y="387"/>
      <point x="374" y="413"/>
      <point x="374" y="447" type="curve"/>
      <point x="374" y="465" type="line" smooth="yes"/>
      <point x="374" y="499"/>
      <point x="354" y="525"/>
      <point x="300" y="525" type="curve"/>
      <point x="246" y="525"/>
      <point x="226" y="499"/>
      <point x="226" y="465" type="curve"/>
      <point x="226" y="447" type="line" smooth="yes"/>
      <point x="226" y="413"/>
      <point x="246" y="387"/>
    </contour>
  </outline>
</glyph>
<glyph name="Theta" format="1">
  <advance width="600"/>
  <unicode hex="0398"/>
  <note>
    Theta
  </note>
  <outline>
    <contour>
      <point x="183" y="316" type="line"/>
      <point x="425" y="316" type="line"/>
      <point x="425" y="390" type="line"/>
      <point x="183" y="390" type="line"/>
    </contour>
    <component base="O"/>
  </outline>
</glyph>
<glyph name="Lambda" format="1">
  <advance width="600"/>
  <unicode hex="039B"/>
  <note>
    Lambda
  </note>
  <outline>
    <contour>
      <point x="355" y="698" type="line"/>
      <point x="248" y="698" type="line"/>
      <point x="30" y="0" type="line"/>
      <point x="115" y="0" type="line"/>
      <point x="220" y="352" type="line"/>
      <point x="297" y="620" type="line"/>
      <point x="302" y="620" type="line"/>
      <point x="380" y="352" type="line"/>
      <point x="485" y="0" type="line"/>
      <point x="573" y="0" type="line"/>
    </contour>
  </outline>
</glyph>
<glyph name="Phi" format="1">
  <advance width="900"/>
  <unicode hex="03A6"/>
  <note>
    Phi
  </note>
  <outline>
    <contour>
      <point x="408" y="31" type="line"/>
      <point x="408" y="-29" type="line"/>
      <point x="492" y="-29" type="line"/>
      <point x="492" y="31" type="line"/>
      <point x="510" y="31" type="line" smooth="yes"/>
      <point x="712" y="31"/>
      <point x="822" y="170"/>
      <point x="822" y="354" type="curve"/>
      <point x="822" y="538"/>
      <point x="712" y="677"/>
      <point x="510" y="677" type="curve"/>
      <point x="492" y="677" type="line"/>
      <point x="492" y="725" type="line"/>
      <point x="408" y="725" type="line"/>
      <point x="408" y="677" type="line"/>
      <point x="390" y="677" type="line" smooth="yes"/>
      <point x="188" y="677"/>
      <point x="78" y="538"/>
      <point x="78" y="354" type="curve"/>
      <point x="78" y="170"/>
      <point x="188" y="31"/>
      <point x="390" y="31" type="curve"/>
    </contour>
    <contour>
      <point x="410" y="607" type="line"/>
      <point x="410" y="101" type="line"/>
      <point x="390" y="101" type="line" smooth="yes"/>
      <point x="254" y="101"/>
      <point x="168" y="197"/>
      <point x="168" y="323" type="curve"/>
      <point x="168" y="385" type="line" smooth="yes"/>
      <point x="168" y="511"/>
      <point x="254" y="607"/>
      <point x="390" y="607" type="curve"/>
    </contour>
    <contour>
      <point x="510" y="101" type="curve"/>
      <point x="490" y="101" type="line"/>
      <point x="490" y="607" type="line"/>
      <point x="510" y="607" type="line" smooth="yes"/>
      <point x="646" y="607"/>
      <point x="732" y="511"/>
      <point x="732" y="385" type="curve"/>
      <point x="732" y="323" type="line" smooth="yes"/>
      <point x="732" y="197"/>
      <point x="646" y="101"/>
    </contour>
  </outline>
</glyph>
<glyph name="Psi" format="1">
  <advance width="900"/>
  <unicode hex="03A8"/>
  <note>
    Psi
  </note>
  <outline>
    <contour>
      <point x="403" y="203" type="curve"/>
      <point x="403" y="0" type="line"/>
      <point x="487" y="0" type="line"/>
      <point x="487" y="203" type="line"/>
      <point x="655" y="203"/>
      <point x="772" y="286"/>
      <point x="772" y="468" type="curve"/>
      <point x="772" y="698" type="line"/>
      <point x="688" y="698" type="line"/>
      <point x="688" y="468" type="line" smooth="yes"/>
      <point x="688" y="322"/>
      <point x="599" y="273"/>
      <point x="487" y="273" type="curve"/>
      <point x="487" y="698" type="line"/>
      <point x="403" y="698" type="line"/>
      <point x="403" y="273" type="line"/>
      <point x="291" y="273"/>
      <point x="202" y="322"/>
      <point x="202" y="468" type="curve"/>
      <point x="202" y="698" type="line"/>
      <point x="118" y="698" type="line"/>
      <point x="118" y="468" type="line" smooth="yes"/>
      <point x="118" y="286"/>
      <point x="235" y="203"/>
    </contour>
  </outline>
</glyph>
